<?xml version="1.0" encoding="UTF-8" standalone="no"?>
<!-- Generator: Adobe Illustrator 24.1.1, SVG Export Plug-In . SVG Version: 6.00 Build 0)  -->

<svg
   version="1.1"
   id="Layer_1"
   x="0px"
   y="0px"
   viewBox="0 0 512 512"
   style="enable-background:new 0 0 512 512;"
   xml:space="preserve"
   sodipodi:docname="gear-black.svg"
   inkscape:version="1.2.1 (9c6d41e410, 2022-07-14)"
   xmlns:inkscape="http://www.inkscape.org/namespaces/inkscape"
   xmlns:sodipodi="http://sodipodi.sourceforge.net/DTD/sodipodi-0.dtd"
   xmlns="http://www.w3.org/2000/svg"
   xmlns:svg="http://www.w3.org/2000/svg"><defs
   id="defs7381">
	
</defs><sodipodi:namedview
   id="namedview7379"
   pagecolor="#000000"
   bordercolor="#ffffff"
   borderopacity="0.24705882"
   inkscape:showpageshadow="2"
   inkscape:pageopacity="0"
   inkscape:pagecheckerboard="0"
   inkscape:deskcolor="#000000"
   showgrid="false"
   inkscape:zoom="0.98891729"
   inkscape:cx="221.45431"
   inkscape:cy="253.30733"
   inkscape:window-width="1318"
   inkscape:window-height="768"
   inkscape:window-x="0"
   inkscape:window-y="0"
   inkscape:window-maximized="1"
   inkscape:current-layer="Layer_1" />
<style
   type="text/css"
   id="style7374">
	.st0{fill:#333333;}
</style>
<path
   id="XMLID_6_"
   class="st0"
   d="m 500.94709,221.12142 v 70.81968 c 0,2.70525 -0.86381,5.4105 -2.68741,7.14959 -1.8236,2.70525 -3.55122,3.57481 -6.23863,4.44435 l -58.73911,8.9853 c -4.41503,11.69057 -7.96626,21.54542 -12.47727,29.56456 7.10244,10.7244 18.7159,25.12021 33.78459,43.86376 1.8236,2.70525 3.55122,5.41051 3.55122,8.01914 0,2.70526 -0.86381,5.41051 -2.68741,7.14961 -5.37482,8.01914 -16.02848,19.7097 -31.19316,34.97506 -15.16467,15.26536 -24.95452,22.41496 -30.23336,22.41496 -2.68741,0 -5.37482,-0.86954 -7.96625,-2.70525 l -43.57445,-34.97507 c -9.78985,4.44435 -18.71589,8.98531 -29.36955,12.56011 -3.55122,28.69501 -6.23864,49.27426 -8.92605,59.99866 -1.8236,6.28005 -5.37482,8.98531 -11.61345,8.98531 h -72.08019 c -2.68741,0 -5.37482,-0.86954 -7.96626,-2.70526 -2.6874,-1.8357 -3.55122,-4.44433 -3.55122,-7.14959 l -8.92603,-59.12912 c -10.65367,-3.5748 -19.57971,-7.1496 -28.50575,-11.69056 l -44.53423,34.0089 c -1.8236,1.83571 -4.41503,2.70526 -7.96626,2.70526 -2.68741,0 -5.37482,-0.86955 -7.96625,-3.5748 -26.682143,-24.15405 -44.534227,-42.12467 -52.50048,-53.81523 -1.8236,-1.83571 -2.68741,-4.44435 -2.68741,-7.1496 0,-2.70526 0.86381,-5.41051 2.68741,-7.14959 3.551221,-4.44435 8.926042,-11.69057 16.028484,-21.54542 7.966253,-9.85486 13.341073,-17.00446 16.892295,-22.41497 -5.374822,-10.72439 -9.789853,-21.5454 -13.341074,-31.40026 l -58.739114,-8.9853 c -2.687411,0 -5.374822,-1.83571 -7.102442,-3.57481 -1.8236,-2.70525 -2.6874111,-4.44434 -2.6874111,-7.14959 v -71.68923 c 0,-2.70526 0.8638111,-5.41051 2.6874111,-7.1496 1.823599,-2.70525 3.55122,-3.5748 6.238631,-4.44434 l 59.602925,-8.98531 c 2.687411,-9.85485 7.102442,-19.70971 12.477263,-29.56456 -8.926042,-12.56011 -19.579704,-26.8593 -33.784589,-43.86375 -1.8236,-2.70526 -3.55122,-5.41051 -3.55122,-8.01915 0,-1.83571 0.86381,-4.44435 2.68741,-7.1496 5.374821,-8.01915 16.028484,-18.840163 31.193157,-34.008907 15.164674,-15.168745 25.818334,-23.284506 30.233374,-23.284506 2.68741,0 5.37482,0.869545 7.96625,3.574799 l 43.47846,34.105521 c 9.78985,-4.444346 18.71589,-8.985307 29.36956,-12.560107 3.55122,-28.695013 6.23863,-49.274265 8.92604,-59.998664 1.82359,-6.280053 5.37481,-8.9853069 11.61345,-8.9853069 h 72.944 c 2.68741,0 5.37482,0.8695459 7.96625,2.7052539 2.68741,1.835708 3.55122,4.444346 3.55122,7.1496 l 8.92605,59.129117 c 10.65366,3.5748 19.5797,7.1496 28.50574,11.690562 L 386.0603,56.294167 c 1.82359,-1.835709 4.41503,-2.705254 7.96625,-2.705254 2.6874,0 5.37481,0.869545 7.96624,3.574799 27.64195,25.120214 44.53424,43.863758 52.50049,54.684768 1.8236,1.83571 2.68742,4.44435 2.68742,7.1496 0,2.70526 -0.86382,5.41051 -2.68742,7.14961 -3.55122,4.44434 -8.92604,11.69056 -16.02848,21.54541 -7.96625,9.85485 -13.34108,17.00445 -16.8923,22.41496 5.37482,10.7244 9.78986,21.54541 13.34108,31.40026 l 58.73911,8.98531 c 7.738,1.40056 7.39476,1.94559 7.2944,10.62779 z"
   style="display:inline;fill:#001919;fill-opacity:1;stroke:#00ffff;stroke-width:5;stroke-dasharray:none;stroke-opacity:1"
   sodipodi:nodetypes="cscccccscssccccsscccccsccsccccccsscccccscssccccsscccccsccscccccc" /><rect
   style="enable-background:new 0 0 512 512;fill:#00ffff;stroke:#00ffff;stroke-width:5;stroke-linecap:square;stroke-miterlimit:3.5;stroke-dasharray:none;stroke-opacity:1;paint-order:fill markers stroke;fill-opacity:1"
   id="rect3376"
   width="111.12655"
   height="111.12655"
   x="200.43672"
   y="200.43672"
   ry="55.563274" />
</svg>
