<?xml version="1.0" encoding="UTF-8" standalone="no"?>
<svg
   viewBox="0 0 48 48"
   version="1.1"
   id="svg36442"
   sodipodi:docname="kde2.svg"
   inkscape:version="1.2 (dc2aedaf03, 2022-05-15)"
   xmlns:inkscape="http://www.inkscape.org/namespaces/inkscape"
   xmlns:sodipodi="http://sodipodi.sourceforge.net/DTD/sodipodi-0.dtd"
   xmlns="http://www.w3.org/2000/svg"
   xmlns:svg="http://www.w3.org/2000/svg">
  <defs
     id="defs36446" />
  <sodipodi:namedview
     id="namedview36444"
     pagecolor="#ffffff"
     bordercolor="#000000"
     borderopacity="0.25"
     inkscape:showpageshadow="2"
     inkscape:pageopacity="0.0"
     inkscape:pagecheckerboard="0"
     inkscape:deskcolor="#d1d1d1"
     showgrid="false"
     inkscape:zoom="12.125"
     inkscape:cx="18.556701"
     inkscape:cy="23.175258"
     inkscape:window-width="1308"
     inkscape:window-height="768"
     inkscape:window-x="0"
     inkscape:window-y="0"
     inkscape:window-maximized="1"
     inkscape:current-layer="svg36442" />
  <g
     id="g36440"
     transform="matrix(0.97959144,0,0,0.97959144,0.48980472,0.48980467)">
    <path
       d="M 5.9999998,-9.14e-6 H 42.000001 c 3.323999,0 6.000001,2.67600674 6.000001,6.00000714 v 36 c 0,3.324001 -2.676002,6.000008 -6.000001,6.000008 H 5.9999998 C 2.6759997,48.000006 -4.2e-7,45.323999 -4.2e-7,41.999998 v -36 C -4.2e-7,2.6759976 2.6759997,-9.14e-6 5.9999998,-9.14e-6 Z"
       fill="#1d99f3"
       id="path36436"
       style="fill:#00ffff;stroke:#000000;stroke-opacity:1" />
    <path
       d="M 26.81721,6.0579518 20.839778,6.6301761 V 31.24346 l 5.914217,-0.890396 V 19.859082 l 7.94986,11.63921 6.232374,-1.972015 L 32.795757,18.332768 40.999999,7.7751349 34.640641,6.3130249 26.754134,16.870219 Z M 13.267815,12.055805 c -0.0675,0.0071 -0.132687,0.03685 -0.183377,0.08773 l -2.346015,2.345604 c -0.09864,0.09893 -0.11722,0.252309 -0.0445,0.372086 l 2.746696,4.523795 c -0.487167,0.819006 -0.877623,1.70206 -1.156683,2.633586 L 7.2413808,23.067473 C 7.1010857,23.096528 6.9999995,23.22084 6.9999995,23.36481 v 3.317296 c 0,0.140314 0.095983,0.261806 0.2311699,0.294475 l 4.8943156,1.196322 c 0.260998,1.07887 0.665445,2.101628 1.199988,3.041644 L 10.4925,35.534519 c -0.07904,0.120754 -0.06252,0.279776 0.0396,0.381468 l 2.345182,2.345604 c 0.09864,0.09836 0.252621,0.117637 0.372908,0.04535 l 4.43931,-2.696114 c 0.872008,0.503187 1.812374,0.899183 2.806296,1.16772 l 1.035783,4.980041 c 0.02915,0.141164 0.153885,0.241396 0.296928,0.241396 h 3.317709 c 0.139477,0 0.261191,-0.09524 0.294481,-0.232013 l 1.219994,-4.990317 c 1.024557,-0.276502 1.993542,-0.688627 2.886878,-1.21469 l 4.374709,2.868406 c 0.120287,0.07923 0.279379,0.06335 0.38148,-0.03869 l 2.346016,-2.34559 c 0.09924,-0.09921 0.117013,-0.252607 0.04409,-0.372072 l -1.597029,-2.631956 -0.516676,0.163387 c -0.07532,0.02381 -0.157452,-0.0043 -0.201758,-0.06987 0,0 -1.01864,-1.491165 -2.334206,-3.41665 -1.572715,3.077927 -4.772331,5.186372 -8.467241,5.186372 -5.249568,0 -9.505489,-4.256079 -9.505489,-9.505904 0,-3.861926 2.303503,-7.183248 5.610236,-8.671068 v -2.452313 c -0.601827,0.210541 -1.183648,0.464396 -1.73624,0.765418 -4.04e-4,-3.69e-4 -8.09e-4,-0.0014 -0.0024,-0.0028 l -4.477658,-2.936763 c -0.0603,-0.0394 -0.130199,-0.05513 -0.197673,-0.04819 z"
       fill="#fcfcfc"
       id="path36438"
       style="fill:#000000" />
  </g>
</svg>
