<?xml version="1.0" encoding="UTF-8" standalone="no"?>
<!-- Created with Inkscape (http://www.inkscape.org/) -->

<svg
   width="210mm"
   height="297mm"
   viewBox="0 0 210 297"
   version="1.1"
   id="svg5"
   sodipodi:docname="Konky.svg"
   inkscape:version="1.2 (dc2aedaf03, 2022-05-15)"
   xmlns:inkscape="http://www.inkscape.org/namespaces/inkscape"
   xmlns:sodipodi="http://sodipodi.sourceforge.net/DTD/sodipodi-0.dtd"
   xmlns="http://www.w3.org/2000/svg"
   xmlns:svg="http://www.w3.org/2000/svg">
  <sodipodi:namedview
     id="namedview7"
     pagecolor="#ffffff"
     bordercolor="#999999"
     borderopacity="1"
     inkscape:pageshadow="0"
     inkscape:pageopacity="0"
     inkscape:pagecheckerboard="0"
     inkscape:document-units="mm"
     showgrid="false"
     inkscape:snap-global="true"
     inkscape:zoom="0.50000001"
     inkscape:cx="250"
     inkscape:cy="575.99999"
     inkscape:window-width="1308"
     inkscape:window-height="768"
     inkscape:window-x="0"
     inkscape:window-y="0"
     inkscape:window-maximized="1"
     inkscape:current-layer="g1165"
     inkscape:snap-smooth-nodes="true"
     inkscape:snap-intersection-paths="true"
     inkscape:object-paths="true"
     showguides="true"
     inkscape:showpageshadow="2"
     inkscape:deskcolor="#d1d1d1" />
  <defs
     id="defs2" />
  <g
     inkscape:label="Capa 1"
     id="layer1"
     style="display:inline"
     inkscape:groupmode="layer">
    <g
       id="g1165"
       transform="matrix(0.95830673,0,0,0.95830673,52.709125,-7.6967411)"
       inkscape:label="Konqi"
       style="display:inline">
      <g
         id="g1206"
         inkscape:label="head"
         style="display:inline">
        <g
           id="g170477"
           style="display:inline">
          <path
             style="color:#000000;fill:#ffb030;stroke-width:3;stroke-linecap:round;-inkscape-stroke:none"
             d="m 61.598068,92.947103 c 8.107172,-10.086536 6.899608,-7.219276 7.631604,-9.672299 0.731999,-2.453024 0.792798,-4.809781 2.209034,-6.960907 1.416235,-2.151126 9.202872,-12.026286 9.202872,-12.026286 0,0 14.901886,4.355788 16.397697,3.846327 1.495809,-0.50946 21.306695,-10.245201 20.380835,-11.351138 -0.92586,-1.105937 -27.806892,-4.90796 -27.806892,-4.90796 0,0 28.484852,-39.577854 26.533062,-39.488664 -1.95178,0.08919 -19.238521,10.138633 -21.290674,12.331393 -2.052154,2.19276 -18.73281,25.636991 -18.73281,25.636991 0,0 3.05195,-10.312701 0.644525,-10.862 -2.407428,-0.549296 -12.633761,6.95936 -12.633761,9.403221 0,2.443861 -2.736072,21.416876 -2.736072,21.416876 l -6.346341,10.137992 z"
             id="path72381"
             sodipodi:nodetypes="csscsscsscssccc" />
          <path
             style="color:#000000;fill:#906119;stroke-linecap:round;-inkscape-stroke:none"
             d="m 116.57785,10.689656 c -4.28725,1.086318 -8.34134,3.776357 -11.79269,5.775188 -2.42825,1.408754 -4.855891,2.881987 -6.824223,4.152343 -1.968331,1.270357 -3.360805,2.178226 -4.201171,3.076172 -0.731498,0.781618 -2.043746,2.549809 -3.902344,5.064453 -1.858598,2.514645 -4.138334,5.65253 -6.353516,8.722657 -2.337951,3.240278 -2.922026,4.068716 -4.541015,6.333984 0.51219,-4.800707 0.528633,-6.208568 -0.13749,-6.883731 -1.157879,-0.382137 -4.036153,0.898188 -5.784385,1.936465 -4.354403,2.586085 -9.046469,5.897507 -11.129238,10.343019 -0.448367,0.991418 -0.415822,2.137798 -0.55045,3.217528 -0.311655,2.499501 -0.37781,4.902102 -0.59375,7.533203 -0.416943,5.080221 -0.807589,9.541454 -0.835937,9.867188 l -6.609375,10.556641 8.009765,15.287109 1.435547,-1.785156 c 4.032885,-5.017513 5.689932,-6.749194 6.501953,-7.609375 0.406011,-0.430091 0.705781,-0.733861 0.941406,-1.207032 0.235626,-0.47317 0.283451,-0.785493 0.457032,-1.367187 0.800767,-2.683475 0.873063,-4.817146 2.023437,-6.564453 0.593527,-0.90151 2.945178,-3.992617 5.064453,-6.72461 C 79.555615,68.09397 80.743422,66.588817 81.207031,66 c 0.786572,0.228233 3.258884,0.954017 6.691406,1.853516 1.969257,0.516047 3.988232,1.017144 5.640625,1.363281 0.826197,0.173068 1.557246,0.307696 2.175782,0.386719 0.618536,0.07902 0.953113,0.242541 1.808593,-0.04883 0.398794,-0.135825 0.794261,-0.325308 1.490235,-0.648437 0.695974,-0.323129 1.595808,-0.753808 2.628908,-1.257813 2.06619,-1.008009 4.6633,-2.312281 7.1914,-3.638671 2.52811,-1.326391 4.98165,-2.670015 6.78907,-3.78125 1.03521,-0.713808 5.68801,-3.010086 5.10531,-4.40103 0.0126,-0.694361 -5.15881,-1.234806 -7.75961,-1.751314 -3.17223,-0.629991 -6.13607,-1.096861 -9.5625,-1.642578 -5.631817,-0.896963 -9.363706,-1.422153 -11.162109,-1.679688 1.225612,-1.705895 6.408113,-8.902952 12.599609,-17.800781 3.44322,-4.948261 6.82391,-9.89288 9.23828,-13.619141 1.20719,-1.86313 2.17085,-3.413992 2.79883,-4.552734 0.41745,-0.771734 2.01846,-3.103853 1.67888,-3.791234 -0.0874,-0.373105 -1.6038,-0.237969 -1.98189,-0.300359 z m -3.57004,4.669719 c -0.47442,0.774387 -0.80578,1.359729 -1.44336,2.34375 -2.37759,3.669495 -5.74957,8.602066 -9.18359,13.537109 -6.868035,9.870087 -13.984376,19.757813 -13.984376,19.757813 l -1.451172,2.013672 2.457032,0.347656 c 0,0 6.712146,0.949098 13.531246,2.035156 3.40956,0.543029 6.84755,1.120988 9.4668,1.626953 0.81475,0.157386 1.35819,0.286857 1.98438,0.425782 -0.13926,0.08842 -0.18279,0.133599 -0.33399,0.226562 -1.69347,1.04118 -4.11352,2.370221 -6.60937,3.679688 -2.49586,1.309467 -5.07317,2.604322 -7.11328,3.599609 -1.02006,0.497643 -1.908007,0.921295 -2.57813,1.232422 -0.670123,0.311127 -1.218201,0.537758 -1.193359,0.529297 0.481528,-0.164005 0.02178,-0.02622 -0.460938,-0.08789 C 95.612986,66.565283 94.935499,66.44294 94.154297,66.279297 92.591893,65.95201 90.603343,65.460388 88.660156,64.951172 84.773782,63.93274 81.0625,62.847656 81.0625,62.847656 l -0.972656,-0.283203 -0.626953,0.794922 c 0,0 -1.948075,2.47148 -4.076172,5.214844 -2.128098,2.743364 -4.378465,5.664448 -5.201172,6.914062 -1.682095,2.554941 -1.729349,5.134854 -2.392578,7.357422 -0.192417,0.644817 -0.2704,0.894337 -0.267578,0.888672 0.0028,-0.0057 -0.04051,0.06384 -0.4375,0.484375 -0.618808,0.655508 -2.750366,3.135224 -5.189454,6.070312 l -5.11914,-9.771484 6.082031,-9.714844 0.03125,-0.359375 c 0,0 0.432582,-4.964699 0.865234,-10.236328 0.216327,-2.635814 0.59375,-7.560547 0.59375,-7.560547 0,0 0.308322,-2.471998 0.745763,-3.625731 0.192198,-0.506915 0.447726,-1.007303 0.810878,-1.409825 2.282331,-2.529767 5.210806,-4.521729 8.291016,-5.978116 0.564001,-0.266671 1.288561,-0.566219 1.809355,-0.478679 0.11082,0.113324 0.31898,0.08965 0.317163,0.502374 -0.0036,0.818185 -0.221989,2.462816 -0.335964,3.309531 l -0.83037,6.987388 c 0,0 8.166071,-9.109488 10.776146,-12.717096 2.211497,-3.06502 4.487794,-6.199408 6.333984,-8.697266 1.84619,-2.497857 3.387063,-4.482113 3.681641,-4.796875 0.185708,-0.198432 1.725629,-1.370102 3.636719,-2.603515 1.911087,-1.233413 4.309197,-2.689277 6.703127,-4.078125 2.39393,-1.388848 4.78616,-2.712922 6.67773,-3.683594 0.0153,-0.0079 0.0238,-0.0098 0.0391,-0.01758 z"
             id="path72383"
             sodipodi:nodetypes="ccssssccacasccccssssscsssssssccascssccccsscccsscsssssssscccssscsccccscaaacscccssssccc" />
        </g>
        <g
           id="g170473"
           style="display:inline">
          <path
             style="color:#000000;fill:#ffb12f;stroke-width:3;-inkscape-stroke:none"
             d="m -14.700439,82.910641 c 0,0 4.188502,-14.039297 2.40756,-15.110177 -1.780942,-1.07088 -13.990921,-7.571332 -13.990921,-5.358357 0,2.212977 1.005091,27.479566 1.005091,27.479566 z"
             id="path76858" />
          <path
             style="color:#000000;fill:#906119;-inkscape-stroke:none"
             d="m -27.453687,59.920877 c -0.298187,0.157455 -0.448193,0.906914 -0.448193,0.906914 0,0 0.37125,9.646101 0.622583,16.240959 0.251333,6.594858 0.501953,12.912109 0.501953,12.912109 l 0.105469,2.664063 12.4483,-8.046684 0.154297,-0.519532 c 0,0 1.059358,-3.543871 1.898438,-7.251953 0.41954,-1.85404 0.787661,-3.744515 0.941406,-5.330078 0.07687,-0.792781 1.4488965,-2.71114 1.3719765,-3.380284 -0.07692,-0.669144 -0.7079645,-1.028625 -1.6620705,-1.602329 -1.039156,-0.624844 -4.471744,-2.47552 -7.81836,-3.990234 -1.673307,-0.757357 -3.284456,-1.418308 -4.621093,-1.777344 -1.06693,-0.299349 -2.57506,-1.01652 -3.494706,-0.825607 z m 2.7115,3.720139 c 0.0034,9.18e-4 0.0024,10e-4 0.0059,0.002 1.008386,0.270864 2.560308,0.888288 4.162109,1.613281 3.071792,1.390326 6.270479,3.13002 7.199219,3.671875 0.0349,0.303602 -0.775406,1.605494 -0.840766,2.279488 -0.130709,1.347987 -0.475893,3.167391 -0.88086,4.957031 -0.752058,3.323513 -1.583337,6.105442 -1.714843,6.550781 l -7.071347,4.482231 c -0.07381,-1.864914 -0.201033,-5.011139 -0.400391,-10.242187 -0.230455,-6.047024 -0.422609,-11.614972 -0.458984,-13.314453 z"
             id="path76860"
             sodipodi:nodetypes="ccsccccsssssccccscssccscc" />
          <path
             style="color:#000000;fill:#ffb12f;stroke-width:3;-inkscape-stroke:none"
             d="m -7.8004926,84.423219 c 1.0942907,-11.671366 4.4228948,-12.957591 0.3347582,-13.509948 -4.0881366,-0.55236 -10.2660366,1.326817 -10.2660366,1.326817 0,0 -0.657376,0.04968 -0.657376,2.392156 0,2.342475 0.569649,12.801401 0.569649,12.801401 z"
             id="path76864" />
          <path
             style="color:#000000;fill:#906119;-inkscape-stroke:none"
             d="m -10.929688,69.386719 c -1.225964,0.105615 -2.421738,0.301827 -3.488281,0.509765 -2.133085,0.415878 -3.75,0.908203 -3.75,0.908203 l 0.322266,-0.06055 c 0,0 -0.242248,0.03108 -0.384766,0.07813 -0.142517,0.04704 -0.295046,0.118167 -0.439453,0.214843 -0.288814,0.193353 -0.533848,0.479693 -0.710937,0.808594 -0.354179,0.657803 -0.507813,1.475556 -0.507813,2.787109 0,2.585655 0.572266,12.882813 0.572266,12.882813 l 0.103515,1.902344 14.4739775,-3.374902 0.09375,-1.005859 c 0.5344275,-5.700039 0.2005108,-8.798369 0.6956131,-10.798067 0.1237756,-0.499925 -0.062051,-1.326009 -0.038731,-1.815313 0.02332,-0.489303 -0.046622,-1.08827 -0.3906249,-1.621094 -0.3440029,-0.532823 -0.8778675,-0.856136 -1.359375,-1.035156 -0.4815076,-0.179019 -0.9646691,-0.263819 -1.5273438,-0.339844 -1.1835513,-0.159913 -2.4380985,-0.146631 -3.6640629,-0.04102 z m 0.269532,3.001953 c 1.2448638,0.03102 1.8907012,-0.207959 3.4390229,0.520392 1.5483217,0.728351 0.071976,7.857011 -0.2502023,10.821504 l -8.9368676,1.712792 c -0.123008,-2.342501 -0.480469,-9.026221 -0.480469,-10.810547 0,-0.819646 0.08468,-0.974947 0.117188,-1.083984 0.360272,-0.10532 1.248093,-0.379941 2.925781,-0.707031 0.988947,-0.19281 2.103368,-0.361746 3.185547,-0.453126 z"
             id="path76866"
             sodipodi:nodetypes="ssccssssccccsssssssczccscsc" />
        </g>
        <path
           style="color:#000000;display:inline;fill:#86d23a;stroke-width:2.588;stroke-linejoin:round;-inkscape-stroke:none;paint-order:fill markers stroke"
           d="M -13.45084,79.624503 C 17.21289,61.864492 47.122,64.528143 62.564279,87.856153 78.006579,111.18416 58.88941,151.9103 28.23216,169.68008 c -30.65724,17.76978 -62.67328,13.53818 -75.23134,-11.48566 -10.59801,-21.11817 2.88463,-60.809912 33.54834,-78.569917 z"
           id="path96540"
           inkscape:label="head-fill" />
        <path
           style="color:#000000;display:inline;fill:#49801d;stroke-linejoin:round;-inkscape-stroke:none;paint-order:fill markers stroke"
           d="m 19.89658,66.983661 c -10.78857,0.920579 -22.36057,4.782354 -33.99609,11.521485 -15.62244,9.048306 -26.82277,23.634014 -32.80078,38.666014 -5.97801,15.03199 -6.7993,30.55736 -1.25586,41.60351 6.46364,12.87978 18.03688,20.47369 31.79688,22.49024 13.75999,2.01654 29.70399,-1.45961 45.24023,-10.46485 15.59872,-9.04144 28.62159,-23.84789 35.417471,-39.42969 C 71.094313,115.78858 71.6908,99.299812 63.642678,87.141864 55.72181,75.176138 43.97904,68.441291 30.39658,67.044208 c -3.39561,-0.349271 -6.9038,-0.367406 -10.5,-0.06055 z m 0.2168,2.580078 c 3.44617,-0.295244 6.79489,-0.275044 10.01953,0.05664 12.89858,1.32674 23.83017,7.586959 31.351565,18.949219 7.394163,11.170037 5.632636,26.757402 -0.933785,41.813092 -6.56643,15.05569 -17.90811,29.44882 -32.96661,38.17714 -15.12095,8.76453 -30.51457,12.05729 -43.56639,10.14453 -13.05182,-1.91276 -23.76497,-8.94581 -29.85938,-21.08984 -5.05456,-10.072 -4.43402,-24.95294 1.34571,-39.48633 5.77972,-14.53339 16.65212,-28.673084 31.69336,-37.384764 C -1.44038,74.162562 9.77487,70.44947 20.11339,69.563738 Z"
           id="path96542"
           sodipodi:nodetypes="ssssssssssscsssssssscc"
           inkscape:label="head-border" />
        <g
           id="g170037"
           inkscape:label="mouth"
           style="display:inline">
          <path
             style="fill:#e3311c;fill-opacity:1;stroke:none;stroke-width:0.264583px;stroke-linecap:butt;stroke-linejoin:miter;stroke-opacity:1"
             d="m -26.0854,169.75767 c 0,0 0.0834,0.6176 4.12334,-0.92291 4.03992,-1.54052 24.23005,-17.69034 26.55653,-20.21242 2.32647,-2.52207 12.58197,-11.83892 12.58197,-11.83892 0,0 5.86038,8.28838 5.8089,14.28566 -0.0515,5.99729 -1.15189,13.3277 -11.68837,18.98131 -10.53647,5.65361 -16.12853,9.26922 -23.7987,6.7501 -7.67017,-2.51911 -13.58367,-7.04282 -13.58367,-7.04282 z"
             id="path3268"
             inkscape:label="mouth-cavity" />
          <path
             id="path28231"
             style="fill:#ef551a;fill-opacity:1;stroke:none;stroke-width:3.73467;stroke-linejoin:round;stroke-opacity:1;paint-order:fill markers stroke;stop-color:#000000"
             d="m 20.53893,150.71644 a 17.335758,21.659993 43.635162 0 0 -5.52473,0.66559 17.335758,21.659993 43.635162 0 0 -18.69756,24.14581 l 5.2e-4,0.016 a 17.335758,21.659993 43.635162 0 0 0.13487,1.52032 c 4.19255,-1.0885 8.66933,-3.70028 14.84509,-7.01404 10.53648,-5.65361 11.63668,-12.98398 11.68818,-18.98127 3.2e-4,-0.0373 -0.002,-0.0757 -0.003,-0.11317 a 17.335758,21.659993 43.635162 0 0 -2.44378,-0.23926 z"
             inkscape:label="tongue" />
          <path
             id="path45212"
             style="fill:#f1eee6;fill-opacity:1;stroke:none;stroke-width:0.264583px;stroke-linecap:butt;stroke-linejoin:miter;stroke-opacity:1"
             d="m 16.60486,137.3048 c -0.8306,0.75613 -3.50629,3.19814 -6.41098,5.90868 0.30815,0.088 6.67224,1.90531 7.2347,1.9451 0.57622,0.0408 1.1687,-2.42266 0.19223,-5.15369 -0.77101,-2.15641 -0.96667,-2.60463 -1.01595,-2.70009 z"
             inkscape:label="teeth" />
        </g>
        <g
           id="g170041"
           inkscape:label="nose"
           style="display:inline">
          <path
             style="fill:#5bc223;fill-opacity:1;stroke:none;stroke-width:9.78142;stroke-linejoin:round;stroke-miterlimit:4;stroke-dasharray:none;stroke-opacity:1;paint-order:fill markers stroke;stop-color:#000000"
             id="path38459"
             sodipodi:type="arc"
             sodipodi:cx="-14.615541"
             sodipodi:cy="134.108"
             sodipodi:rx="3.3796406"
             sodipodi:ry="5.0840855"
             sodipodi:start="3.1007519"
             sodipodi:end="3.0999142"
             sodipodi:open="true"
             sodipodi:arc-type="arc"
             transform="matrix(0.96212548,-0.27260697,0,1,0,0)"
             d="m -17.992364,134.31558 a 3.3796406,5.0840855 0 0 1 3.238127,-5.28738 3.3796406,5.0840855 0 0 1 3.51546,4.87009 3.3796406,5.0840855 0 0 1 -3.236654,5.28943 3.3796406,5.0840855 0 0 1 -3.516816,-4.86788" />
          <path
             style="fill:#5bc223;fill-opacity:1;stroke:none;stroke-width:9.78142;stroke-linejoin:round;stroke-miterlimit:4;stroke-dasharray:none;stroke-opacity:1;paint-order:fill markers stroke;stop-color:#000000"
             id="path38461"
             sodipodi:type="arc"
             sodipodi:cx="-34.01413"
             sodipodi:cy="162.40372"
             sodipodi:rx="3.2685442"
             sodipodi:ry="3.5839388"
             sodipodi:start="3.1007519"
             sodipodi:end="3.0999142"
             sodipodi:open="true"
             sodipodi:arc-type="arc"
             transform="matrix(0.94447089,0.32859511,0,1,0,0)"
             d="m -37.279948,162.55005 a 3.2685442,3.5839388 0 0 1 3.131682,-3.72725 3.2685442,3.5839388 0 0 1 3.399899,3.43309 3.2685442,3.5839388 0 0 1 -3.130258,3.72868 3.2685442,3.5839388 0 0 1 -3.40121,-3.43152" />
        </g>
        <path
           id="path43213"
           style="display:inline;fill:#a1dd65;fill-opacity:0.992157;stroke-width:9.78142;stroke-linejoin:round;paint-order:fill markers stroke;stop-color:#000000"
           transform="rotate(32.47618)"
           d="m 41.489157,73.517999 a 2.8876026,3.9128747 0 0 1 2.766691,-4.069339 2.8876026,3.9128747 0 0 1 3.003649,3.74818 2.8876026,3.9128747 0 0 1 -2.765434,4.070909 2.8876026,3.9128747 0 0 1 -3.004806,-3.746475"
           inkscape:label="head-shine" />
        <g
           id="g170049"
           inkscape:label="eye"
           style="display:inline">
          <path
             id="path5545"
             style="fill:#f1eee6;fill-opacity:1;stroke:none;stroke-width:0.264583px;stroke-linecap:butt;stroke-linejoin:miter;stroke-opacity:1"
             d="m 34.325036,74.53705 c -4.780566,-0.05597 -8.536309,1.450528 -11.544515,4.289145 -4.18532,3.949377 -7.466588,9.636532 -7.084838,17.521412 0.38176,7.884873 3.35476,21.866393 6.161381,27.268623 2.80661,5.40222 3.813203,7.4228 3.813203,7.4228 0,0 5.32231,-2.77338 7.9406,-4.2385 2.520741,-1.41054 5.035256,-2.83664 7.476548,-4.38061 1.329198,-0.8467 2.63085,-1.73766 3.907772,-2.66134 1.48128,-1.07151 2.966545,-2.14553 4.351155,-3.33933 1.590529,-1.37134 3.137828,-2.80572 4.529439,-4.37854 1.51956,-2.07462 2.591995,-4.47797 3.439067,-6.90604 0.353729,-1.01396 0.539448,-2.99419 0.669208,-3.15175 0,0 -0.527442,-6.764923 -2.802411,-11.820983 -2.27497,-5.05605 -6.93107,-12.999461 -14.757239,-14.827517 -2.201111,-0.514141 -4.228713,-0.775467 -6.09937,-0.79737 z m 19.064985,38.12222 c -0.175336,0.20912 -0.35747,0.41231 -0.544668,0.61134 0.187126,-0.19893 0.369398,-0.40233 0.544668,-0.61134 z"
             inkscape:label="sclera" />
          <path
             id="path13924"
             style="fill:#434343;fill-opacity:1;stroke:none;stroke-width:0.264583px;stroke-linecap:butt;stroke-linejoin:miter;stroke-opacity:1"
             d="m 36.206531,81.611685 c -4.315997,1.124775 -7.443277,3.941917 -9.617655,9.302542 -2.174378,5.360624 -0.680356,16.504863 0.668904,21.318013 1.15314,4.11352 4.8198,12.49622 6.28877,14.67216 4.45028,-2.57727 5.07429,-2.91339 7.54091,-4.48463 1.3292,-0.8467 2.63094,-1.7375 3.90786,-2.66118 1.48128,-1.07151 2.96619,-2.14557 4.3508,-3.33937 1.59053,-1.37134 3.13829,-2.8059 4.5299,-4.37873 0.66979,-0.75701 1.34545,-1.53162 1.82624,-2.42073 0.75572,-1.39752 1.03306,-1.99949 1.61249,-4.48526 -0.1471,-0.60841 -1.99937,-7.925812 -3.8867,-11.507845 -1.80814,-3.431727 -4.04478,-6.736458 -6.98802,-9.304978 -2.54954,-2.224942 -6.818802,-3.599883 -10.233499,-2.709992 z"
             sodipodi:nodetypes="azscaaaaacasa"
             inkscape:label="iris" />
          <path
             id="path338039"
             style="fill:#232222;fill-opacity:1;stroke:none;stroke-width:0.264583px;stroke-linecap:butt;stroke-linejoin:miter;stroke-opacity:1"
             d="m 40.08489,87.663381 c -0.03764,-8e-6 -0.07485,0.0011 -0.112138,0.0031 -2.003769,0.246031 -4.811527,1.951754 -5.695259,6.153113 -0.88373,4.201356 -0.226272,12.255776 1.918747,18.631416 1.203143,3.57611 3.083436,7.6848 4.891215,9.96877 1.677929,-0.99017 2.630945,-1.7375 3.907861,-2.66118 1.481281,-1.07151 2.945583,-2.1699 4.350809,-3.33937 1.034896,-0.86127 2.045118,-1.75542 3.000335,-2.70429 0.536323,-0.53277 1.529561,-1.67444 1.529561,-1.67444 0,0 -1.794422,-13.807445 -5.790054,-19.144387 -1.909889,-2.551027 -5.629484,-5.232262 -8.001063,-5.232757 z"
             sodipodi:nodetypes="ccsscaaacacc"
             inkscape:label="pupil" />
          <path
             style="fill:#f1eee6;fill-opacity:1;stroke:none;stroke-width:3.77953;stroke-linejoin:round;stroke-opacity:1;paint-order:fill markers stroke;stop-color:#000000"
             id="path21277"
             sodipodi:type="arc"
             sodipodi:cx="75.878326"
             sodipodi:cy="70.773872"
             sodipodi:rx="3.9092288"
             sodipodi:ry="5.1165066"
             sodipodi:start="3.1007519"
             sodipodi:end="3.0999142"
             sodipodi:open="true"
             sodipodi:arc-type="arc"
             transform="matrix(0.9342201,0.35669707,-0.37242868,0.92806082,0,0)"
             d="m 71.972357,70.982776 a 3.9092288,5.1165066 0 0 1 3.74554,-5.3211 3.9092288,5.1165066 0 0 1 4.066331,4.901151 3.9092288,5.1165066 0 0 1 -3.743836,5.323153 3.9092288,5.1165066 0 0 1 -4.0679,-4.898921"
             inkscape:label="shine" />
          <path
             id="path61188"
             style="fill:#b8b8b8;fill-opacity:1;stroke:none;stroke-width:0.264583px;stroke-linecap:butt;stroke-linejoin:miter;stroke-opacity:1"
             d="m 34.32505,74.537382 c -4.78057,-0.05597 -8.53631,1.450012 -11.54451,4.288629 -4.18532,3.949377 -7.46659,9.636529 -7.08484,17.521412 0.16546,3.417412 0.81873,7.980237 1.73322,12.493287 0.0961,-5.4231 -0.32042,-16.602375 3.49035,-21.862376 3.81076,-5.260002 4.2391,-5.215787 6.68027,-6.227604 3.94378,-1.634617 5.99902,-2.00352 11.34827,-1.753576 3.13815,0.146629 7.13452,3.078739 8.94954,4.501957 1.34601,1.055457 5.3261,5.018542 7.65845,7.541656 -0.11993,-0.295582 -0.24386,-0.589457 -0.37414,-0.879014 -2.27497,-5.05605 -6.93107,-12.999461 -14.75724,-14.82752 -2.20111,-0.514141 -4.22871,-0.774949 -6.09937,-0.796851 z"
             sodipodi:nodetypes="sssczssscsss"
             inkscape:label="ub-shadow" />
          <path
             style="color:#000000;display:inline;fill:#434343;stroke-linecap:round;-inkscape-stroke:none"
             d="m 34.45447,73.163541 c -5.78708,-0.01191 -8.95124,0.762018 -12.8119,4.64648 -3.86066,3.884462 -6.98001,9.382792 -6.44551,18.119173 0.30106,4.067081 0.46631,3.511238 1.80961,10.754446 -0.24451,-7.281988 -0.10482,-7.975108 -0.23047,-10.388671 -0.36606,-7.560494 2.2501,-12.978193 6.74804,-16.681641 4.49794,-3.703448 9.08442,-5.113326 16.6543,-3.224609 7.49313,1.869566 12.07416,10.526646 15.44727,14.759765 -6.82578,-14.698924 -12.048,-14.934386 -14.95508,-16.86914 -2.01372,-0.47037 -4.43812,-1.112143 -6.21626,-1.115803 z"
             id="path52551"
             sodipodi:nodetypes="szccczsccs"
             inkscape:label="upper-border" />
        </g>
      </g>
      <g
         id="g3199"
         inkscape:label="body"
         style="display:inline">
        <g
           id="g100057"
           inkscape:label="tail">
          <path
             style="color:#000000;display:inline;fill:#5bc223;fill-opacity:1;stroke:none;stroke-width:2.065;stroke-opacity:1;-inkscape-stroke:none"
             d="m 88.94289,264.61847 c 5.508012,-4.27753 18.69797,-13.86153 23.00893,-23.91999 4.31096,-10.05846 7.96839,-15.7296 15.27401,-22.47718 7.3056,-6.74758 15.46406,-7.44712 22.22209,-9.71304 6.75802,-2.26592 9.92376,-1.5733 10.28109,-5.81589 0.25458,-3.02271 -13.1563,-9.05373 -23.50942,-10.17596 -5.17657,-0.56111 -10.45032,-1.42499 -15.85588,-1.4273 -5.40556,-0.002 -10.94248,0.85681 -16.64601,3.74137 -11.407069,5.76913 -20.538999,17.55027 -31.84533,17.80409 -6.809232,0.15285 -9.010445,-2.52799 -12.490465,-3.61839"
             id="path393115"
             sodipodi:nodetypes="cssssscssc"
             inkscape:label="tail-fill" />
          <path
             id="path87110"
             style="fill:#a5de6b;fill-opacity:1;stroke:none;stroke-width:0.999999px;stroke-linecap:butt;stroke-linejoin:miter;stroke-opacity:1"
             d="m 460.29688,846.10547 c -4.22614,2.31735 -8.97625,5.48046 -13.89649,9.68359 -17.12999,14.63339 -33.71912,43.51119 -55.20307,60.25946 -17.55812,13.68781 -38.36357,22.82963 -58.76742,31.73617 -10.45381,4.56322 -29.25124,4.66428 -32.39474,11.0239 -2.34468,4.74352 4.28567,29.58811 7.81054,41.92381 10.99924,3.6838 21.48747,4.7038 28.31641,-0.5996 20.81768,-16.16702 70.6695,-52.39001 86.96289,-90.40624 11.64551,-27.17166 22.11363,-45.8513 37.17188,-63.62109 z"
             transform="scale(0.26458333)"
             sodipodi:nodetypes="csaascssc"
             inkscape:label="under-tail" />
        </g>
        <path
           style="color:#000000;display:inline;fill:#86d23a;stroke:none;stroke-width:7.55906;stroke-miterlimit:4;stroke-dasharray:none;stroke-opacity:1"
           d="m 523.96484,188.17969 c -12.6927,-0.13392 -26.306,1.64024 -34.29882,8.52929 -12.78853,11.02249 -35.78321,34.77959 -41.66211,43.53711 -5.87891,8.75754 -30.01239,48.29121 -34.86719,61.75977 -3.75839,10.42682 -7.01798,15.63708 -9.70703,24.73437 -1.97243,-13.07679 -5.2077,-30.50064 -12.85742,-41.82226 -8.53663,-12.63424 -17.38938,-22.08341 -28.9668,-24.11328 -11.57743,-2.02988 -27.62569,-4.16083 -28.64063,12.1289 -1.01493,16.28973 -1.40612,34.26861 -0.44922,41.40821 0.95689,7.1396 -0.9754,18.42221 -2.93945,26.62304 -1.6014,6.6866 -13.27851,21.86032 -16.23437,33.16211 -6.76069,13.49105 -12.03732,27.14012 -10.45313,34.50782 0.3975,1.84868 1.22679,3.99605 2.33789,6.30664 -1.47515,0.42671 -2.58145,0.98776 -3.23633,1.69336 -8.80422,9.48619 -14.76538,7.24794 -34.80273,36.12304 -20.03734,28.87514 -43.86184,39.95247 -47.37891,50.74219 -2.3333,7.15816 -25.05214,29.24454 -39.72265,46.75781 -0.32712,0.25105 -0.69638,0.50397 -1.00196,0.75391 -14.51741,11.87399 -20.58576,43.81913 -29.83398,49.24219 -9.24822,5.42309 -33.5084,21.7964 -74.564453,26.03125 -41.056051,4.23481 -67.0266137,35.97937 -67.826172,46.66406 -0.7995579,10.68469 0.7875469,23.57658 -2.5878906,41.79492 -3.37543762,18.21834 -20.1394784,70.10776 -24.5742184,89.23633 -4.43474,19.1286 -19.85158,45.90349 -24.621094,64.03906 0,0 -16.416701,18.42381 -23.357422,37.10352 -6.940721,18.67974 -28.818094,83.58251 -30.75,92.17968 -1.93191,8.59717 -7.00314,45.18857 -9.39063,47.10747 -2.38748,1.9188 -25.4614,33.055 -15.62304,38.8593 9.83837,5.8042 21.49219,6.6817 21.49219,6.6817 0,0 36.105516,-9.7591 57.007808,-20.8809 30.933915,-16.4595 77.236328,-61.4531 77.236328,-61.4531 l 3.914063,-7.6152 c 4.539649,2.2156 9.544821,4.5836 15.167969,7.2011 47.342396,22.0378 96.177052,25.9009 138.707032,20.7539 0,0 57.63987,58.6693 75.37695,74.3535 29.53308,26.1151 34.87134,48.9807 64.16016,76.8868 7.34722,7.0003 36.59987,4.2647 43.73633,-9.584 6.78724,-13.171 -7.01449,-67.9331 -7.54688,-91.2461 -0.0699,-3.0623 -12.99957,-42.1305 -15.95508,-50.4317 -21.39108,-60.08106 -31.85029,-63.04286 -38.79101,-81.72261 -6.94072,-18.67971 -21.12696,-35.69922 -21.12696,-35.69922 l -28.18945,-51.77148 -10.5625,-20.85157 c 0,0 -12.1665,-20.35903 -12.71484,-21.01757 -4.42052,-5.30892 -21.53467,-28.55447 -22.73438,-57.59375 -1.34852,-32.64144 32.74175,-101.72215 42.75196,-118.82032 2.76403,-4.72117 4.84946,-12.23346 5.9707,-21.06445 18.73523,-18.24969 46.59167,-43.13054 72.62695,-57.50586 35.53017,-19.6179 86.48467,-45.40455 101.08789,-57.83398 2.46426,-2.09744 3.64164,-4.36165 3.84961,-6.79492 18.21304,-11.91953 47.09157,-41.58397 55.23047,-59.16602 7.5528,-16.31589 7.13523,-21.98734 8.33789,-30.0332 2.89187,-2.9108 4.70703,-4.83985 4.70703,-4.83985 9.12582,-22.17993 2.03516,-55.10351 2.03516,-55.10351 0,0 6.13272,-37.64478 -8.54492,-46.19336 -9.62659,-5.60675 -17.87015,-8.33402 -25.66016,-9.54688 10.58959,-16.44211 25.47852,-33.74804 25.47852,-33.74804 l 34.91797,-28.54102 c 0,0 17.5332,-14.93084 17.5332,-21.50977 0,-6.57892 3.72086,-16.75919 -11.05078,-18.78906 -5.53937,-0.7612 -12.82383,-1.52902 -20.43946,-1.60937 z"
           id="path170582"
           transform="scale(0.26458333)"
           inkscape:label="body" />
        <path
           id="path86359"
           style="display:inline;fill:#5bc223;fill-opacity:1;stroke:none;stroke-width:0.594561px;stroke-linecap:butt;stroke-linejoin:miter;stroke-opacity:1"
           d="m 16.746094,659.26172 c -0.817142,0.014 -1.739897,0.98055 -4.69336,4.07812 -8.5918975,9.01112 -21.0782679,44.81448 -42.203125,56.47852 -12.059798,6.65879 -27.096247,14.50904 -39.40625,21.39844 -1.654153,-1.28626 -4.351164,-1.8568 -8.730468,0.084 -10.217738,4.52818 -5.336284,-1.52801 -14.472657,7.21094 -5.36407,5.13072 -9.421784,7.20187 -11.318354,8.98437 -3.1672,0.58314 -7.79888,2.16756 -9.15821,4.33008 -0.92697,1.47466 -4.11967,4.48316 -6.89258,7.23828 -0.005,-4.8e-4 -0.21289,-0.0215 -0.21289,-0.0215 0,0 -28.09409,-4.47915 -31.38867,-0.80469 -1.21408,1.35407 -2.11486,3.1108 -2.61523,5.07617 -3.85723,-2.49635 -6.60444,-3.84279 -8.42969,-2.96875 -4.0481,1.93849 -12.77236,6.71378 -12.05469,13.15625 0.71767,6.44243 3.26823,17.73176 8.82031,19.88477 5.55211,2.15301 41.5016,16.23371 46.79688,19.74414 1.00306,0.66497 2.3265,1.39902 3.81055,2.125 0.2731,0.32552 0.55112,0.64383 0.83789,0.95312 -0.56781,1.31476 -0.9533,2.82124 -1.14258,4.5918 -0.71767,6.71324 -11.25076,13.73693 -8.83203,19.76172 2.41874,6.02479 8.16631,12.72362 13.67578,12.03711 5.50948,-0.68655 12.449559,-2.12191 18.271483,-6.36719 5.821924,-4.24528 16.275391,-3.59485 16.275391,-11.51172 l -0.392578,-0.35351 c 11.523708,-4.00654 31.544607,-13.67141 37.492187,-18.53321 6.685377,-5.46493 14.49848,-5.71831 15.59375,-15.29882 8.966465,-5.15901 25.2332059,-12.23031 34.671875,-25.83204 11.913419,-17.16801 26.078813,-23.75282 28.169922,-30.16796 2.091103,-6.41515 21.08887,-45.51027 20.291016,-52.50977 -0.797859,-6.99946 -25.84961,-40.59375 -25.84961,-40.59375 -14.18053,1.25239 -15.354065,-2.19663 -16.914062,-2.16992 z"
           transform="scale(0.26458333)"
           inkscape:label="right-arm-hand" />
        <g
           id="g169905"
           inkscape:label="belly"
           style="display:inline">
          <path
             id="path87108"
             style="fill:#bbeb8c;fill-opacity:1;stroke:none;stroke-width:0.999999px;stroke-linecap:butt;stroke-linejoin:miter;stroke-opacity:1"
             d="m 152.92773,598.76172 c -0.47381,0.0217 -1.23272,0.10994 -2.00781,0.20117 -0.54668,0.52233 -1.10195,0.95796 -1.66992,1.29102 -9.24822,5.42309 -33.5084,21.7964 -74.564453,26.03125 -41.056051,4.23481 -67.0266137,35.97937 -67.826172,46.66406 -0.7995579,10.68469 0.7875469,23.57658 -2.5878906,41.79492 -0.759274,4.09805 -2.2586187,10.05344 -4.08007815,16.80274 -0.2982662,7.49583 -0.4476674,15.46468 -0.16210937,21.9082 0.77352971,17.45446 -3.22051168,58.67067 -6.23828128,69.33008 -3.0177694,10.65944 -10.0967436,31.31979 -12.0886276,45.31467 -1.991884,13.99487 -2.299864,29.30723 -0.978772,43.87664 1.101018,12.14237 1.931632,22.65943 7.3799,35.82431 11.00649986,26.59546 15.327527,37.36456 62.669922,59.40232 47.342396,22.0378 96.177052,25.9009 138.707032,20.7539 0,0 -37.92892,-70.72749 -42.13867,-94.59762 -4.20975,-23.87018 -32.28898,-121.92519 -26.31641,-169.55079 5.97257,-47.6256 9.00526,-72.81902 20.85352,-103.00195 11.84825,-30.18293 17.34126,-61.17388 11.84961,-62.0293 -0.17162,-0.0267 -0.44131,-0.0321 -0.80079,-0.0156 z"
             sodipodi:nodetypes="scsssscsssasscssssss"
             transform="scale(0.26458333)"
             inkscape:label="belly" />
          <path
             id="path224701"
             style="fill:#a5de6b;fill-opacity:1;stroke:none;stroke-width:2;stroke-linecap:butt;stroke-linejoin:miter;stroke-miterlimit:4;stroke-dasharray:none;stroke-opacity:1"
             d="m -4.1822676,247.67085 c 0.4632349,3.11968 1.7662973,6.44404 3.31875471,9.18168 0.56523053,0.93445 0.91394749,1.44961 1.35942208,1.95905 0.48021292,0.54918 1.01486011,1.00428 1.79852471,1.64331 2.2942256,1.8043 5.6899137,3.49755 11.1393721,6.03426 11.935435,5.55593 24.225792,6.74044 35.093465,5.66219 l 1.070735,-0.70435 -8.733965,-18.73134 c 0,0 -2.43349,5.39759 -4.827244,6.82292 -4.590661,2.73344 -10.596088,2.40858 -15.915028,1.90386 -5.810835,-0.5514 -12.6841585,-2.69587 -16.6853146,-5.31309 -6.4557324,-3.50293 -7.2606603,-8.00475 -7.618722,-8.45849 z"
             sodipodi:nodetypes="ccscscccaacc"
             inkscape:label="belly-shadow-btm" />
          <path
             id="path249515"
             style="display:inline;fill:#a5de6b;fill-opacity:1;stroke:none;stroke-width:0.264583px;stroke-linecap:butt;stroke-linejoin:miter;stroke-opacity:1"
             d="m 40.462067,158.42236 c -0.125362,0.006 -0.326157,0.0291 -0.531233,0.0532 -0.144642,0.1382 -0.291557,0.25346 -0.441833,0.34159 -0.329247,0.19306 -0.875249,0.51532 -1.392679,0.8201 -0.08924,0.58439 -0.157631,1.15749 -0.212908,1.71979 -0.217622,2.21376 -0.215582,4.14966 -0.276984,5.39244 -0.0037,0.0767 -0.0056,0.1858 -0.0098,0.25683 -0.0097,0.15834 -0.02297,0.29598 -0.03669,0.42374 -0.0052,0.0494 -0.009,0.11098 -0.01497,0.15555 -0.0016,0.011 -0.0031,0.0198 -0.0047,0.0305 -0.0199,0.13901 -0.04348,0.25709 -0.07338,0.34262 -0.268536,0.76804 -0.828752,1.85788 -1.45624,3.16466 -7.4e-5,1.5e-4 7.1e-5,2.6e-4 0,5.3e-4 -0.0502,0.10454 -0.102537,0.21882 -0.15348,0.32608 -0.267393,0.56299 -0.542202,1.1543 -0.810286,1.78283 -0.159613,0.37422 -0.316188,0.75885 -0.466638,1.15187 -0.150452,0.39301 -0.294648,0.79451 -0.428916,1.20303 -0.06463,0.19663 -0.171537,0.46156 -0.312126,0.78083 -0.0039,0.009 -0.0064,0.0154 -0.01035,0.0243 -0.06503,0.14709 -0.163002,0.3479 -0.242361,0.51831 -0.09808,0.21062 -0.182835,0.39891 -0.301276,0.64285 -0.412462,0.84954 -0.94914,1.90411 -1.563211,3.09026 -0.03509,0.0678 -0.06773,0.13283 -0.103352,0.20153 -0.668985,1.28991 -1.429713,2.73566 -2.241208,4.27933 -0.788977,1.5011 -1.48194,2.82125 -2.329572,4.44934 -0.832215,1.59847 -1.67286,3.22813 -2.483054,4.83175 -5.29e-4,0.001 -0.001,0.002 -0.0016,0.003 -0.359479,0.71154 -0.709611,1.41445 -1.053682,2.11047 -0.05626,0.11379 -0.114787,0.22991 -0.170532,0.34313 -0.291176,0.5915 -0.568319,1.16629 -0.842843,1.73839 -0.100917,0.21027 -0.20558,0.42546 -0.303857,0.63252 -0.253581,0.5344 -0.490508,1.0477 -0.723987,1.55701 -0.09443,0.20594 -0.193493,0.41787 -0.284221,0.61909 -0.609682,1.35248 -1.137131,2.59934 -1.53789,3.67626 -0.103233,0.27741 -0.198397,0.54431 -0.284737,0.79892 -0.08634,0.2546 -0.16382,0.49714 -0.232028,0.72708 1.986872,-3.19879 7.617542,-11.28313 9.050094,-12.79353 1.65585,-1.74584 4.668869,-3.13272 5.215249,-2.19449 1.062575,-7.83466 1.741499,-10.66581 4.143871,-16.78575 0.08902,-0.22677 0.162285,-0.4521 0.248563,-0.67903 0.944083,-4.47594 1.671732,-8.00364 1.671732,-8.00364 l 1.640726,-7.22178 c -0.09329,-0.29523 -0.231735,-0.47723 -0.425812,-0.50747 -0.04541,-0.007 -0.116763,-0.008 -0.211876,-0.004 z"
             sodipodi:nodetypes="ccscsccccccscssssccsssccsscscscscsscscscccccc"
             inkscape:label="chest-shadow" />
        </g>
        <g
           id="g164257"
           style="display:inline"
           inkscape:label="right-arm-shadow">
          <path
             style="fill:#5bc223;fill-opacity:1;stroke:none;stroke-width:0.264583px;stroke-linecap:butt;stroke-linejoin:miter;stroke-opacity:1"
             d="m 101.14436,106.19637 c 0,0 1.38735,-1.51698 3.82328,-0.9623 2.43594,0.55469 5.12144,2.62485 5.12144,2.62485 l -1.71926,-12.309863 -2.37745,-3.690945 c 0,0 -1.96191,8.108214 -2.6832,9.268178 -0.72129,1.15997 -2.16481,5.07008 -2.16481,5.07008 z"
             id="path240640"
             inkscape:label="finger4-shadow" />
          <path
             id="path240642"
             style="fill:#5bc223;fill-opacity:1;stroke:none;stroke-width:0.999999px;stroke-linecap:butt;stroke-linejoin:miter;stroke-opacity:1"
             d="m 376.79883,287.75781 c -7.05808,1.61075 -15.97985,14.02129 -17.50977,23.73242 -1.72014,10.91849 4.81675,19.36941 11.31193,28.31284 2.6502,3.64915 7.2581,7.67395 10.08846,11.18521 4.73526,5.87443 7.63609,13.10331 9.30743,20.63388 4.08876,-4.17985 2.72603,-11.31793 5.8332,-15.88193 2.38738,-13.07516 4.63867,-26.27872 4.63867,-29.58984 0,-7.0507 -0.87031,-11.59483 -3.51367,-21.56641 -2.27168,-8.56932 -14.08626,-16.82062 -20.15625,-16.82617 z"
             sodipodi:nodetypes="ccccccssc"
             transform="scale(0.26458333)"
             inkscape:label="finger5-shadow" />
          <path
             id="path252498"
             style="fill:#5bc223;fill-opacity:1;stroke:none;stroke-width:0.999999px;stroke-linecap:butt;stroke-linejoin:miter;stroke-opacity:1"
             d="m 422.19855,351.3435 -9.1673,19.72486 c 0,0 -4.51187,10.71546 -3.44141,20.47461 1.21264,11.05543 6.49488,16.1128 6.49488,16.1128 l 12.24926,-18.28272 c 0,0 -1.82484,-3.83363 -6.13086,-13.08008 -4.30601,-9.24645 -0.005,-24.94947 -0.005,-24.94947 z"
             sodipodi:nodetypes="ccsccsc"
             transform="scale(0.26458333)"
             inkscape:label="finger2-shadow" />
          <path
             id="path254648"
             style="fill:#5bc223;fill-opacity:1;stroke:none;stroke-width:0.999999px;stroke-linecap:butt;stroke-linejoin:miter;stroke-opacity:1"
             d="m 427.86523,308.27148 c -2.33689,-0.2056 -13.87304,16.71094 -13.87304,16.71094 0,0 -6.34614,17.17947 -7.05469,20.53906 -0.31248,1.48162 -0.81032,7.52461 -0.96875,13.81641 0.0551,5.73756 0.82847,10.98735 3.67773,14.31641 0.16285,0.19027 0.34612,0.36191 0.54493,0.51758 5.1163,-5.59781 10.69797,-27.66578 10.69797,-27.66578 0,0 1.56573,1.79332 0.20828,-8.11743 -1.35746,-9.91076 6.91151,-23.67378 7.17578,-29.20312 0.0289,-0.60477 -0.12122,-0.88882 -0.40821,-0.91407 z"
             sodipodi:nodetypes="scscsccsss"
             transform="scale(0.26458333)"
             inkscape:label="finger3-shadow" />
          <path
             id="path257323"
             style="fill:#5bc223;fill-opacity:1;stroke:none;stroke-width:0.999999px;stroke-linecap:butt;stroke-linejoin:miter;stroke-opacity:1"
             d="m 423.32617,395.20898 -5.95117,5.25 c -0.34361,1.2083 -0.6324,2.47502 -0.85742,3.81055 -4.00082,23.74519 -6.59923,32.90423 4.79687,38.76367 11.39615,5.85944 12.87147,17.63993 22.56055,7.88868 0.80483,-0.80999 1.53221,-1.69952 2.19336,-2.64649 -1.05874,-0.48444 3.9162,-19.00629 1.97438,-20.38614 -1.03446,-0.73509 -4.08364,-2.60326 -5.67133,0.39116 -0.87051,1.64181 0.0293,8.38327 -1.16106,9.09482 -3.75026,2.24182 -9.01371,-2.21946 -10.77974,-6.44899 -5.74248,-13.75282 -7.10444,-35.71726 -7.10444,-35.71726 z"
             sodipodi:nodetypes="ccssscssssc"
             transform="scale(0.26458333)"
             inkscape:label="finger1-shadow" />
          <path
             id="path235804"
             style="fill:#5bc223;fill-opacity:1;stroke:none;stroke-width:0.999999px;stroke-linecap:butt;stroke-linejoin:miter;stroke-opacity:1"
             d="m 504.14258,408.90625 c -12.02041,12.0149 -40.16137,38.32621 -47.5586,29.07617 -2.35182,-2.9409 -3.79573,-5.52001 -4.64062,-7.73633 -0.65086,5.73421 -2.21464,12.78654 -5.875,18.0293 -0.66115,0.94697 -1.38853,1.8365 -2.19336,2.64649 -1.21114,1.2189 -2.29333,2.10153 -3.2832,2.70117 -0.49494,0.29982 -0.96702,0.52824 -1.41992,0.69336 -0.45291,0.16511 -0.88692,0.26673 -1.30665,0.31054 -0.41972,0.0438 -0.8253,0.0309 -1.2207,-0.0332 -0.3948,-0.064 -0.78078,-0.17968 -1.16015,-0.33789 -4.8e-4,-2e-4 -10e-4,2e-4 -0.002,0 -0.75986,-0.31716 -1.49693,-0.80913 -2.24804,-1.42383 -1.50223,-1.2294 -3.05695,-2.94655 -4.94922,-4.72265 -1.89229,-1.77605 -4.12167,-3.61132 -6.97071,-5.07618 -0.94713,-0.48697 -1.78974,-1.00002 -2.55078,-1.53906 -0.0408,-0.0289 -0.0847,-0.0569 -0.125,-0.0859 -0.75556,-0.54519 -1.42495,-1.11879 -2.00781,-1.73047 -0.005,-0.005 -0.0106,-0.0104 -0.0156,-0.0156 l -0.004,-0.004 c -0.5902,-0.6221 -1.09402,-1.28374 -1.52149,-1.98828 -0.005,-0.008 -0.0105,-0.0169 -0.0156,-0.0254 -0.42452,-0.70382 -0.77268,-1.45223 -1.05078,-2.25195 -0.002,-0.006 -0.006,-0.0114 -0.008,-0.0176 l -9.39648,9.82227 c -6.93572,5.08308 -36.15508,24.81738 -43.08008,26.9414 -7.01952,2.15301 -52.47702,25.60546 -76.9798,41.35608 -14.67515,9.43333 -29.14924,22.09977 -41.67645,31.65759 -0.007,-0.005 -0.014,-0.0122 -0.0215,-0.0176 -5.76799,4.15679 -10.48774,8.04716 -16.3711,10.57226 -7.87111,3.36451 -19.10812,6.37375 -25.52343,9.25781 -1.94667,0.82137 -3.64318,1.84266 -4.85938,3.41602 -1.08389,1.74962 -2.94562,2.82808 -4.57422,3.70898 -3.5184,1.89191 -8.42233,3.65271 -12.64258,4.44336 -1.40671,0.26356 -2.7382,0.42073 -3.91601,0.4375 -1.76672,0.0252 -4.75503,-0.45933 -5.57503,-1.16441 -2.57438,-4.68774 -12.53301,3.91892 -16.76283,5.90858 0,0 0.59265,11.01369 -1.71654,17.24811 -5.5481,8.55555 -1.92095,21.2924 -3.01268,29.06776 0,0 -1.52098,13.29259 -5.08917,30.20955 -0.32609,0.85768 -0.60301,1.70933 -0.93945,2.56641 -5.91289,15.06282 -9.62256,29.01178 -12.60938,45.05859 7.39927,-6.59185 15.13576,-10.19485 23.67383,-9.83789 10.60753,0.44348 20.53333,7.3846 28.28906,14.63477 12.3914,11.58367 22.13198,31.89475 26.3711,43.52148 1.72092,4.72 5.06368,9.50771 8.52148,13.79297 -0.52416,-2.80654 -0.86841,-5.7011 -0.99219,-8.69726 -1.34852,-32.64144 32.74175,-101.72215 42.75196,-118.82032 2.75361,-4.70337 4.80151,-12.2181 5.92578,-21.00586 18.73604,-18.2576 46.59443,-43.16585 72.67187,-57.56445 35.53017,-19.6179 86.48467,-45.40455 101.08789,-57.83398 2.36633,-2.01408 3.45016,-4.19789 3.72461,-6.52149 7.923,-4.44132 21.00137,-12.4772 23.06055,-18.17578 2.98605,-8.26356 27.64973,-26.73542 29.80273,-36.26758 2.15301,-9.53215 10.67188,-27.02682 10.67188,-31.81836 0,-0.79028 -0.29218,-1.58238 -0.6875,-2.36523 z"
             sodipodi:nodetypes="cscssssssscssssccscccsccsaccccccsscccccscccscsscsscssscc"
             transform="scale(0.26458333)"
             inkscape:label="right-arm-shadow" />
        </g>
        <path
           id="path4962"
           style="color:#000000;display:inline;fill:#49801d;stroke-width:3.77953;-inkscape-stroke:none"
           d="m 528.11133,180.81445 c -2.72237,0.0213 -5.66626,0.16448 -8.99219,0.36133 -10.64292,0.62994 -24.43595,6.21973 -31.92187,12.67188 -6.56285,5.65655 -15.53555,14.38495 -23.68165,22.86328 -8.14609,8.47832 -15.32536,16.47071 -18.65429,21.42968 -3.07246,4.57687 -10.52747,16.59836 -17.9375,29.32032 -7.41003,12.72196 -14.63503,25.7578 -17.33985,33.26172 -1.60547,4.45401 -2.85869,7.52457 -3.95507,10.31054 -1.90933,-9.25275 -4.98105,-17.95706 -11.92383,-28.23242 -8.72572,-12.91407 -18.22552,-23.40092 -31.44531,-25.71875 -2.92985,-0.51369 -6.20064,-1.07919 -9.57422,-1.33008 l -0.002,0.002 c -3.37358,-0.25089 -6.85059,-0.18552 -10.18554,0.56054 -3.33495,0.74606 -6.6159,2.28101 -9.08008,5.05664 -6.46163,7.73703 -7.92064,28.3559 -7.44141,35.71289 0.79823,10.44125 4.39473,25.79918 3.22852,27.32422 -5.06196,8.49654 -4.84864,21.13336 -4.88867,24.26172 0,0 -12.49746,18.81709 -16.96485,29.12696 -2.757,6.36263 -4.18849,13.22814 -5.95508,19.93359 -0.94229,3.57672 -2.4746,10.81641 -2.4746,10.81641 l 0.0117,0.004 c -1.31182,1.17705 -2.68787,2.44937 -3.64843,3.48438 -8.02402,8.64555 -20.36648,26.07973 -31.20508,38.57031 -9.3843,10.81463 -19.53642,20.93689 -29.25391,31.45312 -6.22508,6.73678 -12.79143,12.54734 -18.61133,20.27149 -9.23481,10.46332 -26.02553,24.8422 -34.59975,34.25069 -6.4031,7.0328 -6.53333,9.67696 -11.22843,15.89213 -2.34755,3.1076 -9.52796,16.00039 -13.83978,23.66187 -2.06721,3.67309 -4.12414,7.48968 -5.22146,11.55922 -0.61904,2.2958 -1.47303,5.10751 -1.99997,7.9691 -1.31494,7.14097 -1.684,14.8076 -0.71412,16.83105 0,0 5.90906,-19.6287 10.58398,-28.68555 1.52447,-2.95339 3.65692,-5.55413 5.625,-8.23242 4.13181,-5.62284 10.76364,-13.52164 12.96485,-16.43555 4.40242,-5.82772 10.5781,-12.81635 16.93359,-19.79687 4.71154,-6.19306 24.04102,-19.11523 24.04102,-19.11523 0,0 5.54745,-7.92509 9.49023,-12.32813 5.23312,-5.84398 9.00419,-11.13043 13.68164,-16.54687 10.16222,-11.76783 21.03989,-22.90273 31.23438,-34.64258 12.54394,-14.44547 36.81836,-44.03125 36.81836,-44.03125 0,0 3.35702,-7.40797 4.50195,-11.29688 0.83711,-2.84334 1.00495,-5.84735 1.70898,-8.72656 1.55427,-6.3563 3.04333,-12.78472 5.54297,-18.83203 3.54483,-8.57589 13.28906,-24.46094 13.28906,-24.46094 -0.17382,-21.0063 6.58599,-26.23253 5.79493,-29.30664 -0.49295,-1.91559 -2.29752,-13.23578 -2.2793,-19.91797 0.0268,-9.83232 -1.31499,-24.0728 3.51367,-29.28711 1.88453,-1.9327 4.79689,-2.74819 7.46875,-3.13281 4.8467,-0.69769 10.05056,-0.1841 14.59766,1.63281 9.05828,3.61948 14.96886,5.33117 23.3164,17.68555 7.72007,11.42578 9.45774,23.49647 11.37305,36.77344 0.75145,5.20933 -2.98129,21.33558 -5.14258,31.88086 -3.15091,15.37374 -11.39258,45.68164 -11.39258,45.68164 l 7.07618,-11.8086 c 0,0 7.95052,-19.65159 10.71679,-29.85742 0.74573,-2.75126 1.56328,-5.77263 2.375,-8.86719 -0.14738,2.72576 -0.2773,5.55073 -0.25781,8.33985 0.0398,5.69783 -0.83616,9.62967 2.22461,13.86523 -0.23625,0.96347 -0.42784,1.90259 -0.56445,2.81055 -1.8835,12.51812 -1.0452,24.63393 6.96093,32.78711 -2.10838,7.42615 -1.69865,16.37029 -1.44531,21.89062 0.31408,6.84042 3.70849,12.50812 10.22266,15.85742 4.84093,2.48905 7.56275,6.34323 11.25781,9.36719 1.84751,1.51196 4.41491,2.94174 7.41211,2.62891 2.9972,-0.31295 5.57259,-2.05708 8.29687,-4.79883 3.75187,-3.77594 5.68374,-8.53447 7.04297,-13.31055 0.0189,0.0227 0.0182,0.0426 0.0371,0.0664 2.00368,2.50556 5.29542,3.50948 8.20899,3.31445 2.38832,-0.67525 4.64276,-1.42353 6.76758,-2.23828 l -3.26368,-5.5332 c -1.67909,0.24567 -2.18959,0.0874 -4.01367,0.23633 -1.28636,0.0862 -1.42989,-0.0453 -1.79492,-0.50196 -2.06393,-2.58088 -3.191,-4.6684 -3.89063,-6.41601 0.30048,-4.41294 0.46485,-9.27149 0.46485,-9.27149 l -0.53711,-9.22656 -6.08399,6.96094 c 0,0 -0.73112,0.88939 -1.2539,2.0293 -0.52275,1.13994 -1.02439,2.75545 -1.10742,4.76953 -0.0627,1.51952 0.42925,3.41226 0.95117,5.30664 -0.0797,0.8177 0.0428,0.70998 -0.0801,1.58789 -0.84949,6.08009 -2.97533,13.04061 -6.80664,16.89648 -2.12024,2.13389 -3.36014,2.57564 -3.7207,2.61328 -0.36057,0.0378 -0.68879,-0.0187 -1.84571,-0.96679 -2.3139,-1.89366 -6.03076,-6.86008 -12.58593,-10.23047 -4.88198,-2.51014 -5.89104,-4.34591 -6.12696,-9.48633 -0.23584,-5.14038 -0.90242,-17.91644 3.33008,-25.29102 4.95194,-8.62805 14.53973,-14.14586 23.58398,-18.28906 5.84773,-2.67885 12.51009,-3.20324 18.91211,-3.82422 3.72344,-0.36132 11.22266,0.0684 11.22266,0.0684 0,0 -22.50323,-6.53785 -33.06641,-3.21289 -10.76163,3.38743 -20.4696,11.60995 -26.52734,21.29492 -3.32372,-6.05231 -1.5587,-15.13058 -1.16602,-22.33984 0.31408,-5.76886 2.08074,-11.43625 4.16602,-16.82422 2.21488,-5.72286 5.22664,-11.17461 8.75781,-16.19336 1.29653,-1.84271 2.83083,-3.53259 4.50977,-5.03515 1.99298,-1.78362 4.09051,-3.56651 6.53125,-4.66016 5.94036,-2.66179 12.53962,-4.14397 19.04687,-4.31445 8.09277,-0.21204 23.93555,4.11718 23.93555,4.11718 0,0 -11.55343,-6.11416 -17.89453,-7.08007 -8.73377,-1.33038 -17.81456,0.0163 -26.42969,1.97265 -3.2533,0.73882 -6.55901,1.76936 -9.32226,3.63867 -2.61268,1.76746 -4.54558,4.40658 -6.47461,6.90235 -2.58131,3.33969 -4.84891,6.94428 -6.75391,10.71093 -1.16207,2.29769 -2.36973,4.73292 -3.5293,7.20313 -0.0301,-5.47089 0.63477,-11.68116 0.63477,-17.26367 0,-9.62517 4.84966,-17.1423 9.86328,-24.30469 1.71738,-2.45341 4.35077,-4.12151 6.66406,-6.02344 4.04346,-3.32441 8.07951,-6.72987 12.58399,-9.39648 4.02429,-2.38234 8.21118,-4.75652 12.76562,-5.81836 5.39048,-1.25677 11.13235,-1.3818 16.59766,-0.50586 10.11054,1.62045 14.32903,2.01442 28.875,10.48633 2.52801,1.47237 5.00456,5.75097 6.33008,9.96289 1.32555,4.21192 2.43765,9.17006 2.58203,14.19336 0.28611,9.95775 1.39078,16.81913 1.36523,16.97851 0,0 2.46199,17.84867 2.35352,20.22657 0.58511,10.18605 -0.84488,25.20266 -4.4961,35.15234 -2.11464,7.34593 -4.42239,10.47815 -5.18359,15.39648 -0.76116,4.91834 -2.64302,7.98272 -7.46094,18.39063 -4.46963,9.65552 -16.85502,24.78811 -29.81445,37.47852 -6.47974,6.34522 -18.30621,18.86816 -24.15234,23.25585 l -8.89063,5.82227 c 0,0 -23.10526,15.35918 -42.0625,25.78516 -18.95718,10.42597 -35.82164,19.89261 -53.64258,29.73242 -36.37254,20.08301 -63.84667,46.0979 -78.39258,61.35351 -2.69579,9.79408 -4.94783,16.22092 -7.96874,24.13672 -6.12709,16.05502 -10.88015,23.5975 -20.5625,47.27344 -9.68236,23.67591 -17.10997,50.34689 -16.37696,68.08984 1.4313,34.64504 39.22461,78.45703 39.22461,78.45703 0,0 -8.76858,-23.33976 -14.60156,-34.91796 10.0666,1.77633 25.02457,4.26195 36.08984,2.47851 23.97057,-3.86347 49.88982,-16.76857 66.92969,-28.74219 17.03987,-11.97361 33.71448,-26.21274 54.76562,-36.85937 20.92748,-10.58408 41.13462,-13.72955 61.1504,-13.7207 20.01573,0.008 40.05604,1.55365 59.50976,5.37109 32.58493,6.39417 50.63481,12.78662 63.61133,19.24023 5.96232,2.21091 33.38218,12.15545 17.58984,23.61524 -8.96126,5.66782 -19.16873,8.22264 -29.12109,11.27344 -15.66013,4.80049 -32.62573,5.06166 -47.89453,10.99023 -14.65017,5.68838 -29.53917,12.50437 -41.02735,23.22852 -30.41223,28.38965 -47.37665,66.70624 -68.81054,104.13086 -18.65211,32.56734 -58.09443,56.0667 -72.10547,64.36718 -8.18712,-17.58674 -16.66821,-33.82623 -22.05078,-42.625 -9.31319,-15.22401 -22.42774,-31.55468 -22.42774,-31.55468 l 16.6875,32.03515 c 9.53868,18.31125 24.80739,54.21056 34.91016,83.00396 3.15404,8.9892 5.57202,18.2232 8.12109,27.4023 5.12162,18.4428 9.43031,39.687 14.41016,55.584 3.34456,17.6278 4.8142,40.8158 3.24609,49.5039 -2.54261,8.4243 -8.20905,13.7293 -13.21679,15.9473 -16.26658,4.5603 -17.66254,1.111 -24.125,-2.8926 -16.56929,-10.3989 -40.29898,-52.0192 -62.10938,-76.6211 -23.36505,-26.3555 -61.21646,-62.731 -73.51562,-75.8965 -9.22324,-11.0416 -21.49482,-24.54336 -26.34766,-34.35157 -10.40778,-21.03538 -15.95508,-32.73438 -15.80273,-32.73438 0,0 5.25915,29.67162 28.19531,69.47265 -11.14567,0.5859 -35.69358,1.2418 -62.89844,-2.1796 C 96.478408,1019.5134 70.357739,1012.15 52.367188,1003.7754 28.740355,992.77712 20.180144,985.56805 8.8535156,975.70703 -2.4731132,965.84602 -15.453125,945.76562 -15.453125,945.76562 c 0,0 7.489189,18.67782 12.7265625,27.2129 3.8947867,6.34711 9.8964626,12.45005 13.7539065,17.60351 2.510902,3.35451 8.708787,10.32457 8.605468,15.57027 -1.469323,5.1701 -4.612145,11.255 -14.8593745,21.7696 -15.0134245,15.405 -28.6148345,27.2204 -50.6328125,38.0332 -10.366734,5.091 -15.258086,7.6488 -25.365234,11.4707 -10.107149,3.8219 -18.519632,7.1885 -28.277344,7.7734 -6.534637,0.3917 -17.825087,-0.282 -19.421877,-2.9062 -1.65172,-2.7145 -3.80092,-10.3117 0.12891,-17.8692 2.93564,-5.2199 7.09001,-9.9126 10.08008,-15.209 1.23519,-2.1879 2.35563,-4.4545 3.22851,-6.8105 2.29865,-6.2043 2.95537,-9.2582 5.23633,-19.1465 2.280964,-9.8883 4.010635,-23.81613 8.990234,-40.74218 4.9796,-16.92604 5.551937,-17.0376 8.835938,-26.83984 9.837267,-28.35798 20.778151,-54.55788 38.814453,-83.51367 0.317119,-0.50911 0.577671,-1.09664 0.853516,-1.66797 l 0.529297,-0.98828 0.01758,-0.0293 7.755859,-14.46289 c 0,0 15.482707,-40.05659 17.830078,-50.18164 l -10.837891,-4.45508 c -0.978015,4.21853 -0.270304,4.57476 -2.105468,8.73438 l -0.04492,-0.18945 c -2.403232,1.74678 -8.306864,9.78666 -12.507813,13.2207 -2.816927,2.30268 -11.779845,7.2639 -20.603515,11.36133 -8.823674,4.09742 -16.470578,5.55712 -16.671875,6.62695 -2.634539,2.28057 -6.197011,4.04555 -8.355469,4.92187 -2.8885,1.17404 -0.986265,0.28903 -8.326172,6.64454 -4.715332,4.16897 -16.874862,7.79759 -21.238282,3.79492 -1.95909,-1.88977 -2.71456,-3.83653 -3.71875,-6.33789 -0.15674,-0.39035 -0.18714,-0.77682 0.25,-1.84571 0.43712,-1.06888 1.38419,-2.54825 2.54687,-4.15625 2.32536,-3.21596 5.73728,-6.78958 6.28906,-11.95117 0.29617,-2.77028 1.20657,-4.36125 2.19336,-5.61719 -0.2813,-0.5626 -0.84928,-1.13908 -1.52148,-1.67968 l 0.002,-0.002 c 0,0 -0.0385,-0.0269 -0.0391,-0.0273 -0.70626,-0.56336 -1.52312,-1.08816 -2.25781,-1.51562 -1.35406,-0.90962 -2.86894,-1.92688 -3.55078,-2.37891 -1.99544,-1.32291 -8.25574,-5.74482 -12.50977,-7.61524 -4.25403,-1.87041 -9.43374,-4.03495 -14.62305,-6.15625 -6.74886,-3.61028 -18.26955,-5.48159 -22.87695,-12.93164 -2.55795,-4.13614 -3.18037,-10.35794 -0.75,-14.57031 1.02249,-1.77221 3.42308,-2.65353 5.46484,-2.79492 2.82491,-0.19578 6.23506,1.62021 8.0254,2.78906 4.43896,2.96043 5.73775,3.30019 13.61914,7.60938 3.34108,1.81973 3.43359,1.33007 3.43359,1.33007 l 18.65625,0.35547 -13.36133,-5.11718 c 0,0 -2.44203,-1.27826 -6.12695,-3.29297 -4.57439,-2.50107 -6.30719,-3.46382 -8.0625,-4.56641 -3.30152,-3.24343 4.34247,-1.92125 5.18359,-2.85937 -0.60674,0.67668 -0.47107,0.30264 0.25781,0.14843 0.72889,-0.1542 1.92338,-0.27414 3.33594,-0.31836 2.82512,-0.0884 6.55286,0.11267 10.1875,0.43555 7.26928,0.64577 6.33008,0.34766 6.33008,0.34766 l 0.11133,0.0215 0.11719,0.008 c 0,0 1.57655,0.15593 5.15234,0.51563 1.21238,0.12208 6.62695,-1.08399 6.62695,-1.08398 l 10.822272,-5.45704 c 0,0 -5.808512,0.12047 -9.097662,-0.21289 -2.13681,-0.21667 -3.0619,-0.3091 -4.62695,-0.46679 0.67296,-0.71824 1.26548,-1.41833 1.79687,-2.26368 -0.16373,0.26041 1.4562,-1.08059 3.4043,-1.75781 1.94811,-0.67721 7.775395,-2.44336 7.775395,-2.44336 0,0 9.280273,-3.50682 13.007813,-5.29492 0,0 -3.68513,-0.20127 -7.322266,-0.39844 0.916225,-0.76243 1.917571,-1.65496 3.021484,-2.69922 2.247995,-2.15017 3.617057,-3.34904 4.31836,-3.86914 0.22338,-0.16567 0.329488,-0.2496 0.380859,-0.29492 0.09829,-0.002 1.106687,0.0154 2.558594,-0.25 1.496954,-0.27439 13.130859,-2.0664 13.130859,-2.0664 l 4.00586,-4.60547 -1.125,-4.85742 c 0,0 -3.971061,1.84631 -12.941406,2.54492 -2.585609,0.20145 -2.998734,0.62993 -3.745746,0.76679 -0.747013,0.13682 -1.659278,1.38189 -2.816754,1.52098 -1.157477,0.13947 -2.676894,0.77707 -3.949219,1.72071 -1.272322,0.94359 -2.720828,1.7078 -5.041016,3.92706 -4.294707,4.1079 -7.505717,5.975 -10.017577,7.89844 0.0483,0.0535 0.0952,0.10809 0.14257,0.16211 -1.22635,0.25056 -2.51509,0.62236 -3.87109,1.09375 -2.65052,0.92137 -5.41767,1.86137 -7.31445,4.87891 -0.0363,0.0578 -0.9285,1.14401 -2.02344,2.26562 -0.87666,0.89804 -1.92997,1.93221 -2.99609,2.98047 -2.42181,-0.35759 -7.52141,-1.06662 -13.01563,-1.55469 -3.80072,-0.33751 -7.71876,-0.57014 -11.08789,-0.46484 -1.68456,0.0525 -3.22595,0.18208 -4.66406,0.48633 -1.43812,0.30425 -2.8958,0.59806 -4.32618,2.19336 -0.90332,1.00748 -1.66648,2.13632 -2.27929,3.35547 -0.31059,-0.13324 -0.64688,-0.27763 -0.92188,-0.39649 -1.02466,-0.44292 -2.19151,-1.00571 -3.35156,-0.95117 -4.27329,0.20107 -8.82417,1.74144 -11.96094,4.65039 -3.1279,2.90075 -5.04299,7.30606 -5.52148,11.54492 -0.47643,4.22065 0.96158,8.60115 2.79687,12.43164 1.94448,4.0584 5.69677,8.54457 8.40821,10.5625 2.36637,1.76111 13.1217,5.12417 23.42968,9.33789 5.15399,2.10686 10.29797,4.2518 14.44727,6.07617 4.1493,1.82435 7.54901,3.5247 8.20117,3.95704 0.58123,0.38531 1.56004,0.93218 2.47461,1.42968 -0.30873,0.90818 -0.54508,1.82448 -0.63672,2.68164 -0.16588,1.55169 -3.25932,5.55605 -4.90234,8.32618 -1.13319,1.91055 -2.78935,3.59017 -3.41797,5.7207 -0.71069,2.40867 -0.95066,5.11321 -0.26563,7.5293 1.07601,3.79506 3.50904,7.35032 6.5625,9.84765 3.09083,2.52789 7.09617,4.43541 11.0879,4.53321 7.0768,0.17339 13.661832,-3.96745 20.027343,-7.06446 2.289606,-1.11396 4.292991,-2.7392 6.445313,-4.09961 1.841743,-1.1641 3.798611,-2.16067 5.535156,-3.47656 1.61528,-1.224 3.131643,-2.49431 4.50586,-4.08203 4.439729,-1.66072 9.564408,-4.06135 14.849609,-6.51563 9.091026,-4.22154 19.786421,-10.38031 22.205078,-12.35742 0.412589,-0.23806 0.872695,-0.53034 1.339844,-0.70703 -0.732967,2.5789 -1.459096,4.94437 -2.169922,6.55664 -1.720915,3.90331 -1.758443,8.10112 -11.572266,29.66797 -18.893934,29.47654 -34.151394,67.77746 -41.322265,89.03711 -3.29446,9.83346 -4.622394,12.84569 -8.873047,26.97266 -4.250653,14.12696 -7.427573,32.81913 -9.345703,42.17383 -1.91814,9.3547 -2.15637,10.7673 -2.61329,13.8555 -0.45691,3.0881 -1.3429,4.8186 -2.92382,6.7695 -3.82279,5.063 -8.01563,10.813 -11.13868,16.7422 -2.87515,6.3614 -5.08302,15.2602 -3.22656,21.5644 0.74585,2.4624 1.72458,6.9823 6.50781,9.4785 4.78322,2.4963 10.81538,3.5132 20.53321,3.6954 9.717824,0.1821 15.019878,-1.0531 31.208986,-7.2266 16.573583,-6.3208 24.356912,-9.6259 35.423828,-16.4941 16.60749,-10.3068 32.7544536,-23.1847 45.775391,-36.6465 12.258909,-12.6741 17.404556,-16.7788 20.447265,-21.1075 2.102568,-2.9911 3.700666,-5.2397 4.949219,-7.2285 0.08012,0.026 0.182357,0.049 0.25,0.078 12.296019,7.3795 2.884923,2.1192 12.873047,6.4824 19.250071,8.0574 41.888687,15.3457 65.582024,18.7597 39.29331,5.662 75.0586,2.6797 75.0586,2.6797 l -0.0293,-0.3183 c 8.05562,7.546 50.87074,47.8061 72.44531,71.5996 22.02212,24.287 44.75511,65.2623 61.9043,76.4297 11.51085,7.5442 25.37355,9.2081 36.70312,4.2968 7.89856,-3.1025 14.60878,-10.4723 18.86133,-20.4843 3.60715,-11.2161 -0.86079,-36.4414 -4.14843,-55.0508 -4.56728,-17.1492 -9.42831,-37.319 -14.60157,-55.8535 -2.60018,-9.3158 -4.9514,-18.726 -8.25976,-27.8145 -2.80343,-7.7013 -6.23512,-16.09 -9.91797,-24.5254 9.65403,-8.09755 22.28838,-16.38857 34.52539,-27.61325 13.97963,-12.82306 27.48617,-27.90345 39.24609,-46.75781 24.10485,-38.64669 39.54986,-74.92524 66.83789,-100.12891 13.29812,-12.28236 26.55298,-18.42104 41.4961,-24.15039 14.583,-5.59128 30.93935,-4.96564 45.87109,-9.54492 10.14452,-3.11112 20.97567,-6.29364 29.44336,-12.10156 4.19437,-4.22192 8.68323,-9.16217 8.2168,-13.54687 -1.50278,-14.12693 -17.27927,-19.68112 -27.90821,-24.76368 -14.67874,-7.10388 -34.00727,-14.48588 -65.35547,-19.79101 -19.26051,-3.2595 -39.50058,-5.40905 -60.3457,-5.41797 -20.84515,-0.008 -42.49194,3.34007 -64.67773,14.56055 -22.06216,11.15795 -39.12639,25.77205 -55.73047,37.43945 -16.60409,11.6674 -38.99855,22.84919 -60.82227,25.88672 -12.18335,1.69574 -33.42442,-2.56289 -43.54883,-4.86524 -4.98288,-10.63356 -10.69878,-24.75481 -11.23046,-32.22265 -1.05894,-14.87346 7.3096,-40.35318 16.83789,-63.65235 9.52828,-23.2992 14.12795,-30.57423 20.08984,-46.30859 3.18304,-8.40053 3.19413,-8.78848 8.34961,-25.61719 14.57803,-15.17354 40.31289,-39.68232 74.125,-58.35156 17.7092,-9.77813 39.32928,-21.12846 58.38281,-31.60742 19.05358,-10.47893 40.62028,-25.38894 48.5918,-32.17383 6.20515,-4.65713 16.73629,-15.49407 23.41211,-22.03125 13.3516,-13.07444 26.00041,-28.0823 31.3789,-39.70117 5.03018,-10.86645 7.22791,-14.94374 8.07422,-20.41211 0.84262,-5.44453 3.05358,-7.83998 4.94922,-14.37891 0.031,-0.0819 0.0566,-0.14542 0.0879,-0.22851 4.87238,-11.85056 7.5557,-25.71505 7.04883,-38.875 -0.25243,-6.55447 -4.99023,-19.03516 -4.99023,-19.03516 0.76059,-8.15677 1.64431,-11.90535 1.49218,-18.63281 -0.15685,-5.4565 -0.76939,-11.25507 -2.42187,-16.50586 -1.65249,-5.25079 -4.41575,-10.15317 -9.22656,-12.95508 -8.43744,-4.91416 -15.40666,-7.30986 -22.28125,-8.74805 2.25831,-2.96795 4.59277,-5.3229 7.04492,-8.63672 8.16994,-11.04081 15.6916,-19.78523 15.84765,-19.96679 l 34.65235,-28.32813 c 0,0 4.51557,-3.83392 9.05664,-8.55273 2.27055,-2.35941 4.67833,-4.71834 6.39258,-7.5293 1.56193,-2.56121 2.863,-5.37517 3.43359,-8.32031 0.76245,-3.93534 1.04818,-8.18393 -0.10351,-12.02344 -0.78479,-2.61627 -2.51602,-4.95319 -4.45118,-6.88086 -2.84084,-2.82982 -6.32438,-5.21603 -10.125,-6.49414 -5.54293,-1.86404 -10.45806,-2.4081 -16.44726,-2.36133 z m -2.52735,12.55274 c 5.63227,0.0332 11.2794,0.80202 16.51172,2.67578 2.19372,0.78558 4.1728,2.23532 5.79883,3.9043 0.7612,0.7813 1.55513,1.68952 1.75586,2.76171 0.54641,2.91881 -0.75888,5.93366 -1.74023,8.73633 -0.49059,1.4012 -1.21717,2.7246 -2.04493,3.95703 -1.62421,2.41833 -3.55502,4.45671 -5.66796,6.65235 -4.22589,4.39128 -8.49805,8.02343 -8.49805,8.02343 l -31.33984,25.8379 -0.22071,0.25 c 0,0 -7.91663,9.2019 -16.35937,20.61132 -2.82781,3.82146 -5.71957,7.84055 -8.41016,11.88086 -2.76492,-0.37531 -5.58889,-0.69168 -8.56445,-1.03711 -6.45445,-0.74928 -13.15339,-0.56413 -19.46875,0.96485 -4.72592,1.14416 -9.14399,3.47628 -13.28711,6.02148 -4.18315,2.5698 -7.93806,5.8278 -11.48828,9.21875 -2.10043,2.00621 -4.50664,4.20528 -6.42383,6.43945 0.016,-0.0442 0.0328,-0.0845 0.0488,-0.1289 2.14998,-5.96464 9.92413,-26.274 17.26367,-38.875 7.33958,-12.601 14.52949,-21.49708 17.33594,-25.67774 2.54997,-3.79853 9.80974,-12.06473 17.82812,-20.41015 8.01838,-8.34542 15.00603,-18.14775 24.95703,-23.99024 7.32783,-4.30235 15.92831,-6.5859 24.38281,-7.43945 2.51346,-0.25375 5.07074,-0.39204 7.63086,-0.37695 z"
           sodipodi:nodetypes="ssssssscssccsccccsscccssccsssscsssccssscssscsscsssssccscscsccsssscccccccccccssccsccssssccsccssssscssssscssssssssscccsssccsscsssccssscsccsssscscsssccccscscccsscsscssssscsssscsccccccccssccccsssscccccsscaascccccsccssscccsccsccsccccscccccsscssccssscsssscscsaasssscsaaaaaaaacsccsccssscccsscssscccsccsccccsscssssscscscssscssscsscsssccsccsscsccssssssssssssssscccscssssccsssssss"
           transform="scale(0.26458333)"
           inkscape:label="body-border" />
        <g
           id="g100065"
           inkscape:label="tail-spikes">
          <path
             style="color:#000000;display:inline;fill:#ff9624;stroke-width:2.5;-inkscape-stroke:none"
             d="m 104.14079,196.1586 c 0,0 4.65787,-3.26691 4.48952,-6.41062 -0.16835,-3.14371 0.93267,-11.29291 -0.1636,-11.83262 -10.924553,0.92868 -21.255151,13.11637 -25.143985,22.38431 -1.889977,4.75109 -3.236854,9.73377 -4.165391,11.1091 -0.928539,1.37532 15.70105,-10.0699 19.515728,-12.45176 3.814678,-2.38186 5.467728,-2.79841 5.467728,-2.79841 z"
             id="path120152"
             inkscape:label="ts1" />
          <path
             style="color:#000000;display:inline;fill:#905f16;-inkscape-stroke:none"
             d="m 108.70703,176.64062 -0.3457,0.0293 c -5.88899,0.50062 -11.411129,3.96674 -15.976564,8.41602 -4.565435,4.44927 -8.19327,9.91261 -10.214844,14.73047 l -0.0039,0.01 -0.0039,0.0117 c -0.962765,2.42023 -1.778738,4.87403 -2.464843,6.87695 -0.686105,2.00293 -1.223854,2.60688 -1.576172,3.99414 -0.15762,0.62063 -0.632745,1.40664 -0.232937,1.90682 0.302441,0.37837 0.964756,0.20253 1.445823,0.1459 0.279325,-0.0329 0.569845,-0.16423 0.796875,-0.27735 0.454061,-0.22622 1.04564,-0.57456 1.802735,-1.04101 1.51419,-0.93291 3.629341,-2.31229 5.892578,-3.80859 4.526474,-2.99262 9.67321,-6.47046 11.509765,-7.61719 1.866304,-1.16531 3.183964,-1.83741 4.015624,-2.21289 0.83166,-0.37549 1.09375,-0.4336 1.09375,-0.4336 l 0.22461,-0.0566 0.18946,-0.13281 c 0,0 1.25653,-0.87794 2.49804,-2.19141 1.24151,-1.31346 2.63982,-3.09894 2.52149,-5.30859 -0.0733,-1.36896 0.14687,-4.23636 0.26562,-6.76758 0.0594,-1.26561 0.0943,-2.45727 0.0352,-3.43945 -0.0296,-0.49109 -0.0784,-0.92571 -0.19141,-1.34766 -0.11298,-0.42195 -0.23535,-0.97292 -0.96875,-1.33398 z m -1.05859,2.71485 c 0.0113,0.10637 0.0276,0.14355 0.0352,0.26953 0.048,0.79582 0.0226,1.93976 -0.0352,3.17187 -0.11561,2.46424 -0.36067,5.24283 -0.26563,7.01758 0.05,0.93406 -0.79646,2.35307 -1.84179,3.45899 -1.01557,1.07442 -1.99819,1.76709 -2.05664,1.80859 -0.1937,0.059 -0.43399,0.11462 -1.16211,0.44336 -0.94854,0.42825 -2.362178,1.15454 -4.310551,2.37109 -1.978119,1.23513 -7.054607,4.67073 -11.564453,7.65235 -1.88204,1.24428 -3.474338,2.26843 -4.861329,3.14258 0.155546,-0.45037 0.300428,-0.65183 0.476563,-1.16602 0.690771,-2.01654 1.49278,-4.42483 2.417969,-6.75195 1.868217,-4.44809 5.348272,-9.70768 9.648437,-13.89844 4.039938,-3.93715 8.787124,-6.81704 13.519534,-7.51953 z"
             id="path120154"
             sodipodi:nodetypes="ccscccssssssssscccssscscccsssscssscscsc"
             inkscape:label="ts1-border" />
          <path
             style="color:#000000;display:inline;fill:#ff9624;stroke-width:2;-inkscape-stroke:none"
             d="m 126.15453,193.27578 c 0,0 5.20373,-1.50532 5.57056,-3.98882 0.36684,-2.48349 0.92397,-9.1143 0.1441,-9.70862 -0.77986,-0.59432 -8.55444,0.82067 -11.68722,2.62573 -7.3111,3.23619 -9.61105,7.31606 -13.76784,14.11362 -0.24623,1.30693 5.27645,-3.99488 14.1373,-3.9474 3.61787,0.0194 5.6031,0.90549 5.6031,0.90549 z"
             id="path120158"
             inkscape:label="ts2" />
          <path
             style="color:#000000;display:inline;fill:#905f16;-inkscape-stroke:none"
             d="m 131.32227,178.44727 c -0.36706,-0.0183 -0.78119,-1.5e-4 -1.25391,0.041 -0.94545,0.0823 -2.1162,0.26452 -3.36328,0.52344 -2.48361,0.51565 -5.21501,1.29608 -6.99414,2.31445 -7.46459,3.3265 -11.2174,8.39513 -14.15039,14.4707 -0.24427,0.506 -0.57576,1.24532 -0.21066,1.67241 0.29748,0.34799 0.92104,0.11675 1.37278,0.0424 0.35105,-0.0578 0.66473,-0.20448 1,-0.37305 0.67054,-0.33713 1.58073,-0.85777 2.77148,-1.41797 2.3815,-1.12039 5.82287,-2.37227 10.05274,-2.34961 3.45655,0.0185 5.19921,0.81836 5.19921,0.81836 l 0.33399,0.14844 0.35156,-0.10156 c 0,0 1.37697,-0.39482 2.82422,-1.13281 0.72362,-0.369 1.47682,-0.82414 2.11719,-1.40625 0.64036,-0.58212 1.20228,-1.31915 1.34179,-2.26368 0.19153,-1.29662 0.42221,-3.58023 0.51172,-5.66601 0.0448,-1.04289 0.0544,-2.02923 -0.002,-2.83985 -0.0282,-0.4053 -0.0699,-0.76421 -0.15039,-1.09765 -0.0805,-0.33344 -0.1228,-0.68351 -0.59961,-1.04688 -0.49211,-0.37503 -0.78528,-0.31759 -1.15234,-0.33593 z m -0.17188,2 c 0.03,0.15972 0.0611,0.34594 0.0801,0.61914 0.0471,0.67742 0.0409,1.6157 -0.002,2.61523 -0.0858,1.99907 -0.31688,4.27212 -0.49219,5.45898 -0.0439,0.29723 -0.27048,0.67951 -0.70899,1.07813 -0.4385,0.39862 -1.05652,0.78575 -1.67968,1.10352 -1.13105,0.57675 -2.04589,0.84094 -2.24219,0.90039 -0.5371,-0.20557 -2.31416,-0.83422 -5.54883,-0.85157 -4.63097,-0.0248 -8.38057,1.34911 -10.91406,2.54102 -0.36713,0.17272 -0.50055,0.25741 -0.81641,0.41797 3.21049,-5.19536 5.6355,-8.50009 11.75977,-11.21094 l 0.0488,-0.0215 0.0469,-0.0273 c 1.35427,-0.78031 4.05841,-1.60727 6.42969,-2.09961 1.18564,-0.24616 2.30134,-0.418 3.13086,-0.49023 0.38496,-0.0335 0.68779,-0.0406 0.9082,-0.0332 z"
             id="path120160"
             sodipodi:nodetypes="cssccccssscccssssssscccssssscssccccsssc"
             inkscape:label="ts2-border" />
          <path
             style="color:#000000;fill:#ff9624;stroke-width:2;-inkscape-stroke:none"
             d="m 142.34428,195.72017 c 0,0 3.89902,-1.42736 4.67068,-2.74709 0.77167,-1.31973 2.50705,-4.9031 2.02412,-5.34165 -6.6737,-1.07648 -14.47685,-0.071 -19.49685,4.80611 -0.44701,0.68698 1.19992,0.34158 8.00833,1.62122 2.77987,0.52248 4.79372,1.66141 4.79372,1.66141 z"
             id="path120164"
             inkscape:label="ts3" />
          <path
             style="color:#000000;display:inline;fill:#905f16;-inkscape-stroke:none"
             d="m 143.86133,186.23828 c -5.44127,0.0549 -11.00898,1.58982 -15.01563,5.48242 l -0.0801,0.0781 -0.0625,0.0937 c -0.12197,0.18746 -0.31966,0.53063 -0.1914,1.01562 0.12826,0.48499 0.51517,0.71507 0.74414,0.8125 0.45794,0.19487 0.82369,0.21551 1.43945,0.29688 1.23154,0.16273 3.29616,0.38934 6.66992,1.02344 2.60676,0.48994 2.93843,1.22187 4.48633,1.54882 0.27359,0.0578 0.55718,0.0924 0.83594,0.0703 0.87023,-0.0689 1.41801,-0.0798 2.54257,-0.6276 2.28633,-1.74444 3.05297,-2.99626 4.18985,-5.67319 0.24585,-0.58363 0.45482,-1.14082 0.58399,-1.64648 0.0646,-0.25283 0.11391,-0.48968 0.11914,-0.76172 0.005,-0.27204 0.009,-0.67772 -0.41211,-1.06055 l -0.21875,-0.19921 -0.29297,-0.0469 c -1.72283,-0.27789 -3.52414,-0.42455 -5.33789,-0.40625 z m 0.043,2.00781 c 1.36794,-0.0162 2.71332,0.13091 4.04297,0.30274 -0.0973,0.30753 -0.20122,0.63186 -0.3711,1.03515 -0.6939,2.06467 -1.81753,3.66235 -3.2211,4.65171 -0.82969,0.40416 -1.73595,0.29324 -1.99374,0.39126 -0.55985,-0.29231 -2.1594,-1.087 -4.62696,-1.55078 -3.06645,-0.57634 -4.80474,-0.77093 -6.05078,-0.92969 3.41027,-2.59326 7.78125,-3.84796 12.22071,-3.90039 z"
             id="path120166"
             sodipodi:nodetypes="ccccssssssccsccccccsccccscs"
             inkscape:label="ts3-border" />
        </g>
      </g>
    </g>
  </g>
</svg>
