<?xml version="1.0" encoding="UTF-8" standalone="no"?>
<!-- Created with Inkscape (http://www.inkscape.org/) -->

<svg
   id="svg2"
   sodipodi:version="0.32"
   inkscape:version="1.2 (dc2aedaf03, 2022-05-15)"
   width="128"
   height="300"
   sodipodi:docname="listitem.svg"
   inkscape:output_extension="org.inkscape.output.svgz.inkscape"
   inkscape:export-filename="/home/pinheiro/Documents/pics/estilo/plasma/wether.png"
   inkscape:export-xdpi="90"
   inkscape:export-ydpi="90"
   version="1.0"
   xmlns:inkscape="http://www.inkscape.org/namespaces/inkscape"
   xmlns:sodipodi="http://sodipodi.sourceforge.net/DTD/sodipodi-0.dtd"
   xmlns="http://www.w3.org/2000/svg"
   xmlns:svg="http://www.w3.org/2000/svg"
   xmlns:rdf="http://www.w3.org/1999/02/22-rdf-syntax-ns#"
   xmlns:cc="http://creativecommons.org/ns#"
   xmlns:dc="http://purl.org/dc/elements/1.1/">
  <sodipodi:namedview
     inkscape:window-height="768"
     inkscape:window-width="1308"
     inkscape:pageshadow="2"
     inkscape:pageopacity="1"
     guidetolerance="10.0"
     gridtolerance="10.0"
     objecttolerance="10.0"
     borderopacity="1.0"
     bordercolor="#ffffff"
     pagecolor="#1c1c1c"
     id="base"
     inkscape:zoom="4.5391072"
     inkscape:cx="69.176599"
     inkscape:cy="42.299067"
     inkscape:window-x="0"
     inkscape:window-y="0"
     inkscape:current-layer="svg2"
     showgrid="true"
     showguides="true"
     inkscape:guide-bbox="true"
     inkscape:snap-guide="false"
     inkscape:snap-bbox="true"
     inkscape:object-paths="true"
     inkscape:bbox-nodes="false"
     inkscape:snap-global="true"
     inkscape:object-nodes="true"
     inkscape:window-maximized="1"
     inkscape:pagecheckerboard="0"
     inkscape:showpageshadow="2"
     inkscape:deskcolor="#1c1c1c" />
  <metadata
     id="metadata7">
    <rdf:RDF>
      <cc:Work
         rdf:about="">
        <dc:format>image/svg+xml</dc:format>
        <dc:type
           rdf:resource="http://purl.org/dc/dcmitype/StillImage" />
        <dc:title />
      </cc:Work>
      <cc:Work
         rdf:about="">
        <dc:format>image/svg+xml</dc:format>
        <dc:type
           rdf:resource="http://purl.org/dc/dcmitype/StillImage" />
      </cc:Work>
    </rdf:RDF>
  </metadata>
  <defs
     id="defs5">
    <style
       id="current-color-scheme"
       type="text/css">      
      .ColorScheme-Text {
        color:#1A1A1A;
      }
      .ColorScheme-Background{
        color:#1A1E24;
      }
      .ColorScheme-Highlight{
        color:#f9f9f9;
      }
      .ColorScheme-ViewBackground {
        color:#444444;
      }
     </style>
  </defs>
  <rect
     ry="2.077126"
     rx="0"
     y="-10"
     x="-10"
     height="2.077126"
     width="2.0329318"
     id="hint-tile-center"
     style="fill:#00ff00;fill-opacity:1;fill-rule:nonzero;stroke:none" />
  <rect
     style="fill:#00ffff;fill-opacity:1;fill-rule:nonzero;stroke:none"
     id="pressed-hint-top-margin"
     width="2"
     height="6"
     x="28"
     y="2" />
  <rect
     y="25"
     x="29"
     height="6"
     width="2"
     id="pressed-hint-bottom-margin"
     style="fill:#00ffff;fill-opacity:1;fill-rule:nonzero;stroke:none" />
  <rect
     y="16"
     x="10"
     height="2"
     width="4"
     id="pressed-hint-left-margin"
     style="fill:#00ffff;fill-opacity:1;fill-rule:nonzero;stroke:none" />
  <rect
     style="fill:#00ffff;fill-opacity:1;fill-rule:nonzero;stroke:none"
     id="pressed-hint-right-margin"
     width="4"
     height="2"
     x="35"
     y="16" />
  <rect
     style="fill:#00ff00;fill-opacity:1;fill-rule:nonzero;stroke:none"
     id="normal-hint-left-margin"
     width="4"
     height="1.9999999"
     x="17"
     y="58" />
  <rect
     y="44"
     x="28"
     height="6"
     width="2"
     id="normal-hint-top-margin"
     style="fill:#00ff00;fill-opacity:1;fill-rule:nonzero;stroke:none" />
  <rect
     style="fill:#00ff00;fill-opacity:1;fill-rule:nonzero;stroke:none"
     id="normal-hint-bottom-margin"
     width="2"
     height="6"
     x="29"
     y="67" />
  <rect
     y="58"
     x="38"
     height="2"
     width="4"
     id="normal-hint-right-margin"
     style="fill:#00ff00;fill-opacity:1;fill-rule:nonzero;stroke:none" />
  <g
     id="separator"
     style="opacity:1;fill:#00ffff"
     transform="translate(11,-4)">
    <rect
       class="ColorScheme-ViewBackground"
       transform="scale(1,-1)"
       y="-49"
       x="63"
       height="1"
       width="40"
       id="rect4052"
       style="opacity:1;fill:#00ffff;fill-opacity:1;stroke:none" />
    <rect
       style="opacity:0.15;fill:#00ffff;fill-opacity:1;stroke:none"
       id="rect4054"
       width="40"
       height="1"
       x="63"
       y="-49"
       transform="scale(1,-1)"
       class="ColorScheme-ViewText" />
  </g>
  <path
     inkscape:connector-curvature="0"
     id="normal-center"
     d="m 24,53.000345 0,11 10.999999,0 0,-11 -10.999999,0 z"
     style="opacity:0.01;fill:#00ff00;fill-opacity:1;fill-rule:nonzero;stroke:none"
     class="ColorScheme-ViewBackground" />
  <path
     inkscape:connector-curvature="0"
     id="normal-right"
     d="m 35,53.000345 0,11 2,0 c 6.68e-4,-0.01835 0,-0.03439 0,-0.05288 l 0,-10.89423 c 0,-0.0185 6.68e-4,-0.03453 0,-0.05288 l -2,0 z"
     style="opacity:0.01;fill:#00ff00;fill-opacity:1;fill-rule:nonzero;stroke:none"
     class="ColorScheme-ViewBackground" />
  <path
     sodipodi:nodetypes="ccccsscc"
     inkscape:connector-curvature="0"
     id="normal-top"
     d="m 24,51.000298 0,2.000047 10.999999,0 0,-2.000047 c -0.0041,-6.7e-4 0.0042,0 10e-7,0 l -10.98814,0 c -0.004,0 -0.008,-6.7e-4 -0.0119,0 z"
     style="opacity:0.01;fill:#00ff00;fill-opacity:1;fill-rule:nonzero;stroke:none"
     inkscape:label="#plain-top"
     class="ColorScheme-ViewBackground" />
  <path
     inkscape:connector-curvature="0"
     id="normal-left"
     d="m 22.0003,53.000345 c -6.7e-4,0.01835 0,0.03439 0,0.05288 l 0,10.89423 c 0,0.0185 -6.7e-4,0.03453 0,0.05288 l 2,0 0,-11 -2,0 z"
     style="opacity:0.01;fill:#00ff00;fill-opacity:1;fill-rule:nonzero;stroke:none"
     class="ColorScheme-ViewBackground" />
  <path
     sodipodi:nodetypes="ccccc"
     inkscape:connector-curvature="0"
     id="normal-bottom"
     d="m 24,64 0,2 11,0 0,-1.999655 z"
     style="opacity:0.01;fill:#00ff00;fill-opacity:1;fill-rule:nonzero;stroke:none"
     inkscape:label="#plain-bottom"
     class="ColorScheme-ViewBackground" />
  <path
     style="opacity:0.01;fill:#00ff00;fill-opacity:1;fill-rule:nonzero;stroke:none"
     d="m 21.999967,51.000298 0,2.000047 1.999771,0 0,-2.000047 c -7.46e-4,-6.7e-4 7.63e-4,0 0,0 l -1.997614,0 c -7.28e-4,0 -0.0015,-6.7e-4 -0.0022,0 z"
     id="normal-topleft"
     inkscape:connector-curvature="0"
     sodipodi:nodetypes="ccccsscc"
     inkscape:label="#path3112"
     class="ColorScheme-ViewBackground" />
  <path
     style="opacity:0.01;fill:#00ff00;fill-opacity:1;fill-rule:nonzero;stroke:none"
     d="m 35.000007,51.000643 0,1.999702 1.999771,0 0,-1.999702 c -7.46e-4,-6.7e-4 7.63e-4,0 0,0 l -1.997614,0 c -7.28e-4,0 -0.0015,-6.7e-4 -0.0022,0 z"
     id="normal-topright"
     inkscape:connector-curvature="0"
     sodipodi:nodetypes="ccccsscc"
     inkscape:label="#path3118"
     class="ColorScheme-ViewBackground" />
  <path
     sodipodi:nodetypes="ccccsscc"
     inkscape:connector-curvature="0"
     id="normal-bottomright"
     d="m 35.000007,64.000298 0,1.999702 1.999771,0 0,-1.999702 c -7.46e-4,-6.7e-4 7.63e-4,0 0,0 l -1.997614,0 c -7.28e-4,0 -0.0015,-6.7e-4 -0.0022,0 z"
     style="opacity:0.01;fill:#00ff00;fill-opacity:1;fill-rule:nonzero;stroke:none"
     inkscape:label="#path3130"
     class="ColorScheme-ViewBackground" />
  <path
     style="opacity:0.01;fill:#00ff00;fill-opacity:1;fill-rule:nonzero;stroke:none"
     d="m 22.000007,64.000298 0,1.999702 1.999771,0 0,-1.999702 c -7.46e-4,-6.7e-4 7.63e-4,0 0,0 l -1.997614,0 c -7.28e-4,0 -0.0015,-6.7e-4 -0.0022,0 z"
     id="normal-bottomleft"
     inkscape:connector-curvature="0"
     sodipodi:nodetypes="ccccsscc"
     inkscape:label="#path3136"
     class="ColorScheme-ViewBackground" />
  <path
     inkscape:connector-curvature="0"
     id="pressed-center"
     d="m 19.9997,10.000015 0,11.000005 10.999999,0 0,-11.000005 -10.999999,0 z"
     style="opacity:0.4;fill:#00ffff;fill-opacity:1;fill-rule:nonzero;stroke:none"
     class="ColorScheme-Highlight" />
  <path
     inkscape:connector-curvature="0"
     id="pressed-right"
     d="m 30.9997,10.000015 0,11.000005 2,0 c 6.68e-4,-0.01835 0,-0.0344 0,-0.05289 l 0,-10.89423 c 0,-0.0185 6.68e-4,-0.03453 0,-0.05288 l -2,0 z"
     style="opacity:0.4;fill:#00ffff;fill-opacity:1;fill-rule:nonzero;stroke:none"
     class="ColorScheme-Highlight" />
  <path
     sodipodi:nodetypes="ccccsscc"
     inkscape:connector-curvature="0"
     id="pressed-top"
     d="m 19.9997,7.999968 0,2.000047 10.999999,0 0,-2.000047 c -0.0041,-6.7e-4 0.0045,0 3.01e-4,0 l -10.98844,0 c -0.004,0 -0.008,-6.7e-4 -0.0119,0 z"
     style="opacity:0.4;fill:#00ffff;fill-opacity:1;fill-rule:nonzero;stroke:none"
     inkscape:label="#path4824"
     class="ColorScheme-Highlight" />
  <path
     inkscape:connector-curvature="0"
     id="pressed-left"
     d="m 18,10.000015 c -6.7e-4,0.01835 0,0.03439 0,0.05288 l 0,10.89423 c 0,0.0185 -6.7e-4,0.03453 0,0.05288 l 2,0 L 20,10 18,10 z"
     style="opacity:0.4;fill:#00ffff;fill-opacity:1;fill-rule:nonzero;stroke:none"
     class="ColorScheme-Highlight" />
  <path
     sodipodi:nodetypes="cccccc"
     inkscape:connector-curvature="0"
     id="pressed-bottom"
     d="m 20,21 0,2 11,0 0,-2 -11,0 z"
     style="opacity:0.4;fill:#00ffff;fill-opacity:1;fill-rule:nonzero"
     inkscape:label="#path4850"
     class="ColorScheme-Highlight" />
  <path
     style="opacity:0.4;fill:#00ffff;fill-opacity:1;fill-rule:nonzero;stroke:none"
     d="m 17.999667,7.999968 0,2.000047 1.999722,0 0,-2.000047 c -7.45e-4,-6.7e-4 8.18e-4,0 5.5e-5,0 l -1.997621,0 c -7.27e-4,0 -0.0015,-6.7e-4 -0.0022,0 z"
     id="pressed-topleft"
     inkscape:connector-curvature="0"
     sodipodi:nodetypes="ccccsscc"
     inkscape:label="#path3154"
     class="ColorScheme-Highlight" />
  <path
     sodipodi:nodetypes="ccccsscc"
     inkscape:connector-curvature="0"
     id="pressed-topright"
     d="m 31.000044,7.999968 0,2.000047 1.999722,0 0,-2.000047 c -7.45e-4,-6.7e-4 8.18e-4,0 5.5e-5,0 l -1.997621,0 c -7.27e-4,0 -0.0015,-6.7e-4 -0.0022,0 z"
     style="opacity:0.4;fill:#00ffff;fill-opacity:1;fill-rule:nonzero;stroke:none"
     inkscape:label="#path3156"
     class="ColorScheme-Highlight" />
  <path
     style="opacity:0.4;fill:#00ffff;fill-opacity:1;fill-rule:nonzero;stroke:none"
     d="m 31.000044,20.999953 0,2.000047 1.999722,0 0,-2.000047 c -7.45e-4,-6.7e-4 8.18e-4,0 5.5e-5,0 l -1.997621,0 c -7.27e-4,0 -0.0015,-6.7e-4 -0.0022,0 z"
     id="pressed-bottomright"
     inkscape:connector-curvature="0"
     sodipodi:nodetypes="ccccsscc"
     inkscape:label="#path3158"
     class="ColorScheme-Highlight" />
  <path
     sodipodi:nodetypes="ccccsscc"
     inkscape:connector-curvature="0"
     id="pressed-bottomleft"
     d="m 18.000044,20.999953 0,2.000047 1.999722,0 0,-2.000047 c -7.45e-4,-6.7e-4 8.18e-4,0 5.5e-5,0 l -1.997621,0 c -7.27e-4,0 -0.0015,-6.7e-4 -0.0022,0 z"
     style="opacity:0.4;fill:#00ffff;fill-opacity:1;fill-rule:nonzero;stroke:none"
     inkscape:label="#path3160"
     class="ColorScheme-Highlight" />
  <path
     inkscape:connector-curvature="0"
     id="section-center"
     d="m 21.9997,88 0,11 10.999999,0 0,-11 -10.999999,0 z"
     style="opacity:1;fill:#00ff00;fill-opacity:1;fill-rule:nonzero;stroke:none"
     class="ColorScheme-ViewBackground"
     inkscape:label="#normal-center-8" />
  <path
     inkscape:connector-curvature="0"
     id="section-right"
     d="m 32.9997,88 0,11 2,0 c 6.68e-4,-0.0183 0,-0.0344 0,-0.0529 l 0,-10.89423 c 0,-0.0185 6.68e-4,-0.03453 0,-0.05288 l -2,0 z"
     style="opacity:1;fill:#00ff00;fill-opacity:1;fill-rule:nonzero;stroke:none"
     class="ColorScheme-ViewBackground"
     inkscape:label="#normal-right-4" />
  <path
     sodipodi:nodetypes="ccccsscc"
     inkscape:connector-curvature="0"
     id="section-top"
     d="m 21.9997,85.999953 0,2.000047 10.999999,0 0,-2.000047 c -0.0041,-6.7e-4 0.0042,0 10e-7,0 l -10.98814,0 c -0.004,0 -0.008,-6.7e-4 -0.0119,0 z"
     style="opacity:1;fill:#00ff00;fill-opacity:1;fill-rule:nonzero;stroke:none"
     inkscape:label="#plain-top"
     class="ColorScheme-ViewBackground" />
  <path
     inkscape:connector-curvature="0"
     id="section-left"
     d="m 20,88 c -6.7e-4,0.01835 0,0.03439 0,0.05288 l 0,10.89423 c 0,0.0185 -6.7e-4,0.0345 0,0.0529 l 2,0 0,-11 -2,0 z"
     style="opacity:1;fill:#00ff00;fill-opacity:1;fill-rule:nonzero;stroke:none"
     class="ColorScheme-ViewBackground"
     inkscape:label="#normal-left-0" />
  <path
     sodipodi:nodetypes="ccccc"
     inkscape:connector-curvature="0"
     id="section-bottom"
     d="m 21.9997,98.99966 0,2 11,0 0,-1.99966 z"
     style="opacity:1;fill:#00ff00;fill-opacity:1;fill-rule:nonzero;stroke:none"
     inkscape:label="#plain-bottom"
     class="ColorScheme-ViewBackground" />
  <path
     style="opacity:1;fill:#00ff00;fill-opacity:1;fill-rule:nonzero;stroke:none"
     d="m 19.999667,85.999953 0,2.000047 1.999771,0 0,-2.000047 c -7.46e-4,-6.7e-4 7.63e-4,0 0,0 l -1.997614,0 c -7.28e-4,0 -0.0015,-6.7e-4 -0.0022,0 z"
     id="section-topleft"
     inkscape:connector-curvature="0"
     sodipodi:nodetypes="ccccsscc"
     inkscape:label="#path3112"
     class="ColorScheme-ViewBackground" />
  <path
     style="opacity:1;fill:#00ff00;fill-opacity:1;fill-rule:nonzero;stroke:none"
     d="m 32.999707,86.000298 0,1.999702 1.999771,0 0,-1.999702 c -7.46e-4,-6.7e-4 7.63e-4,0 0,0 l -1.997614,0 c -7.28e-4,0 -0.0015,-6.7e-4 -0.0022,0 z"
     id="section-topright"
     inkscape:connector-curvature="0"
     sodipodi:nodetypes="ccccsscc"
     inkscape:label="#path3118"
     class="ColorScheme-ViewBackground" />
  <path
     sodipodi:nodetypes="ccccsscc"
     inkscape:connector-curvature="0"
     id="section-bottomright"
     d="m 32.999707,98.99995 0,1.99971 1.999771,0 0,-1.99971 c -7.46e-4,-6.7e-4 7.63e-4,0 0,0 l -1.997614,0 c -7.28e-4,0 -0.0015,-6.7e-4 -0.0022,0 z"
     style="opacity:1;fill:#00ff00;fill-opacity:1;fill-rule:nonzero;stroke:none"
     inkscape:label="#path3130"
     class="ColorScheme-ViewBackground" />
  <path
     style="opacity:1;fill:#00ff00;fill-opacity:1;fill-rule:nonzero;stroke:none"
     d="m 19.999707,98.99995 0,1.99971 1.999771,0 0,-1.99971 c -7.46e-4,-6.7e-4 7.63e-4,0 0,0 l -1.997614,0 c -7.28e-4,0 -0.0015,-6.7e-4 -0.0022,0 z"
     id="section-bottomleft"
     inkscape:connector-curvature="0"
     sodipodi:nodetypes="ccccsscc"
     inkscape:label="#path3136"
     class="ColorScheme-ViewBackground" />
  <rect
     style="fill:#00ff00;fill-opacity:1;fill-rule:nonzero;stroke:none"
     id="section-hint-top-margin"
     width="2"
     height="6"
     x="28"
     y="81" />
  <rect
     y="95"
     x="10"
     height="1.9999999"
     width="4"
     id="section-hint-left-margin"
     style="fill:#00ff00;fill-opacity:1;fill-rule:nonzero;stroke:none" />
  <rect
     style="fill:#00ff00;fill-opacity:1;fill-rule:nonzero;stroke:none"
     id="section-hint-right-margin"
     width="4"
     height="2"
     x="34.965229"
     y="95" />
  <rect
     y="100"
     x="29"
     height="6"
     width="2"
     id="section-hint-bottom-margin"
     style="fill:#00ff00;fill-opacity:1;fill-rule:nonzero;stroke:none" />
  <path
     inkscape:connector-curvature="0"
     id="hover-center"
     d="m 59.9997,7.3841577 0,11.0000053 10.999999,0 0,-11.0000053 -10.999999,0 z"
     style="opacity:0.6;fill:#00ff00;fill-opacity:1;fill-rule:nonzero;stroke:none"
     class="ColorScheme-Highlight"
     inkscape:label="#pressed-center-5" />
  <path
     inkscape:connector-curvature="0"
     id="hover-right"
     d="m 70.9997,7.3841577 0,11.0000053 2,0 c 6.68e-4,-0.01835 0,-0.0344 0,-0.05289 l 0,-10.8942303 c 0,-0.0185 6.68e-4,-0.03453 0,-0.05288 l -2,0 z"
     style="opacity:0.6;fill:#00ff00;fill-opacity:1;fill-rule:nonzero;stroke:none"
     class="ColorScheme-Highlight"
     inkscape:label="#pressed-right-0" />
  <path
     sodipodi:nodetypes="ccccsscc"
     inkscape:connector-curvature="0"
     id="hover-top"
     d="m 59.9997,5.3841107 0,2.000047 10.999999,0 0,-2.000047 c -0.0041,-6.7e-4 0.0045,0 3.01e-4,0 l -10.98844,0 c -0.004,0 -0.008,-6.7e-4 -0.0119,0 z"
     style="opacity:0.6;fill:#00ff00;fill-opacity:1;fill-rule:nonzero;stroke:none"
     inkscape:label="#path4824"
     class="ColorScheme-Highlight" />
  <path
     inkscape:connector-curvature="0"
     id="hover-left"
     d="m 58,7.3841577 c -6.7e-4,0.01835 0,0.03439 0,0.05288 l 0,10.8942303 c 0,0.0185 -6.7e-4,0.03453 0,0.05288 l 2,0 0,-11.0000053 -2,0 z"
     style="opacity:0.6;fill:#00ff00;fill-opacity:1;fill-rule:nonzero;stroke:none"
     class="ColorScheme-Highlight"
     inkscape:label="#pressed-left-7" />
  <path
     sodipodi:nodetypes="cccccc"
     inkscape:connector-curvature="0"
     id="hover-bottom"
     d="m 60,18.384143 0,2 11,0 0,-2 -11,0 z"
     style="opacity:0.6;fill:#00ff00;fill-opacity:1;fill-rule:nonzero"
     inkscape:label="#path4850"
     class="ColorScheme-Highlight" />
  <path
     style="opacity:0.6;fill:#00ff00;fill-opacity:1;fill-rule:nonzero;stroke:none"
     d="m 57.999667,5.3841107 0,2.000047 1.999722,0 0,-2.000047 c -7.45e-4,-6.7e-4 8.18e-4,0 5.5e-5,0 l -1.997621,0 c -7.27e-4,0 -0.0015,-6.7e-4 -0.0022,0 z"
     id="hover-topleft"
     inkscape:connector-curvature="0"
     sodipodi:nodetypes="ccccsscc"
     inkscape:label="#path3154"
     class="ColorScheme-Highlight" />
  <path
     sodipodi:nodetypes="ccccsscc"
     inkscape:connector-curvature="0"
     id="hover-topright"
     d="m 71.000044,5.3841107 0,2.000047 1.999722,0 0,-2.000047 c -7.45e-4,-6.7e-4 8.18e-4,0 5.5e-5,0 l -1.997621,0 c -7.27e-4,0 -0.0015,-6.7e-4 -0.0022,0 z"
     style="opacity:0.6;fill:#00ff00;fill-opacity:1;fill-rule:nonzero;stroke:none"
     inkscape:label="#path3156"
     class="ColorScheme-Highlight" />
  <path
     style="opacity:0.6;fill:#00ff00;fill-opacity:1;fill-rule:nonzero;stroke:none"
     d="m 71.000044,18.384096 0,2.000047 1.999722,0 0,-2.000047 c -7.45e-4,-6.7e-4 8.18e-4,0 5.5e-5,0 l -1.997621,0 c -7.27e-4,0 -0.0015,-6.7e-4 -0.0022,0 z"
     id="hover-bottomright"
     inkscape:connector-curvature="0"
     sodipodi:nodetypes="ccccsscc"
     inkscape:label="#path3158"
     class="ColorScheme-Highlight" />
  <path
     sodipodi:nodetypes="ccccsscc"
     inkscape:connector-curvature="0"
     id="hover-bottomleft"
     d="m 58.000044,18.384096 0,2.000047 1.999722,0 0,-2.000047 c -7.45e-4,-6.7e-4 8.18e-4,0 5.5e-5,0 l -1.997621,0 c -7.27e-4,0 -0.0015,-6.7e-4 -0.0022,0 z"
     style="opacity:0.6;fill:#00ff00;fill-opacity:1;fill-rule:nonzero;stroke:none"
     inkscape:label="#path3160"
     class="ColorScheme-Highlight" />
</svg>
