<?xml version="1.0" encoding="UTF-8" standalone="no"?>
<!-- Created with Inkscape (http://www.inkscape.org/) -->

<svg
   width="48"
   height="98"
   id="svg3642"
   sodipodi:version="0.32"
   inkscape:version="1.1.2 (0a00cf5339, 2022-02-04, custom)"
   sodipodi:docname="scrollbar.svg"
   inkscape:output_extension="org.inkscape.output.svgz.inkscape"
   version="1.0"
   xmlns:inkscape="http://www.inkscape.org/namespaces/inkscape"
   xmlns:sodipodi="http://sodipodi.sourceforge.net/DTD/sodipodi-0.dtd"
   xmlns="http://www.w3.org/2000/svg"
   xmlns:svg="http://www.w3.org/2000/svg"
   xmlns:rdf="http://www.w3.org/1999/02/22-rdf-syntax-ns#"
   xmlns:cc="http://creativecommons.org/ns#"
   xmlns:dc="http://purl.org/dc/elements/1.1/">
  <sodipodi:namedview
     id="base"
     pagecolor="#eff0f1"
     bordercolor="#666666"
     borderopacity="1.0"
     inkscape:pageopacity="1"
     inkscape:pageshadow="2"
     inkscape:zoom="11.377857"
     inkscape:cx="1.6259652"
     inkscape:cy="85.692763"
     inkscape:current-layer="sunken-slider-bottomright"
     showgrid="true"
     inkscape:grid-bbox="true"
     inkscape:document-units="px"
     inkscape:window-width="1318"
     inkscape:window-height="738"
     inkscape:window-x="0"
     inkscape:window-y="0"
     width="48px"
     height="48px"
     showguides="true"
     inkscape:guide-bbox="true"
     objecttolerance="9"
     gridtolerance="13"
     inkscape:window-maximized="1"
     inkscape:pagecheckerboard="0">
    <inkscape:grid
       visible="true"
       enabled="true"
       id="grid2555"
       type="xygrid"
       empspacing="5"
       snapvisiblegridlinesonly="true"
       color="#0000ff"
       opacity="0.01960784"
       empcolor="#0000ff"
       empopacity="0.03921569" />
  </sodipodi:namedview>
  <defs
     id="defs3644">
    <style
       id="current-color-scheme"
       type="text/css">
      .ColorScheme-Text {
        color:#31363b;
        stop-color:#31363b;
      }
      .ColorScheme-Background {
        color:#eff0f1;
        stop-color:#eff0f1;
      }
      .ColorScheme-Highlight {
        color:#091e33;
        stop-color:#091e33;
      }
      .ColorScheme-ViewText {
        color:#31363b;
        stop-color:#31363b;
      }
      .ColorScheme-ViewBackground {
        color:#fcfcfc;
        stop-color:#fcfcfc;
      }
      .ColorScheme-ViewHover {
        color:#93cee9;
        stop-color:#93cee9;
      }
      .ColorScheme-ViewFocus{
        color:#091e33;
        stop-color:#091e33;
      }
      .ColorScheme-ButtonText {
        color:#31363b;
        stop-color:#31363b;
      }
      .ColorScheme-ButtonBackground {
        color:#eff0f1;
        stop-color:#eff0f1;
      }
      .ColorScheme-ButtonHover {
        color:#93cee9;
        stop-color:#93cee9;
      }
      .ColorScheme-ButtonFocus{
        color:#091e33;
        stop-color:#091e33;
      }
      </style>
  </defs>
  <metadata
     id="metadata3647">
    <rdf:RDF>
      <cc:Work
         rdf:about="">
        <dc:format>image/svg+xml</dc:format>
        <dc:type
           rdf:resource="http://purl.org/dc/dcmitype/StillImage" />
      </cc:Work>
      <cc:Work
         rdf:about="">
        <dc:format>image/svg+xml</dc:format>
        <dc:type
           rdf:resource="http://purl.org/dc/dcmitype/StillImage" />
      </cc:Work>
    </rdf:RDF>
  </metadata>
  <g
     inkscape:groupmode="layer"
     inkscape:label="Layer 1"
     id="layer1">
    <rect
       style="opacity:1;fill:#000f0f;fill-opacity:1;fill-rule:evenodd;stroke:none;stroke-width:1"
       id="slider-center"
       width="2"
       height="10"
       x="23"
       y="19"
       class="ColorScheme-Text" />
    <g
       id="slider-right"
       transform="matrix(0.75,0,0,1,19.250001,12)"
       style="opacity:1;fill:#00ffff">
      <path
         id="rect3838"
         d="m 9,7 v 10 h 2 V 7 Z"
         style="opacity:1;fill:#00ffff;fill-opacity:1;fill-rule:evenodd;stroke:none;stroke-width:0.999995"
         inkscape:connector-curvature="0"
         class="ColorScheme-Text" />
      <rect
         style="opacity:0.01;fill:#00ffff;fill-opacity:1;stroke:none;stroke-width:1.1547"
         id="rect3856"
         width="16"
         height="10"
         x="8.999999"
         y="7" />
    </g>
    <g
       id="slider-topright"
       transform="matrix(0.75,0,0,0.75,19.25,13.75)"
       style="opacity:1;fill:#00ffff">
      <rect
         style="opacity:0.01;fill:#00ffff;fill-opacity:1;stroke:none;stroke-width:1.33333"
         id="rect3852"
         width="16"
         height="16"
         x="9"
         y="-10.333333" />
      <path
         id="rect3840"
         d="m 9,3.6666667 v 2 h 2 c 0,-1.1080001 -0.892,-2 -2,-2 z"
         style="opacity:1;fill:#00ffff;fill-opacity:1;fill-rule:evenodd;stroke:none;stroke-width:0.999995"
         inkscape:connector-curvature="0"
         class="ColorScheme-Text" />
    </g>
    <g
       id="slider-bottomright"
       transform="matrix(0.75,0,0,0.75,19.25,17.25)"
       style="opacity:1;fill:#00ffff">
      <rect
         style="opacity:0.01;fill:#00ffff;fill-opacity:1;stroke:none;stroke-width:1.33333"
         id="rect3862"
         width="16"
         height="16"
         x="8.9999962"
         y="17" />
      <path
         inkscape:connector-curvature="0"
         style="opacity:1;fill:#00ffff;fill-opacity:1;fill-rule:evenodd;stroke:none;stroke-width:0.999995"
         d="m 9,19 v -2 h 2 c 0,1.108 -0.892,2 -2,2 z"
         id="path3871"
         class="ColorScheme-Text" />
    </g>
    <g
       id="slider-left"
       transform="matrix(-0.75,0,0,1,29.75,12)"
       style="opacity:1;fill:#00ffff">
      <path
         style="opacity:1;fill:#00ffff;fill-opacity:1;fill-rule:evenodd;stroke:none;stroke-width:0.999995"
         d="m 10.333333,7 v 10 h 2 V 7 Z"
         id="path3891"
         inkscape:connector-curvature="0"
         class="ColorScheme-Text" />
      <rect
         style="opacity:0.01;fill:#00ffff;fill-opacity:1;stroke:none;stroke-width:1.1547"
         id="rect3854"
         width="16"
         height="10"
         x="-26.333334"
         y="7"
         transform="scale(-1,1)" />
    </g>
    <g
       id="slider-topleft"
       transform="matrix(-0.75,0,0,0.75,29.75,14.25)"
       style="opacity:1;fill:#00ffff">
      <rect
         style="opacity:0.01;fill:#00ffff;fill-opacity:1;stroke:none;stroke-width:1.33333"
         id="rect3848"
         width="16"
         height="16"
         x="-26.333334"
         y="-10.333333"
         transform="scale(-1,1)" />
      <path
         style="opacity:1;fill:#00ffff;fill-opacity:1;fill-rule:evenodd;stroke:none;stroke-width:0.999995"
         d="m 10.333334,3.666667 v 2 h 2 c 0,-1.1080001 -0.891998,-2 -2,-2 z"
         id="path3895"
         inkscape:connector-curvature="0"
         class="ColorScheme-Text" />
    </g>
    <g
       id="slider-bottomleft"
       transform="matrix(-0.75,0,0,0.75,26.75,19.25)"
       style="opacity:1;fill:#00ffff">
      <rect
         style="opacity:0.01;fill:#00ffff;fill-opacity:1;stroke:none;stroke-width:1.33333"
         id="rect3858"
         width="16"
         height="16"
         x="-22.333334"
         y="14.333333"
         transform="scale(-1,1)" />
      <path
         id="path3901"
         d="m 6.3333333,16.333333 v -2 h 2 c 0,1.108 -0.891998,2 -2,2 z"
         style="opacity:1;fill:#00ffff;fill-opacity:1;fill-rule:evenodd;stroke:none;stroke-width:0.999995"
         inkscape:connector-curvature="0"
         class="ColorScheme-Text" />
    </g>
    <g
       transform="matrix(0,-0.75,-0.2,0,26.4,26.25)"
       id="slider-top"
       style="opacity:1;fill:#00ffff;stroke-width:0.707107">
      <rect
         style="opacity:0.01;fill:#00ffff;fill-opacity:1;stroke:none;stroke-width:2.58199"
         id="rect3850"
         width="10"
         height="16"
         x="-17"
         y="-26.333334"
         transform="matrix(0,-1,-1,0,0,0)" />
      <path
         inkscape:connector-curvature="0"
         id="path3909"
         d="m 10.333333,7 v 10 h 2 V 7 Z"
         style="opacity:1;fill:#00ffff;fill-opacity:1;fill-rule:evenodd;stroke:none;stroke-width:0.707105"
         class="ColorScheme-Text" />
    </g>
    <g
       id="slider-bottom"
       transform="matrix(0,0.75,-0.2,0,26.4,23.25)"
       style="opacity:1;fill:#00ffff;stroke-width:0.707107">
      <rect
         style="opacity:0.01;fill:#00ffff;fill-opacity:1;stroke:none;stroke-width:2.58199"
         id="rect3860"
         width="10"
         height="16"
         x="-17"
         y="9"
         transform="rotate(-90)" />
      <path
         style="opacity:1;fill:#00ffff;fill-opacity:1;fill-rule:evenodd;stroke:none;stroke-width:0.707105"
         d="M 9,7.0000019 V 17.000002 h 2 V 7.0000019 Z"
         id="path3915"
         inkscape:connector-curvature="0"
         class="ColorScheme-Text" />
    </g>
    <rect
       ry="8"
       rx="8"
       y="25"
       x="-28.404232"
       height="35"
       width="40.404232"
       id="hint-scrollbar-size"
       style="fill:#4e9a06;fill-opacity:1;fill-rule:nonzero;stroke:none;stroke-width:0.999997" />
    <rect
       style="fill:#4e9a06;fill-opacity:1;fill-rule:nonzero;stroke:none;stroke-width:1"
       id="hint-tile-center"
       width="22.292892"
       height="20.736544"
       x="-12.999999"
       y="-6.9999986"
       rx="2.077126"
       ry="2.077126" />
    <g
       id="background-vertical-right"
       transform="matrix(0.75,0,0,1,33.25,13)"
       inkscape:label="#slider-right-1"
       style="opacity:0;fill:#00ffff;fill-opacity:1">
      <path
         id="rect3838-1"
         d="m 9,7 v 10 h 4 V 7 Z"
         style="opacity:0.4;fill:#00ffff;fill-opacity:1;fill-rule:evenodd;stroke:none"
         inkscape:connector-curvature="0"
         class="ColorScheme-Text" />
      <rect
         style="opacity:0.01;fill:#00ffff;fill-opacity:1;stroke:none"
         id="rect3872"
         width="1"
         height="10"
         x="43"
         y="20"
         transform="matrix(1.3333333,0,0,1,-44.333333,-13)" />
      <path
         class="ColorScheme-ViewBackground"
         inkscape:connector-curvature="0"
         style="opacity:0.2;fill:#00ffff;fill-opacity:1;fill-rule:evenodd;stroke:none"
         d="m 9,7 v 10 h 4 V 7 Z"
         id="path4264" />
    </g>
    <g
       id="background-vertical-topright"
       transform="matrix(0.75,0,0,0.75,33.25,13.75)"
       inkscape:label="#slider-topright-5"
       style="opacity:0;fill:#00ffff">
      <rect
         style="opacity:0.01;fill:#00ffff;fill-opacity:1;stroke:none"
         id="rect3868"
         width="4"
         height="4"
         x="40"
         y="15"
         transform="matrix(1.3333333,0,0,1.3333333,-44.333333,-18.333333)" />
      <path
         id="rect3840-1"
         d="m 9,3 v 4 h 4 C 13,4.784 11.216,3 9,3 Z"
         style="opacity:0.4;fill:#00ffff;fill-opacity:1;fill-rule:evenodd;stroke:none"
         inkscape:connector-curvature="0"
         class="ColorScheme-Text" />
      <path
         class="ColorScheme-ViewBackground"
         inkscape:connector-curvature="0"
         style="opacity:0.2;fill:#00ffff;fill-opacity:1;fill-rule:evenodd;stroke:none"
         d="m 9,3 v 4 h 4 C 13,4.784 11.216,3 9,3 Z"
         id="path4278" />
    </g>
    <g
       id="background-vertical-bottomright"
       transform="matrix(0.75,0,0,0.75,33.25,18.25)"
       inkscape:label="#slider-bottomright-2"
       style="opacity:0;fill:#00ffff">
      <rect
         style="opacity:0.01;fill:#00ffff;fill-opacity:1;stroke:none"
         id="rect3878"
         width="4"
         height="4"
         x="40"
         y="31"
         transform="matrix(1.3333333,0,0,1.3333333,-44.333333,-24.333333)" />
      <path
         inkscape:connector-curvature="0"
         style="opacity:0.4;fill:#00ffff;fill-opacity:1;fill-rule:evenodd;stroke:none"
         d="m 9,21 v -4 h 4 c 0,2.216 -1.784,4 -4,4 z"
         id="path3871-2"
         class="ColorScheme-Text" />
      <path
         class="ColorScheme-ViewBackground"
         id="path4284"
         d="m 9,21 v -4 h 4 c 0,2.216 -1.784,4 -4,4 z"
         style="opacity:0.2;fill:#00ffff;fill-opacity:1;fill-rule:evenodd;stroke:none"
         inkscape:connector-curvature="0" />
    </g>
    <g
       id="background-vertical-left"
       transform="matrix(-0.75,0,0,1,43.75,13)"
       inkscape:label="#slider-left-4"
       style="opacity:0;fill:#00ffff">
      <path
         style="opacity:0.4;fill:#00ffff;fill-opacity:1;fill-rule:evenodd;stroke:none"
         d="m 9,7 v 10 h 4 V 7 Z"
         id="path3891-2"
         inkscape:connector-curvature="0"
         class="ColorScheme-Text" />
      <rect
         style="opacity:0.01;fill:#00ffff;fill-opacity:1;stroke:none"
         id="rect3870"
         width="1"
         height="10"
         x="33"
         y="20"
         transform="matrix(-1.3333333,0,0,1,58.333333,-13)" />
      <path
         class="ColorScheme-ViewBackground"
         inkscape:connector-curvature="0"
         id="path4262"
         d="m 9,7 v 10 h 4 V 7 Z"
         style="opacity:0.2;fill:#00ffff;fill-opacity:1;fill-rule:evenodd;stroke:none" />
    </g>
    <g
       id="background-vertical-topleft"
       transform="matrix(-0.75,0,0,0.75,43.75,13.75)"
       inkscape:label="#slider-topleft-8"
       style="opacity:0;fill:#00ffff">
      <rect
         style="opacity:0.01;fill:#00ffff;fill-opacity:1;stroke:none"
         id="rect3864"
         width="4"
         height="4"
         x="33"
         y="15"
         transform="matrix(-1.3333333,0,0,1.3333333,58.333333,-18.333333)" />
      <path
         style="opacity:0.4;fill:#00ffff;fill-opacity:1;fill-rule:evenodd;stroke:none"
         d="m 9,3 v 4 h 4 C 13,4.784 11.216,3 9,3 Z"
         id="path3895-9"
         inkscape:connector-curvature="0"
         class="ColorScheme-Text" />
      <path
         class="ColorScheme-ViewBackground"
         inkscape:connector-curvature="0"
         id="path4274"
         d="m 9,3 v 4 h 4 C 13,4.784 11.216,3 9,3 Z"
         style="opacity:0.2;fill:#00ffff;fill-opacity:1;fill-rule:evenodd;stroke:none" />
    </g>
    <g
       id="background-vertical-bottomleft"
       transform="matrix(-0.75,0,0,0.75,43.75,18.25)"
       inkscape:label="#slider-bottomleft-2"
       style="opacity:0;fill:#00ffff">
      <rect
         style="opacity:0.01;fill:#00ffff;fill-opacity:1;stroke:none"
         id="rect3874"
         width="4"
         height="4"
         x="33"
         y="31"
         transform="matrix(-1.3333333,0,0,1.3333333,58.333333,-24.333333)" />
      <path
         id="path3901-7"
         d="m 9,21 v -4 h 4 c 0,2.216 -1.784,4 -4,4 z"
         style="opacity:0.4;fill:#00ffff;fill-opacity:1;fill-rule:evenodd;stroke:none"
         inkscape:connector-curvature="0"
         class="ColorScheme-Text" />
      <path
         class="ColorScheme-ViewBackground"
         inkscape:connector-curvature="0"
         style="opacity:0.2;fill:#00ffff;fill-opacity:1;fill-rule:evenodd;stroke:none"
         d="m 9,21 v -4 h 4 c 0,2.216 -1.784,4 -4,4 z"
         id="path4280" />
    </g>
    <g
       transform="matrix(0,-0.75,-0.1,0,39.7,25.75)"
       id="background-vertical-top"
       inkscape:label="#slider-top-0"
       style="opacity:0;fill:#00ffff">
      <rect
         style="opacity:0.01;fill:#00ffff;fill-opacity:1;stroke:none"
         id="rect3866"
         width="1"
         height="4"
         x="38"
         y="15"
         transform="matrix(0,-10,-1.3333333,0,34.333333,397)" />
      <path
         inkscape:connector-curvature="0"
         id="path3909-8"
         d="m 9,7 v 10 h 4 V 7 Z"
         style="opacity:0.4;fill:#00ffff;fill-opacity:1;fill-rule:evenodd;stroke:none"
         class="ColorScheme-Text" />
      <path
         class="ColorScheme-ViewBackground"
         style="opacity:0.2;fill:#00ffff;fill-opacity:1;fill-rule:evenodd;stroke:none"
         d="m 9,7 v 10 h 4 V 7 Z"
         id="path4276"
         inkscape:connector-curvature="0" />
    </g>
    <g
       id="background-vertical-bottom"
       transform="matrix(0,0.75,-0.1,0,39.7,24.25)"
       inkscape:label="#slider-bottom-2"
       style="opacity:0;fill:#00ffff">
      <rect
         style="opacity:0.01;fill:#00ffff;fill-opacity:1;stroke:none"
         id="rect3876"
         width="1"
         height="4"
         x="38"
         y="31"
         transform="matrix(0,-10,1.3333333,0,-32.333333,397)" />
      <path
         style="opacity:0.4;fill:#00ffff;fill-opacity:1;fill-rule:evenodd;stroke:none"
         d="m 9,7 v 10 h 4 V 7 Z"
         id="path3915-5"
         inkscape:connector-curvature="0"
         class="ColorScheme-Text" />
      <path
         class="ColorScheme-ViewBackground"
         inkscape:connector-curvature="0"
         id="path4282"
         d="m 9,7 v 10 h 4 V 7 Z"
         style="opacity:0.2;fill:#00ffff;fill-opacity:1;fill-rule:evenodd;stroke:none" />
    </g>
    <rect
       style="opacity:1;fill:#00ffff;fill-opacity:1;fill-rule:evenodd;stroke:none;stroke-width:0.999999"
       id="sunken-slider-center"
       width="2"
       height="10"
       x="9"
       y="77"
       class="ColorScheme-ButtonHover"
       inkscape:label="#slider-center-6" />
    <g
       id="sunken-slider-right"
       transform="matrix(0.75,0,0,1,5.25,70)"
       inkscape:label="#slider-right-9"
       style="opacity:1;fill:#00ffff">
      <path
         id="rect3838-4-8"
         d="m 9,7 v 10 h 2 V 7 Z"
         style="fill:#00ffff;fill-opacity:1;fill-rule:evenodd;stroke:none;stroke-width:0.999995"
         inkscape:connector-curvature="0"
         class="ColorScheme-ButtonHover" />
      <rect
         style="opacity:0.01;fill:#00ffff;fill-opacity:1;stroke:none;stroke-width:1.1547"
         id="rect3924"
         width="16"
         height="10"
         x="9"
         y="7" />
    </g>
    <g
       id="g983">
      <g
         id="sunken-slider-topright"
         transform="matrix(0.75,0,0,0.75,5.25,70.749999)"
         inkscape:label="#slider-topright-4"
         style="opacity:1;fill:#00ffff">
        <rect
           style="opacity:0.01;fill:#00ffff;fill-opacity:1;stroke:none;stroke-width:1.33333"
           id="rect3920"
           width="16"
           height="16"
           x="9"
           y="-8.999999" />
        <path
           id="rect3840-2-9"
           d="m 9,5 v 2 h 2 C 11,5.892 10.108,5 9,5 Z"
           style="fill:#00ffff;fill-opacity:1;fill-rule:evenodd;stroke:none;stroke-width:0.999995"
           inkscape:connector-curvature="0"
           class="ColorScheme-ButtonHover" />
      </g>
    </g>
    <g
       id="sunken-slider-bottomright"
       transform="matrix(0.75,0,0,0.75,5.25,75.25)"
       inkscape:label="#slider-bottomright-7"
       style="opacity:1;fill:#00ffff">
      <rect
         style="opacity:0.01;fill:#00ffff;fill-opacity:1;stroke:none;stroke-width:1.33333"
         id="rect3930"
         width="16"
         height="16"
         x="8.999999"
         y="16.999998" />
      <path
         inkscape:connector-curvature="0"
         style="fill:#00ffff;fill-opacity:1;fill-rule:evenodd;stroke:none;stroke-width:0.999995"
         d="M 8.9999998,19 V 17 H 11 c 0,1.107999 -0.892001,2 -2.0000002,2 z"
         id="path3871-1-7"
         class="ColorScheme-ButtonHover" />
    </g>
    <g
       id="sunken-slider-left"
       transform="matrix(-0.75,0,0,1,14.750001,70)"
       inkscape:label="#slider-left-5"
       style="opacity:1;fill:#00ffff">
      <g
         id="g987"
         transform="translate(-1.333332)">
        <path
           style="fill:#00ffff;fill-opacity:1;fill-rule:evenodd;stroke:none;stroke-width:0.999995"
           d="m 11,7 v 10 h 2 V 7 Z"
           id="path3891-9-4"
           inkscape:connector-curvature="0"
           class="ColorScheme-ButtonHover" />
        <rect
           style="opacity:0.01;fill:#00ffff;fill-opacity:1;stroke:none;stroke-width:1.1547"
           id="rect3922"
           width="16"
           height="10"
           x="-27"
           y="7"
           transform="scale(-1,1)" />
      </g>
    </g>
    <g
       id="sunken-slider-topleft"
       transform="matrix(-0.75,0,0,0.75,14.250001,70.250002)"
       inkscape:label="#slider-topleft-2"
       style="opacity:1;fill:#00ffff">
      <g
         id="g973"
         transform="translate(-12,10)">
        <rect
           style="opacity:0.01;fill:#00ffff;fill-opacity:1;stroke:none;stroke-width:1.33333"
           id="rect3916"
           width="16"
           height="16"
           x="-37"
           y="-18.333336"
           transform="scale(-1,1)" />
        <path
           style="fill:#00ffff;fill-opacity:1;fill-rule:evenodd;stroke:none;stroke-width:0.999995"
           d="m 21.000001,-4.333336 v 2 h 2 c 0,-1.1080001 -0.891998,-2 -2,-2 z"
           id="path3895-2-1"
           inkscape:connector-curvature="0"
           class="ColorScheme-ButtonHover" />
      </g>
    </g>
    <g
       id="sunken-slider-bottomleft"
       transform="matrix(-0.75,0,0,0.75,13.75,75.25)"
       inkscape:label="#slider-bottomleft-5"
       style="opacity:1;fill:#00ffff">
      <g
         id="g991">
        <rect
           style="opacity:0.01;fill:#00ffff;fill-opacity:1;stroke:none;stroke-width:1.33333"
           id="rect3926"
           width="16"
           height="16"
           x="-25.666666"
           y="17"
           transform="scale(-1,1)" />
        <path
           id="path3901-9-9"
           d="m 9.6666667,19 v -2 h 2.0000003 c 0,1.107999 -0.891998,2 -2.0000003,2 z"
           style="fill:#00ffff;fill-opacity:1;fill-rule:evenodd;stroke:none;stroke-width:0.999992"
           inkscape:connector-curvature="0"
           class="ColorScheme-ButtonHover" />
      </g>
    </g>
    <g
       id="g978"
       transform="translate(-10.714286,2.000001)">
      <g
         transform="matrix(0,-0.75,-0.02857143,0,18.485714,80.750001)"
         id="sunken-slider-top"
         inkscape:label="#slider-top-5"
         style="opacity:1;fill:#00ffff;stroke-width:1.87083">
        <rect
           style="opacity:0.01;fill:#00ffff;fill-opacity:1;stroke:none;stroke-width:6.8313"
           id="rect3918"
           width="70"
           height="16"
           x="43.000004"
           y="-25.000002"
           transform="matrix(0,-1,-1,0,0,0)" />
        <path
           inkscape:connector-curvature="0"
           id="path3909-6-1"
           d="m 9.0000027,-113.00001 v 69.999989 h 2.0000003 v -69.999989 z"
           style="fill:#00ffff;fill-opacity:1;fill-rule:evenodd;stroke:none;stroke-width:1.87083"
           class="ColorScheme-ButtonHover" />
      </g>
    </g>
    <g
       id="sunken-slider-bottom"
       transform="matrix(0,0.75,-0.1,0,10.7,81.25)"
       inkscape:label="#slider-bottom-0"
       style="opacity:1;fill:#00ffff">
      <rect
         style="opacity:0.01;fill:#00ffff;fill-opacity:1;stroke:none;stroke-width:3.65148"
         id="rect3928"
         width="20"
         height="16"
         x="-17"
         y="8.9999971"
         transform="rotate(-90)" />
      <path
         style="fill:#00ffff;fill-opacity:1;fill-rule:evenodd;stroke:none;stroke-width:0.999995"
         d="m 9.0000004,-3.000002 v 20 h 2.1333336 v -20 z"
         id="path3915-6-3"
         inkscape:connector-curvature="0"
         class="ColorScheme-ButtonHover" />
    </g>
    <rect
       inkscape:label="#slider-center-6"
       class="ColorScheme-ButtonHover"
       y="42"
       x="24"
       height="10"
       width="2"
       id="mouseover-slider-center"
       style="opacity:1;fill:#007d7d;fill-opacity:1;fill-rule:evenodd;stroke:none;stroke-width:0.999999" />
    <g
       inkscape:label="#slider-right-9"
       transform="matrix(0.75,0,0,1,20.25,35)"
       id="mouseover-slider-right"
       style="opacity:1;fill:#00ffff">
      <path
         class="ColorScheme-ButtonHover"
         inkscape:connector-curvature="0"
         style="opacity:1;fill:#00ffff;fill-opacity:1;fill-rule:evenodd;stroke:none;stroke-width:0.999992"
         d="M 9.0000002,7 V 17 H 11 V 7 Z"
         id="path3963" />
      <rect
         y="7"
         x="9"
         height="10"
         width="16"
         id="rect3965"
         style="opacity:0.01;fill:#00ffff;fill-opacity:1;stroke:none;stroke-width:1.1547" />
    </g>
    <g
       inkscape:label="#slider-topright-4"
       transform="matrix(0.75,0,0,0.75,21.250001,24.75)"
       id="mouseover-slider-topright"
       style="opacity:1;fill:#00ffff">
      <rect
         y="5.6666679"
         x="6.999999"
         height="16"
         width="16"
         id="rect3969"
         style="opacity:0.01;fill:#00ffff;fill-opacity:1;stroke:none;stroke-width:1.33333" />
      <path
         class="ColorScheme-ButtonHover"
         inkscape:connector-curvature="0"
         style="opacity:1;fill:#00ffff;fill-opacity:1;fill-rule:evenodd;stroke:none;stroke-width:0.999995"
         d="m 6.999999,19.666667 v 2 h 1.9999997 c 0,-1.108 -0.892001,-2 -1.9999997,-2 z"
         id="path3971" />
    </g>
    <g
       inkscape:label="#slider-bottomright-7"
       transform="matrix(0.75,0,0,0.75,20.25,40.75)"
       id="mouseover-slider-bottomright"
       style="opacity:1;fill:#00ffff">
      <rect
         y="17"
         x="8.999999"
         height="16"
         width="16"
         id="rect3975"
         style="opacity:0.01;fill:#00ffff;fill-opacity:1;stroke:none;stroke-width:1.33333" />
      <path
         class="ColorScheme-ButtonHover"
         id="path3977"
         d="m 9,19 v -2 h 2 c 0,1.107999 -0.892,2 -2,2 z"
         style="opacity:1;fill:#00ffff;fill-opacity:1;fill-rule:evenodd;stroke:none;stroke-width:0.999995"
         inkscape:connector-curvature="0" />
    </g>
    <g
       inkscape:label="#slider-left-5"
       transform="matrix(-0.75,0,0,1,29.750001,35)"
       id="mouseover-slider-left"
       style="opacity:1;fill:#00ffff">
      <path
         class="ColorScheme-ButtonHover"
         inkscape:connector-curvature="0"
         id="path3981"
         d="M 9.0000013,7 V 17 H 11.000001 V 7 Z"
         style="opacity:1;fill:#00ffff;fill-opacity:1;fill-rule:evenodd;stroke:none;stroke-width:0.999992" />
      <rect
         transform="scale(-1,1)"
         y="7"
         x="-25.000002"
         height="10"
         width="16"
         id="rect3983"
         style="opacity:0.01;fill:#00ffff;fill-opacity:1;stroke:none;stroke-width:1.1547" />
    </g>
    <g
       inkscape:label="#slider-topleft-2"
       transform="matrix(-0.75,0,0,0.75,29.750001,35.75)"
       id="mouseover-slider-topleft"
       style="opacity:1;fill:#00ffff">
      <rect
         transform="scale(-1,1)"
         y="-9"
         x="-25.000002"
         height="16"
         width="16"
         id="rect3987"
         style="opacity:0.01;fill:#00ffff;fill-opacity:1;stroke:none;stroke-width:1.33333" />
      <path
         class="ColorScheme-ButtonHover"
         inkscape:connector-curvature="0"
         id="path3989"
         d="m 9.0000013,5 v 2 h 1.9999997 c 0,-1.108 -0.891998,-2 -1.9999997,-2 z"
         style="opacity:1;fill:#00ffff;fill-opacity:1;fill-rule:evenodd;stroke:none;stroke-width:0.999995" />
    </g>
    <g
       inkscape:label="#slider-bottomleft-5"
       transform="matrix(-0.75,0,0,0.75,31.25,40.25)"
       id="mouseover-slider-bottomleft"
       style="opacity:1;fill:#00ffff">
      <rect
         transform="scale(-1,1)"
         y="17"
         x="-27"
         height="16"
         width="16"
         id="rect3993"
         style="opacity:0.01;fill:#00ffff;fill-opacity:1;stroke:none;stroke-width:1.33333" />
      <path
         class="ColorScheme-ButtonHover"
         inkscape:connector-curvature="0"
         style="opacity:1;fill:#00ffff;fill-opacity:1;fill-rule:evenodd;stroke:none;stroke-width:0.999992"
         d="m 11,19 v -2 h 2 c 0,1.107999 -0.891998,2 -2,2 z"
         id="path3995" />
    </g>
    <g
       inkscape:label="#slider-top-5"
       id="mouseover-slider-top"
       transform="matrix(0,-2.2500001,-0.19,0,26.23,57.750006)"
       style="opacity:1;fill:#00ffff;stroke-width:0.418854">
      <rect
         transform="matrix(0,-1,-1,0,0,0)"
         y="-13.444447"
         x="-11.736842"
         height="5.333333"
         width="10"
         id="rect3999"
         style="opacity:0.01;fill:#00ffff;fill-opacity:1;stroke:none;stroke-width:1.52944" />
      <path
         class="ColorScheme-ButtonHover"
         style="opacity:1;fill:#00ffff;fill-opacity:1;fill-rule:evenodd;stroke:none;stroke-width:0.418853"
         d="M 8.1111135,1.2105268 V 11.736842 H 8.7777801 V 1.2105268 Z"
         id="path4001"
         inkscape:connector-curvature="0" />
    </g>
    <g
       inkscape:label="#slider-bottom-0"
       transform="matrix(0,0.75,-0.2,0,27.5,46.75)"
       id="mouseover-slider-bottom"
       style="opacity:1;fill:#00ffff;stroke-width:0.707107">
      <rect
         transform="rotate(-90)"
         y="9"
         x="-17"
         height="16"
         width="10"
         id="rect4005"
         style="opacity:0.01;fill:#00ffff;fill-opacity:1;stroke:none;stroke-width:2.58199" />
      <path
         class="ColorScheme-ButtonHover"
         inkscape:connector-curvature="0"
         id="path4007"
         d="m 9,7 v 10 h 2 V 7 Z"
         style="opacity:1;fill:#00ffff;fill-opacity:1;fill-rule:evenodd;stroke:none;stroke-width:0.707103" />
    </g>
    <g
       id="background-vertical-center"
       style="opacity:0;fill:#006464;fill-opacity:1">
      <rect
         inkscape:label="#slider-center-1"
         class="ColorScheme-Text"
         y="20"
         x="38"
         height="10"
         width="1"
         id="rect4272"
         style="opacity:0.4;fill:#006464;fill-opacity:1;fill-rule:evenodd;stroke:none" />
      <rect
         style="opacity:0.2;fill:#006464;fill-opacity:1;fill-rule:evenodd;stroke:none"
         id="rect4266"
         width="1"
         height="10"
         x="38"
         y="20"
         class="ColorScheme-ViewBackground"
         inkscape:label="#slider-center-1" />
    </g>
    <g
       inkscape:label="#slider-right-1"
       transform="matrix(0.75,0,0,1,33.250001,35)"
       id="background-horizontal-right"
       style="opacity:0;fill:#00ffff">
      <path
         class="ColorScheme-Text"
         inkscape:connector-curvature="0"
         style="opacity:0.4;fill:#00ffff;fill-opacity:1;fill-rule:evenodd;stroke:none"
         d="m 9,7 v 10 h 4 V 7 Z"
         id="path4288" />
      <rect
         transform="matrix(1.3333333,0,0,1,-44.333333,-13)"
         y="20"
         x="43"
         height="10"
         width="1"
         id="rect4290"
         style="opacity:0.01;fill:#00ffff;fill-opacity:1;stroke:none" />
      <path
         id="path4292"
         d="m 9,7 v 10 h 4 V 7 Z"
         style="opacity:0.2;fill:#00ffff;fill-opacity:1;fill-rule:evenodd;stroke:none"
         inkscape:connector-curvature="0"
         class="ColorScheme-ViewBackground" />
    </g>
    <g
       inkscape:label="#slider-topright-5"
       transform="matrix(0.75,0,0,0.75,33.250001,35.750001)"
       id="background-horizontal-topright"
       style="opacity:0;fill:#00ffff">
      <rect
         transform="matrix(1.3333333,0,0,1.3333333,-44.333333,-18.333333)"
         y="15"
         x="40"
         height="4"
         width="4"
         id="rect4296"
         style="opacity:0.01;fill:#00ffff;fill-opacity:1;stroke:none" />
      <path
         class="ColorScheme-Text"
         inkscape:connector-curvature="0"
         style="opacity:0.4;fill:#00ffff;fill-opacity:1;fill-rule:evenodd;stroke:none"
         d="m 9,3 v 4 h 4 C 13,4.784 11.216,3 9,3 Z"
         id="path4298" />
      <path
         id="path4300"
         d="m 9,3 v 4 h 4 C 13,4.784 11.216,3 9,3 Z"
         style="opacity:0.2;fill:#00ffff;fill-opacity:1;fill-rule:evenodd;stroke:none"
         inkscape:connector-curvature="0"
         class="ColorScheme-ViewBackground" />
    </g>
    <g
       inkscape:label="#slider-bottomright-2"
       transform="matrix(0.75,0,0,0.75,33.250001,40.250001)"
       id="background-horizontal-bottomright"
       style="opacity:0;fill:#00ffff">
      <rect
         transform="matrix(1.3333333,0,0,1.3333333,-44.333333,-24.333333)"
         y="31"
         x="40"
         height="4"
         width="4"
         id="rect4304"
         style="opacity:0.01;fill:#00ffff;fill-opacity:1;stroke:none" />
      <path
         class="ColorScheme-Text"
         id="path4306"
         d="m 9,21 v -4 h 4 c 0,2.216 -1.784,4 -4,4 z"
         style="opacity:0.4;fill:#00ffff;fill-opacity:1;fill-rule:evenodd;stroke:none"
         inkscape:connector-curvature="0" />
      <path
         inkscape:connector-curvature="0"
         style="opacity:0.2;fill:#00ffff;fill-opacity:1;fill-rule:evenodd;stroke:none"
         d="m 9,21 v -4 h 4 c 0,2.216 -1.784,4 -4,4 z"
         id="path4308"
         class="ColorScheme-ViewBackground" />
    </g>
    <g
       transform="matrix(-0.75,0,0,1,43.750001,35.000001)"
       id="background-horizontal-left"
       style="opacity:0;fill:#00ffff">
      <path
         class="ColorScheme-Text"
         inkscape:connector-curvature="0"
         id="path4312"
         d="m 9,7 v 10 h 4 V 7 Z"
         style="opacity:0.4;fill:#00ffff;fill-opacity:1;fill-rule:evenodd;stroke:none" />
      <rect
         transform="matrix(-1.3333333,0,0,1,58.333333,-13)"
         y="20"
         x="33"
         height="10"
         width="1"
         id="rect4314"
         style="opacity:0.01;fill:#00ffff;fill-opacity:1;stroke:none" />
      <path
         style="opacity:0.2;fill:#00ffff;fill-opacity:1;fill-rule:evenodd;stroke:none"
         d="m 9,7 v 10 h 4 V 7 Z"
         id="path4316"
         inkscape:connector-curvature="0"
         class="ColorScheme-ViewBackground" />
    </g>
    <g
       inkscape:label="#slider-topleft-8"
       transform="matrix(-0.75,0,0,0.75,43.750001,35.750001)"
       id="background-horizontal-topleft"
       style="opacity:0;fill:#00ffff">
      <rect
         transform="matrix(-1.3333333,0,0,1.3333333,58.333333,-18.333333)"
         y="15"
         x="33"
         height="4"
         width="4"
         id="rect4320"
         style="opacity:0.01;fill:#00ffff;fill-opacity:1;stroke:none" />
      <path
         class="ColorScheme-Text"
         inkscape:connector-curvature="0"
         id="path4322"
         d="m 9,3 v 4 h 4 C 13,4.784 11.216,3 9,3 Z"
         style="opacity:0.4;fill:#00ffff;fill-opacity:1;fill-rule:evenodd;stroke:none" />
      <path
         style="opacity:0.2;fill:#00ffff;fill-opacity:1;fill-rule:evenodd;stroke:none"
         d="m 9,3 v 4 h 4 C 13,4.784 11.216,3 9,3 Z"
         id="path4324"
         inkscape:connector-curvature="0"
         class="ColorScheme-ViewBackground" />
    </g>
    <g
       inkscape:label="#slider-bottomleft-2"
       transform="matrix(-0.75,0,0,0.75,43.750001,40.250001)"
       id="background-horizontal-bottomleft"
       style="opacity:0;fill:#00ffff">
      <rect
         transform="matrix(-1.3333333,0,0,1.3333333,58.333333,-24.333333)"
         y="31"
         x="33"
         height="4"
         width="4"
         id="rect4328"
         style="opacity:0.01;fill:#00ffff;fill-opacity:1;stroke:none" />
      <path
         class="ColorScheme-Text"
         inkscape:connector-curvature="0"
         style="opacity:0.4;fill:#00ffff;fill-opacity:1;fill-rule:evenodd;stroke:none"
         d="m 9,21 v -4 h 4 c 0,2.216 -1.784,4 -4,4 z"
         id="path4330" />
      <path
         id="path4332"
         d="m 9,21 v -4 h 4 c 0,2.216 -1.784,4 -4,4 z"
         style="opacity:0.2;fill:#00ffff;fill-opacity:1;fill-rule:evenodd;stroke:none"
         inkscape:connector-curvature="0"
         class="ColorScheme-ViewBackground" />
    </g>
    <g
       inkscape:label="#slider-top-0"
       id="background-horizontal-top"
       transform="matrix(0,-0.75,-0.1,0,39.700001,47.750001)"
       style="opacity:0;fill:#00ffff">
      <rect
         transform="matrix(0,-10,-1.3333333,0,34.333333,397)"
         y="15"
         x="38"
         height="4"
         width="1"
         id="rect4336"
         style="opacity:0.01;fill:#00ffff;fill-opacity:1;stroke:none" />
      <path
         class="ColorScheme-Text"
         style="opacity:0.4;fill:#00ffff;fill-opacity:1;fill-rule:evenodd;stroke:none"
         d="m 9,7 v 10 h 4 V 7 Z"
         id="path4338"
         inkscape:connector-curvature="0" />
      <path
         inkscape:connector-curvature="0"
         id="path4340"
         d="m 9,7 v 10 h 4 V 7 Z"
         style="opacity:0.2;fill:#00ffff;fill-opacity:1;fill-rule:evenodd;stroke:none"
         class="ColorScheme-ViewBackground" />
    </g>
    <g
       inkscape:label="#slider-bottom-2"
       transform="matrix(0,0.75,-0.1,0,39.700001,46.250001)"
       id="background-horizontal-bottom"
       style="opacity:0;fill:#00ffff">
      <rect
         transform="matrix(0,-10,1.3333333,0,-32.333333,397)"
         y="31"
         x="38"
         height="4"
         width="1"
         id="rect4344"
         style="opacity:0.01;fill:#00ffff;fill-opacity:1;stroke:none" />
      <path
         class="ColorScheme-Text"
         inkscape:connector-curvature="0"
         id="path4346"
         d="m 9,7 v 10 h 4 V 7 Z"
         style="opacity:0.4;fill:#00ffff;fill-opacity:1;fill-rule:evenodd;stroke:none" />
      <path
         style="opacity:0.2;fill:#00ffff;fill-opacity:1;fill-rule:evenodd;stroke:none"
         d="m 9,7 v 10 h 4 V 7 Z"
         id="path4348"
         inkscape:connector-curvature="0"
         class="ColorScheme-ViewBackground" />
    </g>
    <g
       id="background-horizontal-center"
       transform="translate(9.35e-7,22.000001)"
       style="opacity:0;fill:#007d7d">
      <rect
         style="opacity:0.4;fill:#007d7d;fill-opacity:1;fill-rule:evenodd;stroke:none"
         id="rect4352"
         width="1"
         height="10"
         x="38"
         y="20"
         class="ColorScheme-Text"
         inkscape:label="#slider-center-1" />
      <rect
         inkscape:label="#slider-center-1"
         class="ColorScheme-ViewBackground"
         y="20"
         x="38"
         height="10"
         width="1"
         id="rect4354"
         style="opacity:0.2;fill:#007d7d;fill-opacity:1;fill-rule:evenodd;stroke:none" />
    </g>
  </g>
</svg>
