<?xml version="1.0" encoding="UTF-8" standalone="no"?>
<!-- Created with Inkscape (http://www.inkscape.org/) -->

<svg
   width="108"
   height="108"
   viewBox="0 0 108 108"
   version="1.1"
   id="svg8"
   inkscape:version="1.1.2 (0a00cf5339, 2022-02-04, custom)"
   sodipodi:docname="tooltip.svg"
   xmlns:inkscape="http://www.inkscape.org/namespaces/inkscape"
   xmlns:sodipodi="http://sodipodi.sourceforge.net/DTD/sodipodi-0.dtd"
   xmlns="http://www.w3.org/2000/svg"
   xmlns:svg="http://www.w3.org/2000/svg">
  <sodipodi:namedview
     id="namedview35"
     pagecolor="#ffffff"
     bordercolor="#666666"
     borderopacity="1.0"
     inkscape:pageshadow="2"
     inkscape:pageopacity="0.0"
     inkscape:pagecheckerboard="0"
     showgrid="false"
     inkscape:zoom="9.2172518"
     inkscape:cx="49.85217"
     inkscape:cy="55.439518"
     inkscape:window-width="1320"
     inkscape:window-height="738"
     inkscape:window-x="0"
     inkscape:window-y="0"
     inkscape:window-maximized="1"
     inkscape:current-layer="layer1" />
  <defs
     id="defs2" />
  <style
     id="current-color-scheme"
     type="text/css">
      .ColorScheme-Background{
        color:#1A1E24;
      }
      .ColorScheme-Highlight{
        color:#F9F9F9;
      }
  </style>
  <g
     inkscape:label="Layer 1"
     inkscape:groupmode="layer"
     id="layer1"
     transform="translate(-122.85715,-448.80536)">
    <rect
       y="478.80536"
       x="152.85715"
       height="48"
       width="48"
       id="center"
       class="ColorScheme-Background"
       style="fill:#000f0f" />
    <g
       id="top"
       inkscape:label="#g900"
       style="fill:#00ffff;stroke-width:1.58114"
       transform="matrix(1,0,0,0.4,3.0517578e-5,287.28322)">
      <rect
         style="fill:#00ffff;stroke-width:1.58114"
         class="ColorScheme-Background"
         id="rect834"
         width="48"
         height="5"
         x="152.85715"
         y="473.80536" />
      <path
         class="ColorScheme-Highlight"
         style="fill:#00ffff;stroke-width:1.58114"
         d="m 152.85715,473.80536 v 0.48438 0.51562 0.48438 h 48 v -0.48438 -0.51562 -0.48438 z"
         id="rect825"
         inkscape:connector-curvature="0" />
    </g>
    <g
       id="topleft"
       inkscape:label="#g895"
       style="fill:#00ffff;stroke-width:2.49999"
       transform="matrix(0.39999978,0,0,0.39999991,91.714354,287.28326)">
      <rect
         y="147.85715"
         x="473.80536"
         height="5"
         width="5"
         id="rect1670"
         class="ColorScheme-Background"
         style="fill:#00ffff;stroke-width:2.49999"
         transform="matrix(0,1,1,0,0,0)" />
      <path
         style="fill:#00ffff;stroke-width:2.49999"
         class="ColorScheme-Highlight"
         d="m 147.85715,473.80536 v 1 4 h 0.48047 0.51953 0.48047 v -3.51562 h 3.51953 v -1 -0.48438 z"
         id="rect1672"
         inkscape:connector-curvature="0" />
    </g>
    <rect
       y="475.1073"
       x="176.18297"
       height="5"
       width="2"
       id="hint-top-margin"
       style="fill:#00ff00;stroke-width:1" />
    <g
       id="bottom"
       inkscape:label="#g936"
       style="fill:#00ffff;stroke-width:1.58114"
       transform="matrix(1,0,0,0.39999991,0,316.08326)">
      <rect
         transform="scale(-1)"
         style="fill:#00ffff;stroke-width:1.58114"
         class="ColorScheme-Background"
         id="rect834-5"
         width="48"
         height="5"
         x="-200.85715"
         y="-531.80536" />
      <path
         style="fill:#00ffff;stroke-width:1.58114"
         class="ColorScheme-Highlight"
         d="m 152.85715,530.32099 v 0.48437 0.51563 0.48437 h 48 v -0.48437 -0.51563 -0.48437 z"
         id="rect825-6"
         inkscape:connector-curvature="0" />
    </g>
    <rect
       style="fill:#00ff00;stroke-width:1"
       id="hint-bottom-margin"
       width="2"
       height="5"
       x="177.39926"
       y="525.17798" />
    <g
       id="right"
       inkscape:label="#g912"
       style="fill:#00ffff;stroke-width:1.58114"
       transform="matrix(0.4,0,0,1,120.51431,0)">
      <rect
         transform="rotate(90)"
         style="fill:#00ffff;stroke-width:1.58114"
         class="ColorScheme-Background"
         id="rect834-1"
         width="48"
         height="5"
         x="478.80536"
         y="-205.85718" />
      <path
         style="fill:#00ffff;stroke-width:1.58114"
         class="ColorScheme-Highlight"
         d="m 204.37277,478.80536 v 48 h 0.48438 0.51562 0.48438 v -48 h -0.48438 -0.51562 z"
         id="rect825-2"
         inkscape:connector-curvature="0" />
    </g>
    <rect
       y="501.15475"
       x="199.12129"
       height="2"
       width="5"
       id="hint-right-margin"
       style="fill:#00ff00;stroke-width:1" />
    <g
       id="left"
       inkscape:label="#g931"
       style="fill:#00ffff;stroke-width:1.58114"
       transform="matrix(0.4,0,0,1,91.714288,0)">
      <rect
         transform="rotate(-90)"
         style="fill:#00ffff;stroke-width:1.58114"
         class="ColorScheme-Background"
         id="rect834-6"
         width="48"
         height="5"
         x="-526.80536"
         y="147.85715" />
      <path
         style="fill:#00ffff;stroke-width:1.58114"
         class="ColorScheme-Highlight"
         d="M 25,30 V 78 H 25.484375 26 26.484375 V 30 H 26 25.484375 Z"
         transform="translate(122.85715,448.80536)"
         id="rect825-7" />
    </g>
    <rect
       style="fill:#00ff00;stroke-width:1"
       id="hint-left-margin"
       width="5"
       height="2"
       x="149.48454"
       y="501.50308" />
    <g
       id="topright"
       inkscape:label="#g907"
       style="fill:#00ffff">
      <rect
         y="476.80536"
         x="-202.85718"
         height="2"
         width="2"
         id="rect1670-9"
         class="ColorScheme-Background"
         style="fill:#00ffff;stroke-width:1"
         transform="scale(-1,1)" />
    </g>
    <g
       id="bottomright"
       inkscape:label="#g919"
       style="fill:#00ffff;stroke-width:2.50019"
       transform="matrix(0.39993915,0,0,0.39999991,120.523,316.08326)">
      <rect
         y="-205.85205"
         x="-531.80536"
         height="5"
         width="5"
         id="rect1670-6"
         class="ColorScheme-Background"
         style="fill:#00ffff;stroke-width:2.50019"
         transform="matrix(0,-1,-1,0,0,0)" />
      <path
         style="fill:#00ffff;stroke-width:2.50019"
         class="ColorScheme-Highlight"
         d="m 204.37277,526.80536 v 3.51563 h -3.52148 v 1 0.48437 h 5 v -1 -4 h -0.47852 -0.52148 z"
         id="rect1672-1"
         inkscape:connector-curvature="0" />
    </g>
    <g
       id="bottomleft"
       inkscape:label="#g926"
       style="fill:#00ffff;stroke-width:2.5"
       transform="matrix(0.39999978,0,0,0.39999991,91.714323,316.08326)">
      <rect
         y="-531.80536"
         x="147.85715"
         height="5"
         width="5"
         id="rect1670-2"
         class="ColorScheme-Background"
         style="fill:#00ffff;stroke-width:2.5"
         transform="scale(1,-1)" />
      <path
         class="ColorScheme-Highlight"
         style="fill:#00ffff;stroke-width:2.5"
         d="m 147.85715,526.80536 v 5 h 1 4 v -0.48047 -0.51953 -0.48047 h -3.51563 v -3.51953 h -0.48437 z"
         id="rect1672-37"
         inkscape:connector-curvature="0" />
    </g>
  </g>
</svg>
