<?xml version="1.0" encoding="UTF-8" standalone="no"?>
<!-- Generator: Adobe Illustrator 24.1.1, SVG Export Plug-In . SVG Version: 6.00 Build 0)  -->

<svg
   version="1.1"
   id="Layer_1"
   x="0px"
   y="0px"
   viewBox="0 0 512 512"
   style="enable-background:new 0 0 512 512;"
   xml:space="preserve"
   sodipodi:docname="Gear-01.svg"
   inkscape:version="1.2 (dc2aedaf03, 2022-05-15)"
   xmlns:inkscape="http://www.inkscape.org/namespaces/inkscape"
   xmlns:sodipodi="http://sodipodi.sourceforge.net/DTD/sodipodi-0.dtd"
   xmlns="http://www.w3.org/2000/svg"
   xmlns:svg="http://www.w3.org/2000/svg"><defs
   id="defs7381">
	
</defs><sodipodi:namedview
   id="namedview7379"
   pagecolor="#ffffff"
   bordercolor="#000000"
   borderopacity="0.25"
   inkscape:showpageshadow="2"
   inkscape:pageopacity="0.0"
   inkscape:pagecheckerboard="0"
   inkscape:deskcolor="#d1d1d1"
   showgrid="false"
   inkscape:zoom="1.1367188"
   inkscape:cx="233.12715"
   inkscape:cy="256"
   inkscape:window-width="1308"
   inkscape:window-height="768"
   inkscape:window-x="0"
   inkscape:window-y="0"
   inkscape:window-maximized="1"
   inkscape:current-layer="Layer_1" />
<style
   type="text/css"
   id="style7374">
	.st0{fill:#333333;}
</style>
<path
   id="XMLID_6_"
   class="st0"
   d="m 512,219.8 v 73.3 c 0,2.8 -0.9,5.6 -2.8,7.4 -1.9,2.8 -3.7,3.7 -6.5,4.6 l -61.2,9.3 c -4.6,12.1 -8.3,22.3 -13,30.6 7.4,11.1 19.5,26 35.2,45.4 1.9,2.8 3.7,5.6 3.7,8.3 0,2.8 -0.9,5.6 -2.8,7.4 -5.6,8.3 -16.7,20.4 -32.5,36.2 -15.8,15.8 -26,23.2 -31.5,23.2 -2.8,0 -5.6,-0.9 -8.3,-2.8 l -45.4,-36.2 c -10.2,4.6 -19.5,9.3 -30.6,13 -3.7,29.7 -6.5,51 -9.3,62.1 -1.9,6.5 -5.6,9.3 -12.1,9.3 h -75.1 c -2.8,0 -5.6,-0.9 -8.3,-2.8 -2.8,-1.9 -3.7,-4.6 -3.7,-7.4 l -9.3,-61.2 c -11.1,-3.7 -20.4,-7.4 -29.7,-12.1 l -46.4,35.2 c -1.9,1.9 -4.6,2.8 -8.3,2.8 -2.8,0 -5.6,-0.9 -8.3,-3.7 C 78,436.7 59.4,418.1 51.1,406 c -1.9,-1.9 -2.8,-4.6 -2.8,-7.4 0,-2.8 0.9,-5.6 2.8,-7.4 3.7,-4.6 9.3,-12.1 16.7,-22.3 8.3,-10.2 13.9,-17.6 17.6,-23.2 C 79.8,334.6 75.2,323.4 71.5,313.2 L 10.3,303.9 C 7.5,303.9 4.7,302 2.9,300.2 1,297.4 0.1,295.6 0.1,292.8 v -74.2 c 0,-2.8 0.9,-5.6 2.8,-7.4 1.9,-2.8 3.7,-3.7 6.5,-4.6 l 62.1,-9.3 c 2.8,-10.2 7.4,-20.4 13,-30.6 -9.3,-13 -20.4,-27.8 -35.2,-45.4 -1.9,-2.8 -3.7,-5.6 -3.7,-8.3 0,-1.9 0.9,-4.6 2.8,-7.4 5.6,-8.3 16.7,-19.5 32.5,-35.2 15.8,-15.7 26.9,-24.1 31.5,-24.1 2.8,0 5.6,0.9 8.3,3.7 L 166,85.3 c 10.2,-4.6 19.5,-9.3 30.6,-13 3.7,-29.7 6.5,-51 9.3,-62.1 1.9,-6.5 5.6,-9.3 12.1,-9.3 h 76 c 2.8,0 5.6,0.9 8.3,2.8 2.8,1.9 3.7,4.6 3.7,7.4 l 9.3,61.2 c 11.1,3.7 20.4,7.4 29.7,12.1 l 47.3,-35.2 c 1.9,-1.9 4.6,-2.8 8.3,-2.8 2.8,0 5.6,0.9 8.3,3.7 28.8,26 46.4,45.4 54.7,56.6 1.9,1.9 2.8,4.6 2.8,7.4 0,2.8 -0.9,5.6 -2.8,7.4 -3.7,4.6 -9.3,12.1 -16.7,22.3 -8.3,10.2 -13.9,17.6 -17.6,23.2 5.6,11.1 10.2,22.3 13.9,32.5 l 61.2,9.3 c 2.8,0 5.6,1.9 7.4,3.7 -0.7,1.8 0.2,4.5 0.2,7.3 z"
   style="fill:none;stroke:#00ffff;stroke-width:5;stroke-dasharray:none;stroke-opacity:1"
   sodipodi:nodetypes="sscccccscssccccsscccccsccsccccccsscccccscssccccsscccccsccsccccccs" />
</svg>
