<?xml version="1.0" encoding="UTF-8" standalone="no"?>
<svg viewBox="0 0 50 50"
 xmlns="http://www.w3.org/2000/svg" xmlns:xlink="http://www.w3.org/1999/xlink"  version="1.2" baseProfile="tiny">
<title>Qt SVG Document</title>
<desc>Generated with Qt</desc>
<defs>
</defs>
<g fill="none" stroke="black" stroke-width="1" fill-rule="evenodd" stroke-linecap="square" stroke-linejoin="bevel" >

<g fill="#000000" fill-opacity="1" stroke="none" transform="matrix(4.16667,0,0,4.16667,-50.5414,0)"
font-family="Conthrax" font-size="10" font-weight="400" font-style="normal" 
>
<rect x="12.1299" y="0" width="12" height="12"/>
</g>

<g fill="#004b4b" fill-opacity="1" stroke="none" transform="matrix(4.16667,0,0,4.16667,-50.5414,0)"
font-family="Conthrax" font-size="10" font-weight="400" font-style="normal" 
>
<rect x="13.1299" y="1" width="10" height="10"/>
</g>

<g fill="#00ffff" fill-opacity="1" stroke="none" transform="matrix(4.16667,0,0,4.16667,-50.5414,0)"
font-family="Conthrax" font-size="10" font-weight="400" font-style="normal" 
>
<rect x="13.1299" y="1" width="0.5" height="10"/>
</g>

<g fill="#00ffff" fill-opacity="1" stroke="none" transform="matrix(4.16667,0,0,4.16667,-50.5414,0)"
font-family="Conthrax" font-size="10" font-weight="400" font-style="normal" 
>
<rect x="22.6299" y="1" width="0.5" height="10"/>
</g>

<g fill="#00ffff" fill-opacity="1" stroke="none" transform="matrix(4.16667,0,0,4.16667,-50.5414,0)"
font-family="Conthrax" font-size="10" font-weight="400" font-style="normal" 
>
<rect x="13.1299" y="1" width="10" height="0.499999"/>
</g>

<g fill="#00ffff" fill-opacity="1" stroke="none" transform="matrix(4.16667,0,0,-4.16667,-50.5414,0)"
font-family="Conthrax" font-size="10" font-weight="400" font-style="normal" 
>
<rect x="15.1299" y="-9" width="6" height="0.499999"/>
</g>

<g fill="#00ffff" fill-opacity="1" stroke="none" transform="matrix(4.16667,0,0,4.16667,-50.5414,0)"
font-family="Conthrax" font-size="10" font-weight="400" font-style="normal" 
>
<rect x="15.1299" y="3" width="6" height="0.499999"/>
</g>

<g fill="#00ffff" fill-opacity="1" stroke="none" transform="matrix(-4.16667,0,0,4.16667,-50.5414,0)"
font-family="Conthrax" font-size="10" font-weight="400" font-style="normal" 
>
<rect x="-15.5799" y="3" width="0.499999" height="6"/>
</g>

<g fill="#00ffff" fill-opacity="1" stroke="none" transform="matrix(4.16667,0,0,4.16667,-50.5414,0)"
font-family="Conthrax" font-size="10" font-weight="400" font-style="normal" 
>
<rect x="20.6299" y="3" width="0.499999" height="6"/>
</g>

<g fill="#00ffff" fill-opacity="1" stroke="none" transform="matrix(4.16667,0,0,4.16667,-50.5414,0)"
font-family="Conthrax" font-size="10" font-weight="400" font-style="normal" 
>
<rect x="13.1299" y="10.5" width="10" height="0.499999"/>
</g>

<g fill="none" stroke="#000000" stroke-opacity="1" stroke-width="1" stroke-linecap="square" stroke-linejoin="bevel" transform="matrix(1,0,0,1,0,0)"
font-family="Conthrax" font-size="10" font-weight="400" font-style="normal" 
>
</g>
</g>
</svg>
