<?xml version="1.0" encoding="UTF-8" standalone="no"?>
<svg
   version="1.1"
   width="96"
   height="48"
   stroke-width="2.5"
   id="svg66"
   sodipodi:docname="close-big.svg"
   inkscape:version="1.1.2 (0a00cf5339, 2022-02-04, custom)"
   xmlns:inkscape="http://www.inkscape.org/namespaces/inkscape"
   xmlns:sodipodi="http://sodipodi.sourceforge.net/DTD/sodipodi-0.dtd"
   xmlns="http://www.w3.org/2000/svg"
   xmlns:svg="http://www.w3.org/2000/svg">
  <defs
     id="defs70" />
  <sodipodi:namedview
     id="namedview68"
     pagecolor="#ffffff"
     bordercolor="#666666"
     borderopacity="1.0"
     inkscape:pageshadow="2"
     inkscape:pageopacity="0.0"
     inkscape:pagecheckerboard="0"
     showgrid="false"
     inkscape:snap-others="true"
     inkscape:object-nodes="true"
     inkscape:snap-nodes="true"
     inkscape:zoom="6.3680588"
     inkscape:cx="54.883287"
     inkscape:cy="19.629216"
     inkscape:window-width="1318"
     inkscape:window-height="738"
     inkscape:window-x="0"
     inkscape:window-y="0"
     inkscape:window-maximized="1"
     inkscape:current-layer="hover-inactive-center"
     inkscape:snap-bbox="true"
     inkscape:snap-object-midpoints="true"
     inkscape:snap-center="true"
     inkscape:snap-midpoints="true"
     inkscape:snap-smooth-nodes="true"
     inkscape:snap-intersection-paths="true" />
  <g
     id="g16">
    <!--standard-->
    <g
       id="active-center"
       stroke="#00ffff">
      <circle
         cx="12"
         cy="12"
         r="12"
         opacity="0"
         id="circle2" />
      <polyline
         points="18,6 6,18"
         id="polyline4"
         transform="matrix(1.5193528,0,0,1.5471538,-6.2322336,-6.5658456)"
         style="stroke-width:1.63059" />
      <polyline
         points="6,6 18,18"
         id="polyline6"
         transform="matrix(1.5193528,0,0,1.5471538,-6.2322336,-6.5658456)"
         style="stroke-width:1.63059" />
    </g>
    <g
       id="inactive-center"
       transform="translate(0,24)"
       stroke="#00ffff">
      <circle
         cx="12"
         cy="12"
         r="12"
         opacity="0"
         id="circle9" />
      <polyline
         points="18,6 6,18"
         id="polyline11"
         transform="matrix(1.4850845,0,0,1.5457826,-5.4783023,-7.0746927)"
         style="stroke-width:1.65003" />
      <polyline
         points="6,6 18,18"
         id="polyline13"
         transform="matrix(1.5471538,0,0,1.5193528,-5.8251423,-6.6885123)"
         style="stroke-width:1.63059" />
    </g>
  </g>
  <g
     id="g32">
    <!--hover-->
    <g
       id="hover-center"
       transform="translate(24)"
       stroke="#000000">
      <rect
         x="0"
         y="0"
         width="24"
         height="24"
         style="opacity:0.6;fill:#00ffff;stroke-width:0"
         id="rect18" />
      <polyline
         points="18,6 6,18"
         id="polyline20"
         transform="matrix(1.5193528,0,0,1.5471538,-6.2322336,-6.5658456)"
         style="stroke-width:1.63059" />
      <polyline
         points="6,6 18,18"
         id="polyline22"
         transform="matrix(1.5471538,0,0,1.5193528,-6.5658456,-6.2322336)"
         style="stroke-width:1.63059" />
    </g>
    <g
       id="hover-inactive-center"
       transform="translate(24,24)"
       stroke="#000000">
      <rect
         x="0"
         y="0"
         width="24"
         height="24"
         style="opacity:0.6;fill:#00ffff;stroke-width:0"
         id="rect25" />
      <polyline
         points="18,6 6,18"
         id="polyline27"
         style="opacity:1;stroke-width:1.6305869;fill:#00ffff;stroke-miterlimit:4;stroke-dasharray:none"
         transform="matrix(1.5193528,0,0,1.5471538,-6.2322336,-6.5658456)" />
      <polyline
         points="6,6 18,18"
         id="polyline29"
         transform="matrix(1.5471538,0,0,1.5193528,-6.5658456,-6.2322336)"
         style="stroke-width:1.63059;fill:#00ffff" />
    </g>
  </g>
  <g
     id="g48">
    <!--pressed-->
    <g
       id="pressed-center"
       transform="translate(48)"
       stroke="#000000">
      <rect
         x="0"
         y="0"
         width="24"
         height="24"
         style="opacity:1;fill:#00ffff;stroke-width:0"
         id="rect34" />
      <polyline
         points="18,6 6,18"
         id="polyline36"
         transform="matrix(1.5193528,0,0,1.5471538,-6.2322336,-6.5658456)"
         style="stroke-width:1.63059" />
      <polyline
         points="6,6 18,18"
         id="polyline38"
         transform="matrix(1.5193528,0,0,1.5471538,-6.2322336,-6.5658456)"
         style="stroke-width:1.63059" />
    </g>
    <g
       id="pressed-inactive-center"
       transform="translate(48,24)"
       stroke="#000000">
      <rect
         x="0"
         y="0"
         width="24"
         height="24"
         style="opacity:1;fill:#00ffff;stroke-width:0"
         id="rect41" />
      <polyline
         points="18,6 6,18"
         id="polyline43"
         transform="matrix(1.5193528,0,0,1.5471538,-6.2322336,-6.5658456)"
         style="stroke-width:1.63059" />
      <polyline
         points="6,6 18,18"
         id="polyline45"
         transform="matrix(1.5193528,0,0,1.5471538,-6.2322336,-6.5658456)"
         style="stroke-width:1.63059" />
    </g>
  </g>
  <g
     id="g64">
    <!--disabled-->
    <g
       id="deactivated-center"
       transform="translate(72)"
       stroke="#00ffff"
       opacity="0.2">
      <circle
         cx="12"
         cy="12"
         r="12"
         opacity="0"
         id="circle50" />
      <polyline
         points="18,6 6,18"
         id="polyline52"
         transform="matrix(1.5193528,0,0,1.5471538,-6.2322336,-6.5658456)"
         style="stroke-width:1.63059" />
      <polyline
         points="6,6 18,18"
         id="polyline54"
         transform="matrix(1.5193528,0,0,1.5471538,-6.2322336,-6.5658456)"
         style="stroke-width:1.63059" />
    </g>
    <g
       id="deactivated-inactive-center"
       transform="translate(72,24)"
       stroke="#00ffff"
       opacity="0.2">
      <circle
         cx="12"
         cy="12"
         r="12"
         opacity="0"
         id="circle57" />
      <polyline
         points="18,6 6,18"
         id="polyline59"
         transform="matrix(1.5471538,0,0,1.5193528,-6.5658456,-6.2322336)"
         style="stroke-width:1.63059" />
      <polyline
         points="6,6 18,18"
         id="polyline61"
         transform="matrix(1.5193528,0,0,1.5471538,-6.2322336,-6.5658456)"
         style="stroke-width:1.63059" />
    </g>
  </g>
</svg>
