<?xml version="1.0" encoding="UTF-8" standalone="no"?>
<svg
   xmlns:dc="http://purl.org/dc/elements/1.1/"
   xmlns:cc="http://creativecommons.org/ns#"
   xmlns:rdf="http://www.w3.org/1999/02/22-rdf-syntax-ns#"
   xmlns:svg="http://www.w3.org/2000/svg"
   xmlns="http://www.w3.org/2000/svg"
   xmlns:sodipodi="http://sodipodi.sourceforge.net/DTD/sodipodi-0.dtd"
   xmlns:inkscape="http://www.inkscape.org/namespaces/inkscape"
   version="1.1"
   id="svg2"
   viewBox="0 0 54 64"
   sodipodi:docname="view.svg"
   inkscape:version="0.92.4 (5da689c313, 2019-01-14)">
  <sodipodi:namedview
     pagecolor="#ffffff"
     bordercolor="#666666"
     borderopacity="1"
     objecttolerance="10"
     gridtolerance="10"
     guidetolerance="10"
     inkscape:pageopacity="1"
     inkscape:pageshadow="2"
     inkscape:window-width="1366"
     inkscape:window-height="701"
     id="namedview18"
     showgrid="false"
     showguides="true"
     inkscape:guide-bbox="true"
     inkscape:zoom="7.890625"
     inkscape:cx="27"
     inkscape:cy="32"
     inkscape:window-x="0"
     inkscape:window-y="0"
     inkscape:window-maximized="1"
     inkscape:current-layer="svg2" />
  <metadata
     id="metadata22">
    <rdf:RDF>
      <cc:Work
         rdf:about="">
        <dc:format>image/svg+xml</dc:format>
        <dc:type
           rdf:resource="http://purl.org/dc/dcmitype/StillImage" />
        <dc:title></dc:title>
      </cc:Work>
    </rdf:RDF>
  </metadata>
  <defs
     id="defs3615">
    <style
       type="text/css"
       id="current-color-scheme">
      .ColorScheme-Text {
        color:#1a1a1a;
      }
      .ColorScheme-Highlight {
        color:#7F7F7F;
      }
    </style>
  </defs>
  <g
     id="view-history"
     inkscape:label="#g882">
    <path
       id="path876"
       class="ColorScheme-Text"
       d="M 38 36 A 12 12 0 0 0 26 48 A 12 12 0 0 0 38 60 A 12 12 0 0 0 50 48 A 12 12 0 0 0 38 36 z M 38 37 A 11 11 0 0 1 49 48 A 11 11 0 0 1 38 59 A 11 11 0 0 1 27 48 A 11 11 0 0 1 38 37 z "
       style="fill:currentColor;fill-opacity:1;stroke:none" />
    <path
       inkscape:connector-curvature="0"
       id="path22"
       class="ColorScheme-Highlight"
       d="m 37,39 v 10 h 9 v -1 h -8 v -9 z"
       style="fill:currentColor;fill-opacity:1;stroke:none" />
    <path
       id="path24"
       d="M 22,32 V 64 H 54 V 32 Z"
       style="opacity:1;fill:none"
       inkscape:connector-curvature="0" />
  </g>
  <g
     id="22-22-view-history"
     inkscape:label="#g836"
     transform="translate(0,42)">
    <path
       inkscape:connector-curvature="0"
       id="path830"
       class="ColorScheme-Text"
       d="m 11,3 c -4.4319982,0 -8,3.5680018 -8,8 0,4.431998 3.5680018,8 8,8 4.431998,0 8,-3.568002 8,-8 0,-4.4319982 -3.568002,-8 -8,-8 z m 0,1 c 3.877999,0 7,3.1220013 7,7 0,3.877999 -3.122001,7 -7,7 C 7.1220013,18 4,14.877999 4,11 4,7.1220013 7.1220013,4 11,4 Z"
       style="opacity:1;fill:currentColor;fill-opacity:1;stroke:none" />
    <path
       inkscape:connector-curvature="0"
       id="rect4131"
       d="m 10,5 v 7 h 1 5 V 11 H 11 V 5 Z"
       class="ColorScheme-Highlight"
       style="opacity:1;fill:currentColor;fill-opacity:1;stroke:none" />
    <rect
       y="0"
       x="0"
       height="22"
       width="22"
       id="rect4162"
       style="opacity:1;fill:none;fill-opacity:1;stroke:none" />
  </g>
  <g
     id="view-refresh"
     inkscape:label="#g1120">
    <path
       id="path34"
       d="M 22,0 V 32 H 54 V 0 Z"
       style="opacity:1;fill:none"
       inkscape:connector-curvature="0" />
    <path
       inkscape:connector-curvature="0"
       id="path1112"
       class="ColorScheme-Text"
       d="M 38,4 A 12,12 0 0 0 26,16 12,12 0 0 0 38,28 12,12 0 0 0 48.892578,21 H 47.785156 A 11,11 0 0 1 38,27 11,11 0 0 1 27,16 11,11 0 0 1 38,5 Z"
       style="opacity:1;fill:currentColor;fill-opacity:1;fill-rule:nonzero;stroke:none;stroke-width:1;stroke-linejoin:miter;stroke-miterlimit:4;stroke-dasharray:none;stroke-opacity:1" />
    <path
       inkscape:connector-curvature="0"
       id="path1095"
       class="ColorScheme-Highlight"
       d="m 38,4 v 1 a 11,11 0 0 1 10.945312,10 h 1.003907 A 12,12 0 0 0 38,4 Z"
       style="opacity:1;fill:currentColor;fill-opacity:1;fill-rule:nonzero;stroke:none;stroke-width:1;stroke-linejoin:miter;stroke-miterlimit:4;stroke-dasharray:none;stroke-opacity:1" />
    <path
       sodipodi:nodetypes="cccccccc"
       inkscape:connector-curvature="0"
       id="path1102"
       class="ColorScheme-Highlight"
       d="m 50,16 -7,-5 h 5 l 1,1 v 1 1 l 0.949219,1 z"
       style="fill:currentColor;fill-opacity:1;stroke:none;stroke-width:1px;stroke-linecap:butt;stroke-linejoin:miter;stroke-opacity:1" />
  </g>
  <g
     id="22-22-view-refresh"
     inkscape:label="#g1145">
    <path
       id="path29"
       d="M 0,10 V 32 H 22 V 10 Z"
       style="opacity:1;fill:none"
       inkscape:connector-curvature="0" />
    <path
       inkscape:connector-curvature="0"
       id="path1137"
       class="ColorScheme-Text"
       d="m 11,13 a 8,8 0 0 0 -8,8 8,8 0 0 0 8,8 8,8 0 0 0 6.916016,-4 H 16.742188 A 7,7 0 0 1 11,28 7,7 0 0 1 4,21 7,7 0 0 1 11,14 Z"
       style="opacity:1;fill:currentColor;fill-opacity:1;fill-rule:nonzero;stroke:none;stroke-width:1;stroke-linejoin:miter;stroke-miterlimit:4;stroke-dasharray:none;stroke-opacity:1" />
    <path
       inkscape:connector-curvature="0"
       id="path1122"
       class="ColorScheme-Highlight"
       d="m 11,13 v 1 a 7,7 0 0 1 6.921875,6 h 1.007813 A 8,8 0 0 0 11,13 Z"
       style="opacity:1;fill:currentColor;fill-opacity:1;fill-rule:nonzero;stroke:none;stroke-width:1;stroke-linejoin:miter;stroke-miterlimit:4;stroke-dasharray:none;stroke-opacity:1" />
    <path
       sodipodi:nodetypes="cccc"
       inkscape:connector-curvature="0"
       id="path1127"
       class="ColorScheme-Highlight"
       d="m 19,21 -5,-3 h 4 c 0.97377,1.252293 0.97228,2.120393 1,3 z"
       style="fill:currentColor;fill-opacity:1;stroke:none;stroke-width:1px;stroke-linecap:butt;stroke-linejoin:miter;stroke-opacity:1" />
  </g>
</svg>
