<?xml version="1.0" encoding="UTF-8" standalone="no"?>
<svg
   xmlns:dc="http://purl.org/dc/elements/1.1/"
   xmlns:cc="http://creativecommons.org/ns#"
   xmlns:rdf="http://www.w3.org/1999/02/22-rdf-syntax-ns#"
   xmlns:svg="http://www.w3.org/2000/svg"
   xmlns="http://www.w3.org/2000/svg"
   xmlns:sodipodi="http://sodipodi.sourceforge.net/DTD/sodipodi-0.dtd"
   xmlns:inkscape="http://www.inkscape.org/namespaces/inkscape"
   width="54"
   height="32"
   id="svg3613"
   version="1.1"
   sodipodi:docname="bookmarks.svg"
   inkscape:version="0.92.4 (5da689c313, 2019-01-14)">
  <sodipodi:namedview
     pagecolor="#ffffff"
     bordercolor="#666666"
     borderopacity="1"
     objecttolerance="10"
     gridtolerance="10"
     guidetolerance="10"
     inkscape:pageopacity="1"
     inkscape:pageshadow="2"
     inkscape:window-width="1366"
     inkscape:window-height="701"
     id="namedview12"
     showgrid="false"
     showguides="true"
     inkscape:guide-bbox="true"
     inkscape:zoom="13.111112"
     inkscape:cx="26.999999"
     inkscape:cy="15.999982"
     inkscape:window-x="0"
     inkscape:window-y="0"
     inkscape:window-maximized="1"
     inkscape:current-layer="svg3613" />
  <metadata
     id="metadata13">
    <rdf:RDF>
      <cc:Work
         rdf:about="">
        <dc:format>image/svg+xml</dc:format>
        <dc:type
           rdf:resource="http://purl.org/dc/dcmitype/StillImage" />
        <dc:title></dc:title>
      </cc:Work>
    </rdf:RDF>
  </metadata>
  <defs
     id="defs3615">
    <style
       type="text/css"
       id="current-color-scheme">
      .ColorScheme-Text {
        color:#1a1a1a;
      }
      .ColorScheme-Highlight {
        color:#7F7F7F;
      }
    </style>
  </defs>
  <g
     id="bookmarks"
     inkscape:label="#g855">
    <rect
       style="opacity:0.01000001;fill:#000000;fill-opacity:0.00392157;stroke:none"
       id="rect2994"
       width="32"
       height="32"
       x="21.999998"
       y="1.754521e-05" />
    <path
       id="path826"
       class="ColorScheme-Text"
       d="M 30 4 L 30 28 L 38 24 L 46 28 L 46 4 L 30 4 z M 31 5 L 45 5 L 45 26.556641 L 38 23 L 31 26.556641 L 31 5 z "
       style="fill:currentColor;fill-opacity:1;stroke:none" />
    <path
       id="path849"
       class="ColorScheme-Highlight"
       d="M 33.597656 7.7050781 L 33.597656 14.412109 L 33.597656 22.556641 L 38 20.105469 L 42.402344 22.556641 L 42.402344 14.412109 L 42.402344 7.7050781 L 33.597656 7.7050781 z "
       style="fill:currentColor;fill-opacity:1;stroke:none" />
  </g>
  <g
     id="22-22-bookmarks"
     inkscape:label="#g890">
    <rect
       style="opacity:0.01000001;fill:#000000;fill-opacity:0.00392157;stroke:none"
       id="rect3028"
       width="22"
       height="22"
       x="2.2758499e-16"
       y="10" />
    <path
       id="path861"
       class="ColorScheme-Text"
       d="M 6 13 L 6 14 L 6 28 L 6 29 L 11 27 L 16 29 L 16 28 L 16 14 L 16 13 L 6 13 z M 7 14 L 15 14 L 15 27.599609 L 11 26 L 7 27.599609 L 7 14 z "
       style="fill:currentColor;fill-opacity:1" />
    <path
       id="path884"
       class="ColorScheme-Highlight"
       d="M 8.765625 15.839844 L 8.765625 20.027344 L 8.765625 21.310547 L 8.765625 24.966797 L 11 24.072266 L 13.234375 24.966797 L 13.234375 21.310547 L 13.234375 20.027344 L 13.234375 15.839844 L 8.765625 15.839844 z "
       style="fill:currentColor;fill-opacity:1;stroke:none" />
  </g>
</svg>
