<?xml version="1.0" encoding="UTF-8" standalone="no"?>
<svg
   viewBox="0 0 22 22"
   id="svg"
   version="1.1"
   inkscape:version="1.2 (dc2aedaf03, 2022-05-15)"
   width="100%"
   height="100%"
   sodipodi:docname="notification.svg"
   xmlns:inkscape="http://www.inkscape.org/namespaces/inkscape"
   xmlns:sodipodi="http://sodipodi.sourceforge.net/DTD/sodipodi-0.dtd"
   xmlns:xlink="http://www.w3.org/1999/xlink"
   xmlns="http://www.w3.org/2000/svg"
   xmlns:svg="http://www.w3.org/2000/svg"
   xmlns:rdf="http://www.w3.org/1999/02/22-rdf-syntax-ns#"
   xmlns:cc="http://creativecommons.org/ns#"
   xmlns:dc="http://purl.org/dc/elements/1.1/">
  <defs
     id="defs81">
    <style
       id="current-color-scheme"
       type="text/css">
      .ColorScheme-Text {
        color:#1a1a1a;
      }
      .ColorScheme-Highlight {
        color:#7F7F7F;
      }
    </style>
    <linearGradient
       inkscape:collect="always"
       xlink:href="#linearGradient4254"
       id="linearGradient5399"
       gradientUnits="userSpaceOnUse"
       x1="317.91653"
       y1="909.77173"
       x2="317.91653"
       y2="912.77173" />
    <linearGradient
       id="linearGradient4254">
      <stop
         id="stop4256"
         offset="0"
         style="stop-color:#888888;stop-opacity:1;" />
      <stop
         id="stop4258"
         offset="1"
         style="stop-color:#232323;stop-opacity:1;" />
    </linearGradient>
  </defs>
  <metadata
     id="metadata34">
    <rdf:RDF>
      <cc:Work
         rdf:about="">
        <dc:format>image/svg+xml</dc:format>
        <dc:type
           rdf:resource="http://purl.org/dc/dcmitype/StillImage" />
        <dc:title />
      </cc:Work>
    </rdf:RDF>
  </metadata>
  <sodipodi:namedview
     pagecolor="#ffffff"
     bordercolor="#666666"
     borderopacity="1"
     objecttolerance="10"
     gridtolerance="10"
     guidetolerance="10"
     inkscape:pageopacity="1"
     inkscape:pageshadow="2"
     inkscape:window-width="1308"
     inkscape:window-height="768"
     id="namedview32"
     showgrid="true"
     inkscape:zoom="18.466657"
     inkscape:cx="12.373653"
     inkscape:cy="16.028889"
     inkscape:window-x="0"
     inkscape:window-y="0"
     inkscape:window-maximized="1"
     inkscape:current-layer="svg"
     borderlayer="true"
     showguides="true"
     inkscape:guide-bbox="true"
     inkscape:snap-bbox="true"
     inkscape:showpageshadow="2"
     inkscape:pagecheckerboard="0"
     inkscape:deskcolor="#d1d1d1" />
  <g
     id="notification-progress-active"
     inkscape:label="#g853"
     style="fill:#00ffff;opacity:0.4"
     transform="translate(-18)">
    <rect
       style="fill:#00ffff;fill-opacity:0;stroke:none"
       id="rect3009"
       width="22"
       height="22"
       x="40"
       y="0" />
    <rect
       ry="10"
       y="0.99999428"
       x="41"
       height="20.000011"
       width="20"
       id="rect5921-0"
       class="ColorScheme-Highlight"
       style="opacity:1;fill:#00ffff;fill-opacity:1;stroke:none;stroke-width:1.25" />
  </g>
  <g
     id="notification-inactive"
     inkscape:label="#g847"
     style="fill:#00ffff">
    <rect
       y="0"
       x="0"
       height="22"
       width="22"
       id="rect3028"
       style="fill:#00ffff;fill-opacity:0;stroke:none" />
    <path
       style="fill:#00ffff;fill-opacity:0.941176;stroke:none;stroke-width:1.25"
       d="m 11,0.9000085 c -5.5400001,0 -10,4.4600001 -10,9.9999995 0,5.54 4.4599999,10 10,10 5.54,0 10,-4.46 10,-10 C 21,5.3600086 16.54,0.9000085 11,0.9000085 Z m -0.195312,1.25 h 0.390625 c 4.741466,0 8.554687,3.8132391 8.554687,8.5546875 v 0.390625 c 0,4.741448 -3.813221,8.554687 -8.554687,8.554687 H 10.804688 C 6.0632214,19.650008 2.25,15.836769 2.25,11.095321 v -0.390625 c 0,-4.7414484 3.8132214,-8.5546875 8.554688,-8.5546875 z m -0.820313,3.75 v 6.9921875 h 2.03125 V 5.9000085 Z M 11,13.907821 c -0.460232,0 -1.015625,0.516324 -1.015625,0.976562 0,0.460238 0.555393,1.015625 1.015625,1.015625 0.460233,0 1.015625,-0.555387 1.015625,-1.015625 0,-0.460238 -0.555392,-0.976562 -1.015625,-0.976562 z"
       id="path3016"
       class="ColorScheme-Text"
       inkscape:connector-curvature="0" />
  </g>
  <g
     id="notification-progress-inactive"
     transform="translate(21,21)"
     style="fill:#00ffff;opacity:0.4">
    <rect
       style="fill:#00ffff;fill-opacity:0;stroke:none"
       id="rect3060"
       width="22"
       height="22"
       x="1"
       y="1" />
    <rect
       ry="10"
       y="1.9999943"
       x="2"
       height="20.000011"
       width="20"
       id="rect5933-8"
       style="opacity:1;fill:#00ffff;fill-opacity:1;stroke:none;stroke-width:1.25"
       class="ColorScheme-Text" />
  </g>
  <path
     class="ColorScheme-Text"
     inkscape:connector-curvature="0"
     style="fill:#00ffff;fill-opacity:1"
     d="m -18,23 2,-2 2,2 z"
     id="expander-bottom"
     sodipodi:nodetypes="cccc" />
  <path
     class="ColorScheme-Text"
     inkscape:connector-curvature="0"
     sodipodi:nodetypes="cccc"
     id="expander-top"
     d="m -18,17 2,2 2,-2 z"
     style="fill:#00ffff;fill-opacity:1" />
  <path
     class="ColorScheme-Text"
     inkscape:connector-curvature="0"
     style="fill:#00ffff;fill-opacity:1"
     d="m -13,18 -2,2 2,2 z"
     id="expander-right"
     sodipodi:nodetypes="cccc" />
  <path
     class="ColorScheme-Text"
     inkscape:connector-curvature="0"
     sodipodi:nodetypes="cccc"
     id="expander-left"
     d="m -19,18 2,2 -2,2 z"
     style="fill:#00ffff;fill-opacity:1" />
  <g
     transform="translate(-1,-23.023762)"
     id="notification-disabled"
     style="fill:#001919">
    <rect
       style="fill:#001919;fill-opacity:0;stroke:none"
       id="rect3022"
       width="22"
       height="22"
       x="1"
       y="1" />
    <path
       inkscape:connector-curvature="0"
       class="ColorScheme-Text"
       id="path3024"
       d="M 12,2 C 6.4599999,2 2,6.4600001 2,12 2,17.54 6.4599999,22 12,22 17.54,22 22,17.54 22,12 22,6.4600001 17.54,2 12,2 Z m -0.195312,1.25 h 0.390625 C 16.936779,3.25 20.75,7.0632391 20.75,11.804688 v 0.390625 C 20.75,16.936761 16.936779,20.75 12.195313,20.75 H 11.804688 C 7.0632214,20.75 3.25,16.936761 3.25,12.195313 V 11.804688 C 3.25,7.0632391 7.0632214,3.25 11.804688,3.25 Z M 10.984375,7 v 6.992188 h 2.03125 V 7 Z M 12,15.007812 c -0.460232,0 -1.015625,0.516325 -1.015625,0.976563 C 10.984375,16.444613 11.539768,17 12,17 c 0.460233,0 1.015625,-0.555387 1.015625,-1.015625 0,-0.460238 -0.555392,-0.976563 -1.015625,-0.976563 z"
       style="opacity:1;fill:#001919;fill-opacity:0.941176;stroke:none;stroke-width:1.25" />
  </g>
  <g
     transform="translate(21,-23.023762)"
     id="notification-empty"
     style="fill:#00ffff">
    <rect
       style="fill:#00ffff;fill-opacity:0;stroke:none"
       id="rect3798"
       width="22"
       height="22"
       x="1"
       y="1" />
    <path
       inkscape:connector-curvature="0"
       class="ColorScheme-Text"
       id="path3800"
       d="M 12,2 C 6.4599999,2 2,6.4600001 2,12 2,17.54 6.4599999,22 12,22 17.54,22 22,17.54 22,12 22,6.4600001 17.54,2 12,2 Z m -0.195312,1.25 h 0.390625 C 16.936779,3.25 20.75,7.0632391 20.75,11.804688 v 0.390625 C 20.75,16.936761 16.936779,20.75 12.195313,20.75 H 11.804688 C 7.0632214,20.75 3.25,16.936761 3.25,12.195313 V 11.804688 C 3.25,7.0632391 7.0632214,3.25 11.804688,3.25 Z"
       style="fill:#00ffff;fill-opacity:0.941176;stroke:none;stroke-width:1.25"
       sodipodi:nodetypes="ssssssssssssss" />
  </g>
  <g
     transform="translate(-1,21)"
     id="notification-active"
     style="fill:#00ffff">
    <rect
       style="fill:#00ffff;fill-opacity:0;stroke:none"
       id="rect3022-6"
       width="22"
       height="22"
       x="1"
       y="1" />
    <path
       inkscape:connector-curvature="0"
       class="ColorScheme-Text"
       id="path3024-7"
       d="M 12,2 C 6.4599999,2 2,6.4600001 2,12 2,17.54 6.4599999,22 12,22 17.54,22 22,17.54 22,12 22,6.4600001 17.54,2 12,2 Z m -0.195312,1.25 h 0.390625 C 16.936779,3.25 20.75,7.0632391 20.75,11.804688 v 0.390625 C 20.75,16.936761 16.936779,20.75 12.195313,20.75 H 11.804688 C 7.0632214,20.75 3.25,16.936761 3.25,12.195313 V 11.804688 C 3.25,7.0632391 7.0632214,3.25 11.804688,3.25 Z M 10.984375,7 v 6.992188 h 2.03125 V 7 Z M 12,15.007812 c -0.460232,0 -1.015625,0.516325 -1.015625,0.976563 C 10.984375,16.444613 11.539768,17 12,17 c 0.460233,0 1.015625,-0.555387 1.015625,-1.015625 0,-0.460238 -0.555392,-0.976563 -1.015625,-0.976563 z"
       style="color:#1a1a1a;opacity:1;fill:#00ffff;fill-opacity:0.941176;stroke:none;stroke-width:1.25" />
  </g>
</svg>
