<?xml version="1.0" encoding="UTF-8" standalone="no"?>
<!-- Svg Vector Icons : http://www.onlinewebfonts.com/icon -->

<svg
   version="1.1"
   x="0px"
   y="0px"
   viewBox="0 0 1000 1000"
   enable-background="new 0 0 1000 1000"
   xml:space="preserve"
   id="svg10"
   sodipodi:docname="cdf1e288ca02272e717c9d5e4cb180bd.svg"
   inkscape:version="1.2 (dc2aedaf03, 2022-05-15)"
   xmlns:inkscape="http://www.inkscape.org/namespaces/inkscape"
   xmlns:sodipodi="http://sodipodi.sourceforge.net/DTD/sodipodi-0.dtd"
   xmlns="http://www.w3.org/2000/svg"
   xmlns:svg="http://www.w3.org/2000/svg"><defs
   id="defs14" /><sodipodi:namedview
   id="namedview12"
   pagecolor="#ffffff"
   bordercolor="#000000"
   borderopacity="0.25"
   inkscape:showpageshadow="2"
   inkscape:pageopacity="0.0"
   inkscape:pagecheckerboard="0"
   inkscape:deskcolor="#d1d1d1"
   showgrid="false"
   inkscape:zoom="0.582"
   inkscape:cx="487.97251"
   inkscape:cy="500"
   inkscape:window-width="1308"
   inkscape:window-height="768"
   inkscape:window-x="0"
   inkscape:window-y="0"
   inkscape:window-maximized="1"
   inkscape:current-layer="svg10" />
<metadata
   id="metadata2"> Svg Vector Icons : http://www.onlinewebfonts.com/icon </metadata>
<g
   id="g8"
   style="fill:#00ffff"><g
     id="g6"
     style="fill:#00ffff"><path
       d="M349.5,490.8L72.9,767.4c-4,4-8.5,5.9-13.7,5.9s-9.7-2-13.7-5.9l-29.7-29.7c-4-4-5.9-8.5-5.9-13.7s2-9.7,5.9-13.7l233.3-233.3L15.9,243.9c-4-4-5.9-8.5-5.9-13.7s2-9.7,5.9-13.7l29.7-29.7c4-4,8.5-5.9,13.7-5.9s9.7,2,13.7,5.9l276.6,276.6c4,4,5.9,8.5,5.9,13.7C355.5,482.3,353.5,486.8,349.5,490.8L349.5,490.8z M990,762.1v38c0,5.5-1.8,10.1-5.3,13.7c-3.6,3.6-8.1,5.3-13.7,5.3H401.2c-5.5,0-10.1-1.8-13.7-5.3c-3.6-3.6-5.3-8.1-5.3-13.7v-38c0-5.5,1.8-10.1,5.3-13.7s8.1-5.3,13.7-5.3H971c5.5,0,10.1,1.8,13.7,5.3C988.2,752,990,756.5,990,762.1z"
       id="path4"
       style="fill:#00ffff" /></g></g>
</svg>
