<?xml version="1.0" encoding="UTF-8" standalone="no"?>
<svg
   xmlns:dc="http://purl.org/dc/elements/1.1/"
   xmlns:cc="http://creativecommons.org/ns#"
   xmlns:rdf="http://www.w3.org/1999/02/22-rdf-syntax-ns#"
   xmlns:svg="http://www.w3.org/2000/svg"
   xmlns="http://www.w3.org/2000/svg"
   xmlns:sodipodi="http://sodipodi.sourceforge.net/DTD/sodipodi-0.dtd"
   xmlns:inkscape="http://www.inkscape.org/namespaces/inkscape"
   version="1.1"
   id="svg2"
   viewBox="0 0 54 64"
   inkscape:version="0.92.4 (5da689c313, 2019-01-14)"
   sodipodi:docname="touchpad.svg">
  <sodipodi:namedview
     pagecolor="#ffffff"
     bordercolor="#666666"
     borderopacity="1"
     objecttolerance="10"
     gridtolerance="10"
     guidetolerance="10"
     inkscape:pageopacity="1"
     inkscape:pageshadow="2"
     inkscape:window-width="1360"
     inkscape:window-height="699"
     id="namedview20"
     showgrid="false"
     inkscape:zoom="7.859375"
     inkscape:cx="27"
     inkscape:cy="32"
     inkscape:window-x="0"
     inkscape:window-y="0"
     inkscape:window-maximized="0"
     inkscape:current-layer="svg2" />
  <metadata
     id="metadata32">
    <rdf:RDF>
      <cc:Work
         rdf:about="">
        <dc:format>image/svg+xml</dc:format>
        <dc:type
           rdf:resource="http://purl.org/dc/dcmitype/StillImage" />
        <dc:title></dc:title>
      </cc:Work>
    </rdf:RDF>
  </metadata>
  <defs
     id="defs3051">
    <style
       type="text/css"
       id="current-color-scheme">
      .ColorScheme-Text {
        color:#1a1a1a;
      }
      .ColorScheme-Highlight {
        color:#7F7F7F;
      }
    </style>
  </defs>
  <g
     id="22-22-touchpad_enabled"
     inkscape:label="#g851">
    <path
       id="path7"
       class="ColorScheme-Text"
       d="m 4,45 c -0.554,0 -1,0.446 -1,1 v 14 c 0,0.554 0.446,1 1,1 h 14 c 0.554,0 1,-0.446 1,-1 V 46 c 0,-0.554 -0.446,-1 -1,-1 z m 0,1 H 18 V 57 H 4 Z m 0,12 h 6 v 2 H 4 Z m 8,0 h 6 v 2 h -6 z"
       style="fill:currentColor;fill-opacity:1;stroke:none"
       inkscape:connector-curvature="0" />
    <path
       id="path9"
       d="M 0,42 V 64 H 22 V 42 Z"
       style="opacity:1;fill:none"
       inkscape:connector-curvature="0" />
  </g>
  <g
     id="touchpad_enabled"
     inkscape:label="#g847">
    <path
       id="path12"
       class="ColorScheme-Text"
       d="m 27,36 c -0.554,0 -1,0.446 -1,1 v 22 c 0,0.554 0.446,1 1,1 h 22 c 0.554,0 1,-0.446 1,-1 V 37 c 0,-0.554 -0.446,-1 -1,-1 z m 0,1 H 49 V 54 H 27 Z m 0,18 h 10 v 4 H 27 Z m 12,0 h 10 v 4 H 39 Z"
       style="fill:currentColor;fill-opacity:1;stroke:none"
       inkscape:connector-curvature="0" />
    <path
       id="path14"
       d="M 22,32 V 64 H 54 V 32 Z"
       style="opacity:1;fill:none"
       inkscape:connector-curvature="0" />
  </g>
  <g
     id="22-22-touchpad_disabled"
     inkscape:label="#g839">
    <path
       id="path17"
       class="ColorScheme-Text"
       d="m 4,13 c -0.554,0 -1,0.446 -1,1 v 14 c 0,0.554 0.446,1 1,1 h 14 c 0.554,0 1,-0.446 1,-1 V 14 c 0,-0.554 -0.446,-1 -1,-1 z m 0,1 H 18 V 25 H 4 Z m 0,12 h 6 v 2 H 4 Z m 8,0 h 6 v 2 h -6 z"
       style="fill:currentColor;fill-opacity:0.6;stroke:none"
       inkscape:connector-curvature="0" />
    <path
       id="path19"
       d="M 0,10 V 32 H 22 V 10 Z"
       style="opacity:1;fill:none"
       inkscape:connector-curvature="0" />
    <path
       id="path21"
       class="ColorScheme-Highlight"
       d="M 8.8476562,17 8,17.847656 10.152344,20 8,22.152344 8.8476562,23 11,20.847656 13.152344,23 14,22.152344 11.847656,20 14,17.847656 13.152344,17 11,19.152344 Z"
       style="fill:currentColor;fill-opacity:0.98039216;stroke:none"
       inkscape:connector-curvature="0" />
  </g>
  <g
     id="touchpad_disabled"
     inkscape:label="#g831">
    <path
       id="path24"
       class="ColorScheme-Text"
       d="m 27,4 c -0.554,0 -1,0.446 -1,1 v 22 c 0,0.554 0.446,1 1,1 h 22 c 0.554,0 1,-0.446 1,-1 V 5 C 50,4.446 49.554,4 49,4 Z m 0,1 H 49 V 22 H 27 Z m 0,18 h 10 v 4 H 27 Z m 12,0 h 10 v 4 H 39 Z"
       style="fill:currentColor;fill-opacity:0.6;stroke:none"
       inkscape:connector-curvature="0" />
    <path
       id="path26"
       d="M 22,0 V 32 H 54 V 0 Z"
       style="opacity:1;fill:none"
       inkscape:connector-curvature="0" />
    <path
       style="fill:currentColor;fill-opacity:1;stroke:none"
       d="M 34,10.207 37.293,13.5 34,16.793 c 0.013,0.025 0.707,0.707 0.707,0.707 L 38,14.207 41.293,17.5 42,16.793 38.707,13.5 42,10.207 41.293,9.5 38,12.793 34.707,9.5 Z"
       class="ColorScheme-Highlight"
       id="path28" />
  </g>
</svg>
