<?xml version="1.0" encoding="UTF-8" standalone="no"?>
<svg
   width="32"
   height="32"
   version="1.1"
   id="svg118"
   sodipodi:docname="update.svg"
   inkscape:version="1.2 (dc2aedaf03, 2022-05-15)"
   xmlns:inkscape="http://www.inkscape.org/namespaces/inkscape"
   xmlns:sodipodi="http://sodipodi.sourceforge.net/DTD/sodipodi-0.dtd"
   xmlns="http://www.w3.org/2000/svg"
   xmlns:svg="http://www.w3.org/2000/svg"
   xmlns:rdf="http://www.w3.org/1999/02/22-rdf-syntax-ns#"
   xmlns:cc="http://creativecommons.org/ns#"
   xmlns:dc="http://purl.org/dc/elements/1.1/">
  <metadata
     id="metadata124">
    <rdf:RDF>
      <cc:Work
         rdf:about="">
        <dc:format>image/svg+xml</dc:format>
        <dc:type
           rdf:resource="http://purl.org/dc/dcmitype/StillImage" />
        <dc:title />
      </cc:Work>
    </rdf:RDF>
  </metadata>
  <defs
     id="defs122">
    <style
       type="text/css"
       id="current-color-scheme">
      .ColorScheme-Text {
        color:#1a1a1a;
      }
      .ColorScheme-Highlight {
        color:#7F7F7F;
      }
      </style>
    <inkscape:path-effect
       effect="bspline"
       id="path-effect1007"
       is_visible="true"
       weight="33.333333"
       steps="2"
       helper_size="0"
       apply_no_weight="true"
       apply_with_weight="true"
       only_selected="false" />
  </defs>
  <sodipodi:namedview
     pagecolor="#ffffff"
     bordercolor="#666666"
     borderopacity="1"
     objecttolerance="10"
     gridtolerance="10"
     guidetolerance="10"
     inkscape:pageopacity="1"
     inkscape:pageshadow="2"
     inkscape:window-width="1308"
     inkscape:window-height="768"
     id="namedview120"
     showgrid="true"
     showguides="true"
     inkscape:guide-bbox="true"
     inkscape:zoom="4.2440064"
     inkscape:cx="18.37886"
     inkscape:cy="49.010294"
     inkscape:window-x="0"
     inkscape:window-y="0"
     inkscape:window-maximized="1"
     inkscape:current-layer="svg118"
     inkscape:showpageshadow="2"
     inkscape:pagecheckerboard="0"
     inkscape:deskcolor="#d1d1d1" />
  <g
     id="update-medium"
     inkscape:label="#g889"
     transform="translate(-13.287391,-16.999956)">
    <rect
       width="32"
       height="32"
       x="13.287391"
       y="16.999956"
       style="opacity:0.00100002"
       id="rect14-6-67-9" />
    <path
       inkscape:connector-curvature="0"
       class="ColorScheme-Highlight"
       style="fill:#00ffff;fill-opacity:1;fill-rule:nonzero;stroke:#00ffff;stroke-width:2.20666;stroke-linejoin:miter;stroke-miterlimit:4;stroke-dasharray:none;stroke-opacity:1"
       d="M 30.788719,19.682088 A 13.239933,13.239933 0 0 0 21.43342,23.56672 l 1.037243,1.037244 a 11.76883,11.76883 0 0 1 8.318056,-3.450771 11.76883,11.76883 0 0 1 11.768829,11.768828 11.76883,11.76883 0 0 1 -11.768829,11.76883 11.76883,11.76883 0 0 1 -11.38094,-8.826622 H 17.91369 A 13.239933,13.239933 0 0 0 30.788719,46.161953 13.239933,13.239933 0 0 0 44.028653,32.922021 13.239933,13.239933 0 0 0 30.788719,19.682088 Z"
       id="path858-5-7" />
    <path
       style="fill:#00ffff;fill-opacity:1;stroke:none;stroke-width:1.74105;stroke-linecap:butt;stroke-linejoin:miter;stroke-dasharray:none;stroke-opacity:1"
       class="ColorScheme-Highlight"
       d="m 13.396461,34.999956 h 10.4463 l -5.22315,-5.22315 z"
       id="path870-6-0"
       inkscape:connector-curvature="0" />
  </g>
  <g
     id="update-none"
     inkscape:label="#g1017"
     style="fill:#ffff00"
     transform="translate(64)">
    <rect
       width="32"
       height="32"
       x="-96"
       y="0"
       style="opacity:0.00100002;fill:#ffff00"
       id="rect14-6-67-3" />
    <path
       d="m -84.664558,21.645516 -6.059254,-6.0726 -2.068688,2.055342 8.141288,8.141288 L -67.2075,8.2857955 -69.276188,6.2304538 Z"
       id="path2"
       inkscape:connector-curvature="0"
       style="fill:#00ffff;stroke-width:1.33464" />
  </g>
  <g
     id="update-medium-3"
     inkscape:label="#g889"
     transform="translate(-13.287391,15.000042)"
     style="fill:#ff0000">
    <rect
       width="32"
       height="32"
       x="13.287391"
       y="16.999956"
       style="opacity:0.00100002;fill:#ff0000"
       id="rect14-6-67-9-6" />
    <path
       inkscape:connector-curvature="0"
       class="ColorScheme-Highlight"
       style="color:#7f7f7f;fill:#00ffff;fill-opacity:1;fill-rule:nonzero;stroke:#00ffff;stroke-width:2.20666;stroke-linejoin:miter;stroke-miterlimit:4;stroke-dasharray:none;stroke-opacity:1"
       d="M 30.788719,19.682088 A 13.239933,13.239933 0 0 0 21.43342,23.56672 l 1.037243,1.037244 a 11.76883,11.76883 0 0 1 8.318056,-3.450771 11.76883,11.76883 0 0 1 11.768829,11.768828 11.76883,11.76883 0 0 1 -11.768829,11.76883 11.76883,11.76883 0 0 1 -11.38094,-8.826622 H 17.91369 A 13.239933,13.239933 0 0 0 30.788719,46.161953 13.239933,13.239933 0 0 0 44.028653,32.922021 13.239933,13.239933 0 0 0 30.788719,19.682088 Z"
       id="path858-5-7-7" />
    <path
       style="color:#7f7f7f;fill:#00ffff;fill-opacity:1;stroke:none;stroke-width:1.74105;stroke-linecap:butt;stroke-linejoin:miter;stroke-dasharray:none;stroke-opacity:1"
       class="ColorScheme-Highlight"
       d="m 13.396461,34.999956 h 10.4463 l -5.22315,-5.22315 z"
       id="path870-6-0-5"
       inkscape:connector-curvature="0" />
  </g>
  <g
     id="update-low"
     inkscape:label="#g889"
     transform="translate(-13.287391,-49.253224)">
    <rect
       width="32"
       height="32"
       x="13.287391"
       y="16.999956"
       style="opacity:0.00100002"
       id="rect14-6-67-9-62" />
    <path
       inkscape:connector-curvature="0"
       class="ColorScheme-Highlight"
       style="color:#7f7f7f;fill:#00ffff;fill-opacity:1;fill-rule:nonzero;stroke:#00ffff;stroke-width:2.20666;stroke-linejoin:miter;stroke-miterlimit:4;stroke-dasharray:none;stroke-opacity:1"
       d="M 30.788719,19.682088 A 13.239933,13.239933 0 0 0 21.43342,23.56672 l 1.037243,1.037244 a 11.76883,11.76883 0 0 1 8.318056,-3.450771 11.76883,11.76883 0 0 1 11.768829,11.768828 11.76883,11.76883 0 0 1 -11.768829,11.76883 11.76883,11.76883 0 0 1 -11.38094,-8.826622 H 17.91369 A 13.239933,13.239933 0 0 0 30.788719,46.161953 13.239933,13.239933 0 0 0 44.028653,32.922021 13.239933,13.239933 0 0 0 30.788719,19.682088 Z"
       id="path858-5-7-9" />
    <path
       style="color:#7f7f7f;fill:#00ffff;fill-opacity:1;stroke:none;stroke-width:1.74105;stroke-linecap:butt;stroke-linejoin:miter;stroke-dasharray:none;stroke-opacity:1"
       class="ColorScheme-Highlight"
       d="m 13.396461,34.999956 h 10.4463 l -5.22315,-5.22315 z"
       id="path870-6-0-1"
       inkscape:connector-curvature="0" />
  </g>
  <rect
     style="fill:#00ffff;stroke:#00ffff;stroke-width:0.773;stroke-linecap:square;stroke-linejoin:round;stroke-opacity:1;paint-order:fill markers stroke"
     id="rect1587"
     width="2.7265916"
     height="10.426824"
     x="16.386499"
     y="39.573174" />
  <rect
     style="fill:#00ffff;stroke:#00ffff;stroke-width:0.773;stroke-linecap:square;stroke-linejoin:round;stroke-opacity:1;paint-order:fill markers stroke"
     id="rect1589"
     width="3.1130915"
     height="3.7064543"
     x="16.193249"
     y="52.365513" />
</svg>
