<?xml version="1.0" encoding="UTF-8" standalone="no"?>
<svg
   width="24"
   height="16"
   id="svg3869"
   version="1.1"
   viewBox="0 0 24 16"
   inkscape:version="1.2.1 (9c6d41e410, 2022-07-14)"
   sodipodi:docname="window.svg"
   xmlns:inkscape="http://www.inkscape.org/namespaces/inkscape"
   xmlns:sodipodi="http://sodipodi.sourceforge.net/DTD/sodipodi-0.dtd"
   xmlns="http://www.w3.org/2000/svg"
   xmlns:svg="http://www.w3.org/2000/svg"
   xmlns:rdf="http://www.w3.org/1999/02/22-rdf-syntax-ns#"
   xmlns:cc="http://creativecommons.org/ns#"
   xmlns:dc="http://purl.org/dc/elements/1.1/">
  <sodipodi:namedview
     pagecolor="#ffffff"
     bordercolor="#666666"
     borderopacity="1"
     objecttolerance="10"
     gridtolerance="10"
     guidetolerance="10"
     inkscape:pageopacity="1"
     inkscape:pageshadow="2"
     inkscape:window-width="1312"
     inkscape:window-height="768"
     id="namedview17"
     showgrid="false"
     inkscape:zoom="32.165195"
     inkscape:cx="16.726154"
     inkscape:cy="9.4667544"
     inkscape:window-x="0"
     inkscape:window-y="0"
     inkscape:window-maximized="1"
     inkscape:current-layer="edit-delete"
     inkscape:showpageshadow="2"
     inkscape:pagecheckerboard="0"
     inkscape:deskcolor="#d1d1d1" />
  <metadata
     id="metadata26">
    <rdf:RDF>
      <cc:Work
         rdf:about="">
        <dc:format>image/svg+xml</dc:format>
        <dc:type
           rdf:resource="http://purl.org/dc/dcmitype/StillImage" />
        <dc:title />
      </cc:Work>
    </rdf:RDF>
  </metadata>
  <defs
     id="defs3871">
    <style
       type="text/css"
       id="current-color-scheme">
      .ColorScheme-Text {
        color:#1a1a1a;
      }
      .ColorScheme-Highlight {
        color:#7F7F7F;
      }
    </style>
  </defs>
  <g
     id="window-pin"
     inkscape:label="#g931">
    <rect
       id="rect15"
       width="8"
       height="8"
       x="16"
       y="8"
       style="opacity:1;fill:none" />
    <path
       id="path17"
       d="m 21,8 c -0.389252,0.389252 -0.468353,1.084344 -0.01563,1.84375 l -2.125,1.421875 C 18.595167,11.159021 18.311573,11.079534 18.031245,11.078125 17.66687,11.076275 17.3125,11.1875 17,11.5 l 1.5,1.5 -2,2 -0.5,1 1,-0.5 2,-2 1.5,1.5 c 0.553482,-0.553482 0.482374,-1.253884 0.234375,-1.859375 l 1.421875,-2.125 C 22.915656,11.468353 23.610748,11.389252 24,11 Z"
       style="fill:#00ffff;fill-opacity:1;stroke:none"
       class="ColorScheme-Text"
       inkscape:connector-curvature="0" />
  </g>
  <g
     id="window-unpin"
     inkscape:label="#g851">
    <path
       id="path20"
       d="m 21,0 c -0.389252,0.389252 -0.468353,1.084344 -0.01563,1.84375 l -2.125,1.421875 C 18.595167,3.159021 18.311573,3.079534 18.031245,3.078125 17.66687,3.076275 17.3125,3.1875 17,3.5 l 1.5,1.5 -2,2 -0.5,1 1,-0.5 2,-2 1.5,1.5 c 0.553482,-0.553482 0.482374,-1.253884 0.234375,-1.859375 l 1.421875,-2.125 C 22.915656,3.468353 23.610748,3.389252 24,3 Z"
       style="fill:#00ffff;fill-opacity:1;stroke:none"
       class="ColorScheme-Highlight"
       inkscape:connector-curvature="0" />
    <rect
       id="rect22"
       width="8"
       height="8"
       x="16"
       y="0"
       style="opacity:1;fill:none" />
  </g>
  <g
     id="window-list"
     inkscape:label="#g844">
    <rect
       ry="0"
       y="19.000002"
       x="-6"
       height="32"
       width="32"
       id="rect3004"
       style="opacity:0;fill:#333333;fill-opacity:1;stroke:none" />
    <path
       id="rect3008"
       d="m -2,23.00002 v 10 H 8 v -10 z m 1,1 h 8 v 8 h -8 z"
       style="fill:currentColor;fill-opacity:1"
       class="ColorScheme-Highlight"
       inkscape:connector-curvature="0" />
    <path
       id="rect3010"
       d="m 12,23.00002 v 10 h 10 v -10 z m 1,1 h 8 v 8 h -8 z"
       style="fill:currentColor;fill-opacity:1"
       class="ColorScheme-Text"
       inkscape:connector-curvature="0" />
    <path
       id="rect3012"
       d="m -2,37.00002 v 10 H 8 v -10 z m 1,1 h 8 v 8 h -8 z"
       style="fill:currentColor;fill-opacity:1"
       class="ColorScheme-Text"
       inkscape:connector-curvature="0" />
    <path
       id="rect3014"
       d="m 12,37.00002 v 10 h 10 v -10 z m 1,1 h 8 v 8 h -8 z"
       style="fill:currentColor;fill-opacity:1"
       class="ColorScheme-Highlight"
       inkscape:connector-curvature="0" />
  </g>
  <g
     id="edit-delete"
     inkscape:label="edit-delete"
     transform="matrix(3.7795277,0,0,3.7795277,1.99037,-942.54225)">
    <rect
       y="249.37494"
       x="-0.52916145"
       height="4.2333322"
       width="4.2333336"
       id="rect4253"
       style="opacity:1;fill:none;fill-opacity:1;stroke:none" />
    <rect
       style="opacity:1;fill:none;fill-opacity:0.950138;stroke-width:0.50000001;stroke-linecap:square;stroke-miterlimit:3.5;paint-order:fill markers stroke;stroke:#00ffff;stroke-opacity:1;stroke-dasharray:none"
       id="rect455"
       width="12.036722"
       height="12.036704"
       x="2.0053566"
       y="1.9794511"
       transform="matrix(0.26458332,0,0,0.26458332,-0.52661871,249.38096)" />
    <path
       inkscape:connector-curvature="0"
       d="m 2.1027617,250.77225 -0.5414468,0.54144 -0.53982,-0.54065 c -0.020461,-0.0203 -0.0892915,-0.0269 -0.13417017,0.018 -0.0448787,0.0449 -0.0391158,0.11347 -0.0188294,0.13375 l 0.54189337,0.54272 -0.53266084,0.53266 c -0.0196504,0.0199 -0.0416047,0.0916 0.009205,0.14243 0.0508095,0.0508 0.12191304,0.0258 0.14172134,0.006 l 0.5326609,-0.53266 0.5385319,0.53853 c 0.020592,0.0212 0.086565,0.0386 0.1451626,-0.02 0.058598,-0.0586 0.026313,-0.10874 0.00701,-0.12804 l -0.5422641,-0.54185 0.5393733,-0.53938 c 0.010825,-0.0103 0.052912,-0.0699 -0.011033,-0.1338 -0.063945,-0.0639 -0.125707,-0.0288 -0.1353314,-0.0192 z"
       id="Shape-6"
       class="ColorScheme-Highlight"
       style="fill:#00ffff;fill-opacity:1;fill-rule:nonzero;stroke:none;stroke-width:0.212314" />
  </g>
</svg>
