<?xml version="1.0" encoding="UTF-8" standalone="no"?>
<!-- Svg Vector Icons : http://www.onlinewebfonts.com/icon -->

<svg
   version="1.1"
   x="0px"
   y="0px"
   viewBox="0 0 1000 1000"
   enable-background="new 0 0 1000 1000"
   xml:space="preserve"
   id="svg10"
   sodipodi:docname="tux.svg"
   inkscape:version="1.2.1 (9c6d41e410, 2022-07-14)"
   xmlns:inkscape="http://www.inkscape.org/namespaces/inkscape"
   xmlns:sodipodi="http://sodipodi.sourceforge.net/DTD/sodipodi-0.dtd"
   xmlns="http://www.w3.org/2000/svg"
   xmlns:svg="http://www.w3.org/2000/svg"><defs
   id="defs14" /><sodipodi:namedview
   id="namedview12"
   pagecolor="#ffffff"
   bordercolor="#000000"
   borderopacity="0.25"
   inkscape:showpageshadow="2"
   inkscape:pageopacity="0.0"
   inkscape:pagecheckerboard="0"
   inkscape:deskcolor="#d1d1d1"
   showgrid="false"
   inkscape:zoom="0.93338095"
   inkscape:cx="447.83429"
   inkscape:cy="1026.9119"
   inkscape:window-width="1312"
   inkscape:window-height="768"
   inkscape:window-x="0"
   inkscape:window-y="0"
   inkscape:window-maximized="1"
   inkscape:current-layer="svg10" />
<metadata
   id="metadata2"> Svg Vector Icons : http://www.onlinewebfonts.com/icon </metadata>
<path
   d="M 870.8,806.1 C 856.1,797.4 841.9,782 844.6,765 c 5,-33.5 5.5,-47 -0.4,-56.4 -4.2,-7 -12,-10.9 -18.8,-12.7 4.4,-5.5 6.8,-11.8 8.3,-23.8 4,-31 -7.1,-67.1 -14.5,-96.8 C 809.5,536.2 796.6,500.9 774.5,467 738.4,411.6 693,364.6 661,306.3 639.8,242.9 651.6,203.3 650.5,161.5 648.6,80 591.7,10 509.3,10 h -30.6 c -82,0 -126.8,58.8 -126.8,131.2 1.5,36.4 3,72.9 4.4,109.3 1.7,43.2 4.3,82.4 -17.5,120.9 -15.4,27.3 -42.8,49.1 -62.5,73.2 -20.8,25.5 -28.6,51.8 -39.1,82.3 -13.1,38.1 -46.5,67.6 -54.4,107 -3.6,18.1 6,39.1 -1.8,54 -8.1,15.5 -1.8,31.6 -6.2,47.4 -7.7,25.7 -45.3,23.5 -66.1,25.2 -38.5,3.2 -24.2,39.3 -17.2,65 12.2,44.7 -42.7,92 24.1,110.4 30.6,8.4 62.5,11.2 93.4,18.2 30.6,6.9 58.9,18.8 88.3,29 22.9,7.9 44.3,9.1 66.3,-2.7 24,-12.8 41.4,-33 69.3,-37.2 54,-8.1 119.9,-9.1 173.6,1.4 16.4,3.2 22,14.3 32.6,25.7 17.8,19.3 47,22.1 71.7,18 26,-4.4 45.6,-20.7 64.9,-37.4 27.4,-23.7 57.2,-39.4 89.2,-55.9 16.3,-8.4 48.5,-20.5 52.8,-41.3 5.2,-24.5 -30.9,-38.1 -46.9,-47.6 z M 380.2,927 c -2.8,28.4 -30.4,44.4 -55.5,42.2 -42.6,-3.6 -82.8,-26.8 -125,-34.4 -20.6,-3.8 -103.6,-7 -102.7,-37.4 0.5,-16.1 12.6,-25.5 16.5,-40.3 6.1,-22.9 -12.6,-43.6 -13.8,-66 -1,-17.7 23.5,-16.6 35.6,-17.6 19.2,-1.5 41.9,-4.4 51.6,-24.2 3.5,-7.2 -1.1,-32.8 4.2,-47.7 7.7,-22.2 33.9,-19.6 51,-10.7 38.8,19.8 63.3,77.7 84.3,113.3 21.1,36.3 58.3,78.1 53.8,122.8 z M 634.6,783.5 c 5,25.8 9.2,53.3 3.7,79.4 -4.4,20.8 -18.7,34.1 -27.8,52.5 -4.8,-14.9 24.7,-36.5 21.4,-73.7 -0.1,-1 -2.1,-23.8 -2.3,-23.7 -4.3,2.4 -8.4,11.1 -11.6,14.7 -10.5,11.8 -23.6,21.1 -36.6,29.9 -30.2,20.4 -63.9,32.9 -100.2,36.4 -45.9,4.4 -83.1,-23 -83.1,-23 5.5,18.2 19.7,45.9 2.4,61.9 3.8,-34.2 -10.7,-61.4 -25.4,-91.2 101.4,-53.9 -90.5,-140.8 -115.9,-174.5 -22.9,-30.4 -12.1,-69.6 -5.9,-95.1 -7.5,30.1 -8.7,91.8 30.6,102.4 17.3,4.7 12.3,-81.1 13.1,-90.7 3.5,-40 16.9,-78.7 40.1,-111.6 7.4,-10.5 4.1,-20.8 5.8,-33.5 3.7,-23.3 16,-44.9 29.5,-63.9 11.3,-15.8 3.8,-27.6 6.6,-46 1.6,-10.5 11.2,7 12.7,9.4 8.7,14.2 36.5,49.6 54,48.1 29,-2.5 54,-34.9 78.8,-48.2 7.9,-4.2 31.5,-11.5 34.7,-21.1 3.9,-11.7 -27.7,-0.4 -30.9,1.3 -23.6,12.1 -67.8,46.9 -95.9,33.4 -19.2,-9.2 -23.4,-32.8 -37.6,-44.8 33.7,29.7 47,23 60.4,19.9 21.1,-4.8 41.1,-14.2 60.8,-23 9.2,-4.1 44,-8.8 48.8,-19 6,-12.8 -11,-14.7 -17.6,-7.8 -13.7,14.2 -34.7,19.6 -52.7,25.8 -41.3,14.1 -82.3,20 -113.4,-18.8 -18.3,-22.3 34,-49.2 48.6,-63 0,0 2.2,-15.7 -1.3,-27.8 -4.2,-14.2 -17.1,-20.3 -26,-17.7 -9,2.4 -17.5,12 -14.9,32.4 2.2,18.2 15.3,24.1 15.3,24.1 0,0 -5.9,7.7 -11.4,10.3 0,0 -1.8,-0.7 -7.7,-13.8 -5.9,-13.1 -14.4,-42.6 -0.7,-68 13.8,-25.4 42.9,-11.4 52.1,8.3 8.5,18.2 5.2,49.6 5.2,49.6 7.3,-1.8 14.9,-2.8 22.5,-2.8 9.3,0 14.9,10 23.2,10.5 -1.4,0 -1.2,-39.6 -0.5,-43.9 2.4,-14.2 9,-29.8 21.7,-37.7 35.2,-25.1 75.7,8.6 75.7,46.4 0.1,9.8 -0.3,20.2 -2.6,29.7 -1.4,5.8 -3.5,18.5 -11.2,20.1 -2.5,0.5 -23.4,-0.9 -17.5,-7.2 28,-28 -4,-83.6 -38.1,-53.6 -12.3,9.2 -12,30.3 -10.5,43.7 2.4,20 44.9,25.2 58.7,30.1 18,6.3 17.4,21.1 14.6,37.4 -4.2,24.6 -6.2,41.1 9.6,61.7 16.1,21 28.3,43.9 34.8,69.7 3.2,12.8 3.6,23.7 12.3,34.1 13.1,15.6 23.2,32.4 29.1,52.1 11.4,38.5 14.2,77.5 13.5,117.3 -1.1,17.9 -4.6,32.8 18.2,21.2 8.7,-4.4 14.2,-6.3 24.1,-8.1 6.8,-13.8 9.6,-40 9.8,-53.1 0.4,-29.5 -0.7,-90.8 -60.6,-156.4 0,0 62.3,47.5 72.2,135.6 5.5,48.8 -4.4,75.2 -4.4,75.2 11.6,2.8 23.6,11.6 29.7,21.4 -0.3,-0.5 2.3,3.8 2.6,4.1 -21.5,-17.9 -69.3,-28.1 -86.8,0.5 -4.4,7.2 -6.8,16.6 -7,25.6 -15.5,-2.6 -27.1,0 -36.7,10.7 -12.6,15.5 -6.5,53.1 -2.1,75.8 4.3,22.6 -4.4,-22.7 0,0 z M 420.9,213.2 c -0.4,-10.7 -4.6,-19.7 -10.3,-23.6 0.7,-0.7 1.8,-1.5 3.7,-0.9 3.1,0.9 7.7,5.9 9.4,13.8 1.5,6.3 0.9,16.8 -3.1,16.8 0.1,-2 0.2,-4.1 0.3,-6.1 -0.4,-10.7 0,1.9 0,0 z m 119.6,-26.3 c 0.9,-0.7 2.4,-1.3 5,-0.7 3.9,0.9 9.6,6.1 11.6,13.6 1.5,6.1 0.2,16.2 -4.8,16 0,-2 0.1,-3.9 0.4,-5.9 -0.1,-10.1 -5,-18.8 -12.2,-23 0.9,-0.6 7.2,4.2 0,0 z m 299.9,699.9 c -38.3,16.5 -68.5,43.7 -103,66 -30.2,19.5 -83.4,18.2 -87.5,-28.2 -3.4,-38.9 9.2,-77.2 4,-116.7 -3.5,-26.8 -18.7,-63.2 -5,-89.3 5.9,-11.2 17.7,-12 27.3,-8.7 7,29 30.5,51.6 61.2,51.6 37.2,0 51.5,-30.6 74.4,-53.6 7.4,0.4 16.2,2.4 19.2,10.5 5,12.7 -4.2,38.3 -3.9,48.8 0.7,34.3 19.7,42 57.7,63.4 33.4,19.2 9.1,33 -44.4,56.2 -52.7,22.7 53.5,-23.2 0,0 z"
   id="path6"
   style="fill:#003232;stroke:#00ffff;stroke-opacity:1;stroke-width:5;stroke-dasharray:none" />
<path
   style="fill:#00ffff;stroke:#00ffff;stroke-width:4.94;stroke-linecap:square;stroke-linejoin:bevel;stroke-miterlimit:2.8;paint-order:markers fill stroke"
   d="m 294.08418,961.91911 c -10.06421,-2.73566 -31.99369,-9.6474 -48.73217,-15.3594 -20.02304,-6.83287 -43.0105,-12.26763 -67.2001,-15.88764 -44.46241,-6.65386 -60.35759,-11.13217 -70.8506,-19.96146 -10.302941,-8.66935 -10.333045,-17.5863 -0.12396,-36.71768 9.78462,-18.33597 10.08267,-31.17239 1.30704,-56.29019 -12.131494,-34.723 -9.137323,-39.1428 29.50374,-43.55156 25.69538,-2.93173 41.07891,-9.24708 47.57845,-19.53226 1.99882,-3.16303 4.10517,-15.5406 4.7486,-27.90423 1.3906,-26.72084 5.12994,-35.12732 17.43108,-39.18706 7.44812,-2.4581 11.97625,-2.2087 24.14929,1.3301 20.75443,6.03348 43.34148,29.39642 65.75311,68.01179 18.25963,31.46147 40.33075,68.30109 57.89122,96.62813 48.01885,77.45989 18.19675,130.07267 -61.4557,108.42146 z"
   id="path1230" /><path
   style="fill:#00ffff;stroke:#00ffff;stroke-width:4.94;stroke-linecap:square;stroke-linejoin:bevel;stroke-miterlimit:2.8;paint-order:markers fill stroke"
   d="m 400.58793,910.7567 c -1.92127,-12.07528 -7.08846,-28.08786 -13.43233,-41.62533 l -10.30992,-22.00081 9.20961,-5.69185 c 18.7216,-11.57058 24.08694,-32.01644 13.72937,-52.31894 -7.77498,-15.24023 -34.09836,-39.81719 -69.59644,-64.97911 -65.25669,-46.25555 -68.80504,-49.247 -75.51862,-63.66601 -3.45442,-7.41919 -6.25386,-16.43029 -6.22097,-20.02465 0.0395,-4.31685 1.74108,-1.66423 5.01278,7.81451 6.14169,17.79363 20.48492,32.11231 30.95665,30.90364 5.9378,-0.68536 7.53509,-2.67261 10.10927,-12.57734 1.68148,-6.46985 3.1519,-27.13377 3.2676,-45.91984 0.1157,-18.78608 1.44668,-41.13647 2.95772,-49.66756 5.29078,-29.87084 18.69842,-64.13918 35.14831,-89.8349 3.96416,-6.19223 6.53541,-15.30158 7.65074,-27.10476 2.12244,-22.4611 8.95886,-40.77457 23.73705,-63.58705 11.03042,-17.02721 11.64415,-18.96446 11.69715,-36.92216 0.0308,-10.42365 1.17576,-18.95209 2.54443,-18.95209 1.36868,0 6.31927,5.5876 11.00133,12.41688 11.57248,16.87974 30.55819,36.91402 39.23322,41.40005 15.83519,8.1887 34.09793,1.41951 67.61544,-25.06204 10.00859,-7.90759 27.3164,-19.08279 38.46177,-24.83377 15.04927,-7.76538 20.47932,-11.96999 21.09966,-16.33801 0.70267,-4.94752 -0.37713,-5.88168 -6.79865,-5.88168 -11.38513,0 -22.81337,4.5966 -49.37457,19.85921 -49.3008,28.32924 -68.86959,28.90043 -87.00631,2.53961 -4.38102,-6.3676 -7.96549,-12.20808 -7.96549,-12.97885 0,-0.77078 4.18047,1.06513 9.28992,4.07978 14.96115,8.82729 37.18916,5.90451 77.07986,-10.1353 17.91402,-7.20311 38.73306,-14.54991 46.26454,-16.32622 16.88383,-3.98205 27.403,-11.72245 26.31342,-19.36238 -1.32834,-9.31416 -12.90796,-8.58169 -26.33274,1.66568 -7.10162,5.4208 -23.16144,12.79928 -41.3938,19.01787 -26.23563,8.9483 -32.7535,10.17101 -54.62406,10.24712 -19.56107,0.0681 -27.03545,-1.0052 -35.20341,-5.05504 -14.40252,-7.14106 -30.14863,-23.46506 -30.14863,-31.2551 0,-8.6827 10.63803,-20.58405 33.53417,-37.51655 l 19.31662,-14.28531 -1.05661,-16.59373 c -1.15272,-18.10311 -7.31233,-27.94342 -19.38861,-30.97437 -7.29846,-1.8318 -20.54985,4.1804 -22.9395,10.40773 -5.31918,13.86157 0.0582,39.43787 9.66941,45.99057 3.25767,2.221 -0.17157,7.48099 -4.87722,7.48099 -9.2957,0 -19.56224,-43.75676 -14.53884,-61.96558 6.74875,-24.46282 22.9406,-33.00077 41.32546,-21.79086 12.29978,7.49961 17.2067,19.06681 18.55102,43.73071 l 1.1667,21.40519 12.54613,-1.48591 c 9.99437,-1.18368 14.37853,-0.35342 21.55537,4.08211 4.95507,3.06241 9.75263,5.56801 10.66124,5.56801 0.9086,0 1.6635,-10.88111 1.67755,-24.18025 0.0212,-19.93096 1.11634,-26.52288 6.23266,-37.51075 14.2699,-30.64621 47.55714,-37.53785 71.06019,-14.71199 12.93581,12.5631 16.79124,23.04493 16.77396,45.60357 -0.0235,32.38613 -5.78454,44.53483 -19.84022,41.84791 -7.44687,-1.42356 -7.78364,-3.71857 -1.87012,-12.74377 6.21723,-9.4887 5.46827,-29.67383 -1.52064,-40.98212 -10.61743,-17.17938 -31.8988,-19.12336 -46.17877,-4.21829 -6.74911,7.04457 -7.71347,10.14002 -8.5945,27.58698 -0.88638,17.55288 -0.36278,20.32225 4.9018,25.92614 5.4804,5.83361 22.92408,12.79699 48.52167,19.36944 19.30899,4.95779 21.66909,11.17966 18.05972,47.61063 -2.64268,26.67382 -0.6136,35.39448 12.79031,54.97035 16.29506,23.7983 27.36988,46.95163 33.01405,69.02007 5.52392,21.59836 7.38886,25.63541 19.86393,42.99979 22.79534,31.72949 31.79069,67.67118 34.16098,136.49357 1.05899,30.74845 2.56791,46.49756 4.47327,46.6893 1.58139,0.1592 5.72303,0.0486 9.20363,-0.24573 6.2035,-0.52441 6.16447,-0.37104 -1.97792,7.77136 -4.80771,4.80768 -9.53076,13.16903 -11.21336,19.85123 -2.7684,10.99433 -3.35975,11.54538 -12.39951,11.55468 -10.58057,0.0105 -24.7117,7.47868 -28.87611,15.25994 -5.73242,10.71112 -5.95428,32.95327 -0.65595,65.76682 8.2721,51.2309 8.9348,60.35851 5.69684,78.46811 -2.72366,15.2333 -14.46042,41.29569 -17.31246,38.44365 -0.62278,-0.62278 1.82209,-7.47907 5.43308,-15.23617 5.31803,-11.42419 6.57028,-18.17203 6.59096,-35.51575 0.0274,-23.09669 -2.96259,-28.79965 -9.82372,-18.73625 -12.62774,18.52155 -54.87694,48.16757 -85.70324,60.13745 -27.99794,10.87165 -60.57839,15.93277 -81.27812,12.62598 -17.62255,-2.8152 -38.52367,-10.11848 -49.45374,-17.28015 -3.59264,-2.35398 -7.04631,-3.76574 -7.67483,-3.13721 -0.62853,0.62853 1.1637,8.72816 3.98273,17.99916 5.42909,17.8548 6.36618,27.91164 3.08221,33.07848 -1.1369,1.78874 -3.35346,-5.33495 -5.12557,-16.47284 z"
   id="path1232" /><path
   style="fill:#00ffff;stroke:#00ffff;stroke-width:4.94;stroke-linecap:square;stroke-linejoin:bevel;stroke-miterlimit:2.8;paint-order:markers fill stroke"
   d="m 685.69987,961.60779 c -15.24704,-2.66387 -23.14319,-8.57896 -29.79499,-22.31975 -5.19918,-10.74006 -5.56436,-14.37444 -4.04949,-40.30173 0.91576,-15.67342 2.39957,-41.14275 3.29735,-56.59851 1.33633,-23.00553 0.62528,-33.02621 -3.92112,-55.2597 -9.31391,-45.54824 -6.41131,-70.30545 8.92649,-76.13687 9.19729,-3.49681 13.63965,-0.83736 19.09133,11.42914 11.70058,26.32676 30.91063,39.39104 57.92158,39.39104 22.84241,0 33.96352,-6.22783 57.32822,-32.10383 19.74058,-21.86237 23.78699,-23.47212 33.10892,-13.1715 4.14252,4.57743 4.22881,7.11716 1.05624,31.08726 -5.53855,41.84611 -1.03511,50.92292 36.20087,72.96403 29.60264,17.52271 35.95308,23.77721 31.8763,31.39476 -3.9051,7.29674 -18.01338,15.97799 -47.64629,29.3182 -28.27792,12.73021 -44.8155,22.61831 -84.47641,50.50987 -15.81519,11.12205 -32.10312,21.96127 -36.1954,24.08716 -10.38018,5.39238 -29.73622,7.97951 -42.7236,5.71043 z"
   id="path1234" /><path
   style="fill:#00ffff;stroke:#00ffff;stroke-width:4.94;stroke-linecap:square;stroke-linejoin:bevel;stroke-miterlimit:2.8;paint-order:markers fill stroke"
   d="m 743.70622,657.08176 c -6.83499,-2.5575 -16.99085,-3.60925 -29.32426,-3.03686 -20.10148,0.93289 -21.32806,-0.80878 -4.63876,-6.58676 8.94999,-3.09857 10.80467,-5.14096 13.71082,-15.09852 9.44329,-32.35624 6.32269,-83.38355 -7.39864,-120.98089 -8.52211,-23.35114 -8.34363,-28.84189 0.38158,-11.73907 20.51048,40.20387 27.69814,91.88558 19.26126,138.49499 -1.5212,8.40387 -1.02875,9.63082 4.45594,11.10207 6.57062,1.76254 21.02465,12.09591 16.62247,11.88361 -1.43775,-0.0693 -7.31943,-1.8867 -13.07041,-4.03857 z"
   id="path1236" /><path
   style="fill:#00ffff;stroke:#00ffff;stroke-width:2.01969;stroke-linecap:square;stroke-linejoin:bevel;stroke-miterlimit:2.8;paint-order:markers fill stroke"
   d="m 421.08874,213.08961 c 0,-7.47923 -2.70439,-15.79306 -6.56911,-20.19473 -2.58134,-2.93998 -2.88744,-3.72557 -1.45167,-3.72557 2.55829,0 7.62548,5.7405 9.23129,10.45791 1.75039,5.14212 1.8159,15.79952 0.10762,17.5078 -1.045,1.045 -1.31813,0.20676 -1.31813,-4.04541 z"
   id="path1238" /><path
   style="fill:#00ffff;stroke:#00ffff;stroke-width:2.01969;stroke-linecap:square;stroke-linejoin:bevel;stroke-miterlimit:2.8;paint-order:markers fill stroke"
   d="m 553.01358,211.88031 c 0.95227,-4.38655 -2.27025,-15.22495 -5.86004,-19.70926 -1.737,-2.16984 -3.15819,-4.21383 -3.15819,-4.5422 0,-1.33934 3.09482,-0.45797 5.76383,1.64148 5.9712,4.69694 8.81193,15.4614 6.01891,22.8076 -1.41983,3.73443 -3.58452,3.57969 -2.76451,-0.19762 z"
   id="path1246" /><path
   style="fill:#00ffff;stroke:#00ffff;stroke-width:2.01969;stroke-linecap:square;stroke-linejoin:bevel;stroke-miterlimit:2.8;paint-order:markers fill stroke"
   d="m 703.65821,484.43209 c -6.65718,-11.69558 -10.47264,-17.76894 -16.02253,-25.50433 -3.22615,-4.49659 -5.65707,-8.38428 -5.40204,-8.63931 1.03903,-1.03903 22.47793,26.41698 26.24794,33.61477 1.02975,1.96604 0.96773,2.73493 -0.3249,4.02755 -1.41766,1.41767 -1.92438,1.02357 -4.49847,-3.49868 z"
   id="path1248" /><path
   style="fill:#00ffff;stroke:#00ffff;stroke-width:0.937879;stroke-linecap:square;stroke-linejoin:bevel;stroke-miterlimit:2.8;paint-order:markers fill stroke"
   d="m 245.87945,635.49639 c -0.63585,-3.38942 0.14967,-21.46584 1.21817,-28.03236 2.28925,-14.06865 2.38364,-14.0249 2.14125,0.99259 -0.17182,10.64569 -0.0432,15.09016 0.5847,20.20334 0.44273,3.60539 0.80497,6.7569 0.80497,7.00337 0,0.24647 -0.56615,0.33989 -1.25812,0.20761 -0.777,-0.14853 -1.619,0.0861 -2.20177,0.61348 -0.90851,0.82219 -0.9565,0.78541 -1.2892,-0.98803 z"
   id="path1256" /><path
   style="fill:#00ffff;stroke:#00ffff;stroke-width:0.287942;stroke-linecap:square;stroke-linejoin:bevel;stroke-miterlimit:2.8;paint-order:markers fill stroke"
   d="m 679.79589,449.38371 c -1.87159,-2.41399 -6.51672,-7.97492 -9.17089,-10.97897 -1.20319,-1.36181 -2.13462,-2.4741 -2.06985,-2.47177 0.39286,0.0141 8.4635,7.50201 11.6474,10.80635 l 2.26829,2.35409 -0.52819,0.21066 c -0.54656,0.218 -0.80067,0.75724 -0.71569,1.51877 0.021,0.18856 0.0162,0.33985 -0.0107,0.33622 -0.027,-0.004 -0.66609,-0.80255 -1.42032,-1.77535 z"
   id="path1258" /><path
   style="fill:#00ffff;stroke:#00ffff;stroke-width:0.287942;stroke-linecap:square;stroke-linejoin:bevel;stroke-miterlimit:2.8;paint-order:markers fill stroke"
   d="m 706.49235,491.15452 c -0.47842,-0.96113 -0.86985,-1.77696 -0.86985,-1.81297 0,-0.036 0.18855,0.0329 0.41901,0.15311 0.23046,0.12022 0.59761,0.219 0.81588,0.21952 0.39607,9.4e-4 0.39703,0.004 0.48289,1.56233 0.0473,0.85876 0.0716,1.57582 0.054,1.59345 -0.0176,0.0176 -0.42349,-0.75432 -0.90192,-1.71544 z"
   id="path1260" /><path
   style="fill:#00ffff;stroke:#00ffff;stroke-width:0.287942;stroke-linecap:square;stroke-linejoin:bevel;stroke-miterlimit:2.8;paint-order:markers fill stroke"
   d="m 710.46858,487.16888 c -0.22635,-0.0345 -0.38593,-0.14397 -0.35556,-0.24382 0.0303,-0.0996 0.10056,-0.3862 0.15612,-0.63683 l 0.10102,-0.45567 0.36804,0.60804 c 0.38135,0.63005 0.45128,0.85293 0.25532,0.81378 -0.0629,-0.0126 -0.29908,-0.051 -0.52494,-0.0855 z"
   id="path1262" /><path
   style="fill:#00ffff;stroke:#00ffff;stroke-width:0.287942;stroke-linecap:square;stroke-linejoin:bevel;stroke-miterlimit:2.8;paint-order:markers fill stroke"
   d="m 765.35129,669.33218 c -1.57073,-1.22797 -4.59165,-3.23019 -6.75983,-4.4803 -1.92364,-1.10912 -1.94172,-1.14791 -0.635,-1.36262 0.74965,-0.12317 1.86228,-1.17004 2.0057,-1.88716 0.0532,-0.26585 0.14658,-0.46354 0.20757,-0.43931 0.18281,0.0726 1.35601,1.47841 2.45277,2.93906 0.97456,1.29791 4.01011,6.01944 3.91569,6.09051 -0.0243,0.0183 -0.55838,-0.36881 -1.1869,-0.86018 z"
   id="path1264" /><path
   style="fill:#00ffff;stroke:#00ffff;stroke-width:0.287942;stroke-linecap:square;stroke-linejoin:bevel;stroke-miterlimit:2.8;paint-order:markers fill stroke"
   d="m 693.58532,658.78681 c 0,-0.0203 0.14437,-0.33566 0.32083,-0.70089 0.45521,-0.94216 0.36093,-2.32858 -0.21484,-3.15941 -0.44334,-0.63973 -1.38858,-1.26196 -1.91708,-1.26196 -0.66695,0 -0.25961,-0.28308 1.84918,-1.28511 2.84742,-1.353 2.62841,-1.28508 2.33903,-0.72547 -0.36696,0.70962 -0.31605,2.10297 0.10392,2.84448 0.3882,0.6854 1.23274,1.30694 2.24241,1.65028 0.57378,0.19512 0.63594,0.25168 0.38092,0.34663 -0.9468,0.35251 -3.90213,1.65634 -4.45594,1.96588 -0.35664,0.19932 -0.64843,0.34583 -0.64843,0.32557 z"
   id="path1266" /><path
   style="fill:#00ffff;stroke:#00ffff;stroke-width:1.00499;stroke-linecap:square;stroke-linejoin:bevel;stroke-miterlimit:2.8;paint-order:markers fill stroke"
   d="m 610.46038,913.36622 c -0.22863,-4.68135 1.38659,-9.80984 5.33299,-16.93279 1.86896,-3.37333 2.04591,-3.54347 2.36462,-2.27363 0.23686,0.94371 0.842,1.50148 1.93677,1.78516 l 1.59227,0.4126 -2.50905,3.72234 c -1.37997,2.04729 -3.89438,6.11164 -5.58756,9.03188 -1.8161,3.13224 -3.09965,4.87687 -3.13004,4.25444 z"
   id="path1268" /><path
   style="fill:#00ffff;stroke:#00ffff;stroke-width:1.00499;stroke-linecap:square;stroke-linejoin:bevel;stroke-miterlimit:2.8;paint-order:markers fill stroke"
   d="m 400.98081,935.34944 c 0,-0.73931 0.1495,-2.77446 0.33221,-4.52256 l 0.3322,-3.17837 1.23904,1.23904 c 0.68147,0.68147 1.6242,1.23903 2.09495,1.23903 0.73016,0 0.68038,0.3123 -0.33882,2.12573 -0.6571,1.16915 -1.74932,2.64674 -2.42715,3.28353 l -1.23243,1.1578 z"
   id="path1270" /></svg>
