<?xml version="1.0" encoding="UTF-8" standalone="no"?>
<svg
   xmlns:dc="http://purl.org/dc/elements/1.1/"
   xmlns:cc="http://creativecommons.org/ns#"
   xmlns:rdf="http://www.w3.org/1999/02/22-rdf-syntax-ns#"
   xmlns:svg="http://www.w3.org/2000/svg"
   xmlns="http://www.w3.org/2000/svg"
   xmlns:sodipodi="http://sodipodi.sourceforge.net/DTD/sodipodi-0.dtd"
   xmlns:inkscape="http://www.inkscape.org/namespaces/inkscape"
   id="svg2"
   width="70.000053"
   height="63.999966"
   version="1.0"
   sodipodi:docname="computer.svg"
   inkscape:version="0.92.4 (5da689c313, 2019-01-14)">
  <sodipodi:namedview
     pagecolor="#ffffff"
     bordercolor="#666666"
     borderopacity="1"
     objecttolerance="10"
     gridtolerance="10"
     guidetolerance="10"
     inkscape:pageopacity="1"
     inkscape:pageshadow="2"
     inkscape:window-width="1366"
     inkscape:window-height="701"
     id="namedview24"
     showgrid="true"
     showguides="true"
     inkscape:guide-bbox="true"
     inkscape:pagecheckerboard="false"
     inkscape:zoom="7.8906342"
     inkscape:cx="35.000024"
     inkscape:cy="31.999966"
     inkscape:window-x="0"
     inkscape:window-y="0"
     inkscape:window-maximized="1"
     inkscape:current-layer="svg2" />
  <metadata
     id="metadata7">
    <rdf:RDF>
      <cc:Work
         rdf:about="">
        <dc:format>image/svg+xml</dc:format>
        <dc:type
           rdf:resource="http://purl.org/dc/dcmitype/StillImage" />
        <dc:title></dc:title>
      </cc:Work>
    </rdf:RDF>
  </metadata>
  <defs
     id="defs5">
    <style
       id="current-color-scheme"
       type="text/css">
      .ColorScheme-Text {
        color:#1a1a1a;
      }
      .ColorScheme-Highlight {
        color:#7F7F7F;
      }
</style>
  </defs>
  <g
     id="22-22-computer"
     inkscape:label="#g859">
    <rect
       style="opacity:0.01000001;fill:#00000f;fill-opacity:0.00392157;stroke:none;stroke-width:0.75000101"
       id="rect3074"
       width="22.00001"
       height="21.999983"
       x="16"
       y="41.999977" />
    <rect
       y="47.999966"
       x="20"
       height="7.0000019"
       width="14"
       id="rect878-3"
       class="ColorScheme-Highlight"
       style="opacity:1;fill:currentColor;fill-opacity:1;fill-rule:nonzero;stroke:none;stroke-width:0.97072542;stroke-linejoin:miter;stroke-miterlimit:4;stroke-dasharray:none;stroke-opacity:1" />
    <path
       style="fill:currentColor;fill-opacity:1;stroke:none"
       class="ColorScheme-Text"
       d="m 17.000001,45.000001 v 14 L 24,58.999964 v 2 l -1.999999,3.7e-5 v 1 h 10 v -1 l -2.000002,-3.7e-5 v -2 l 7.000002,3.7e-5 v -14 z m 1,1 h 18 v 11 h -18 z M 25,58.999964 h 3.999999 v 2 H 25 Z"
       id="rect7235"
       inkscape:connector-curvature="0" />
  </g>
  <g
     id="computer"
     inkscape:label="#g851">
    <rect
       y="32.000004"
       x="38"
       height="31.999958"
       width="31.999998"
       id="rect3018"
       style="opacity:0.01000001;fill:#00000f;fill-opacity:0.00392157;stroke:none;stroke-width:1.09090996" />
    <rect
       y="38.999966"
       x="42.954552"
       height="13.000001"
       width="22.045448"
       id="rect878"
       class="ColorScheme-Highlight"
       style="opacity:1;fill:currentColor;fill-opacity:1;fill-rule:nonzero;stroke:none;stroke-width:1.66002429;stroke-linejoin:miter;stroke-miterlimit:4;stroke-dasharray:none;stroke-opacity:1" />
    <path
       style="fill:currentColor;fill-opacity:1;stroke:none"
       d="m 39.999998,36.011717 v 19.988281 h 11 v 3 h -3 v 1 h 12 v -1 h -3 v -3 h 11 V 36.011717 Z m 1,1 h 26 L 67,53.999966 H 41 Z m 11,18.988281 h 4 v 3 h -4 z"
       id="path3020"
       class="ColorScheme-Text"
       inkscape:connector-curvature="0" />
  </g>
  <g
     id="16-16-computer-laptop"
     inkscape:label="#g875">
    <rect
       style="opacity:0.01000001;fill:#31363b;fill-opacity:0.00392157;stroke:none;stroke-width:0.54545653"
       id="rect3042"
       width="16.000059"
       height="16.000036"
       x="-1.4410018e-06"
       y="15.999921" />
    <rect
       y="21.999966"
       x="5"
       height="3.0000007"
       width="6"
       id="rect878-3-7"
       class="ColorScheme-Highlight"
       style="opacity:1;fill:currentColor;fill-opacity:1;fill-rule:nonzero;stroke:none;stroke-width:0.41602513;stroke-linejoin:miter;stroke-miterlimit:4;stroke-dasharray:none;stroke-opacity:1" />
    <path
       class="ColorScheme-Text"
       id="path3044"
       d="m 3.0815506,19.999886 v 7.000061 H 1.0454542 c 0,1.090913 1.3181938,1.999971 1.3181938,1.999971 h 11.272764 c 0,0 1.318161,-0.909058 1.318161,-1.999971 h -1.873021 v -7.000061 z m 1.0000017,1.00004 H 12.08155 v 4.999981 H 4.0815523 Z"
       style="fill:currentColor;fill-opacity:1;stroke:none;stroke-width:0.54545653"
       inkscape:connector-curvature="0" />
  </g>
  <g
     id="16-16-computer"
     inkscape:label="#g867">
    <rect
       style="opacity:0.01000001;fill:#00000f;fill-opacity:0.00392157;stroke:none;stroke-width:0.54506987"
       id="rect3034"
       width="15.988703"
       height="15.988683"
       x="-1.2044092e-06"
       y="48.011276" />
    <path
       id="path3036"
       style="fill:currentColor;fill-opacity:1;stroke:none;stroke-width:0.54506987"
       d="m 4.0000023,61.007028 h 7.9999967 v 1.004253 H 4.0000023 Z m 2.5408378,-0.995739 h 2.9070322 v 0.995728 H 6.5408401 Z M 0.99929987,50.015497 v 9.995781 H 14.989413 v -9.995781 z m 1.00069923,0.995783 12.0000029,6e-6 V 58.01128 H 1.9999991 Z"
       class="ColorScheme-Text"
       inkscape:connector-curvature="0" />
    <rect
       y="51.999966"
       x="4"
       height="5"
       width="8"
       id="rect878-3-6"
       class="ColorScheme-Highlight"
       style="opacity:1;fill:currentColor;fill-opacity:1;fill-rule:nonzero;stroke:none;stroke-width:0.62017369;stroke-linejoin:miter;stroke-miterlimit:4;stroke-dasharray:none;stroke-opacity:1" />
  </g>
  <g
     id="22-22-computer-laptop"
     inkscape:label="#g883">
    <rect
       style="opacity:0.01000001;fill:#31363b;fill-opacity:0.00392157;stroke:none;stroke-width:0.75"
       id="rect7292"
       width="22.000004"
       height="21.999971"
       x="15.999996"
       y="9.9999876" />
    <path
       style="fill:currentColor;fill-opacity:1;stroke:none"
       class="ColorScheme-Text"
       d="m 18,12.99997 v 14 h -1 a 1.9999999,1.9999999 0 0 0 2,2 h 16 a 1.9999999,1.9999999 0 0 0 2,-2 h -1 v -14 z m 1,1 h 16 v 12 H 19 Z"
       id="rect7296"
       inkscape:connector-curvature="0" />
    <rect
       y="15.999921"
       x="21"
       height="8.0000439"
       width="12"
       id="rect932"
       class="ColorScheme-Highlight"
       style="opacity:1;fill:currentColor;fill-opacity:1;fill-rule:nonzero;stroke:none;stroke-width:1.73205519;stroke-linejoin:miter;stroke-miterlimit:4;stroke-dasharray:none;stroke-opacity:1" />
  </g>
  <g
     id="computer-laptop"
     inkscape:label="#g895">
    <rect
       y="3.6542602e-05"
       x="38.000004"
       height="32"
       width="32.000046"
       id="rect3026"
       style="opacity:0.01000001;fill:#31363b;fill-opacity:0.00392157;stroke:none;stroke-width:1.09091055" />
    <path
       style="fill:currentColor;fill-opacity:1;stroke:none"
       class="ColorScheme-Text"
       d="M 40.000004,3.9999748 40,22.999966 h -1 l 4e-6,1.000009 c 4e-6,1.104569 0.895431,2 2,2 h 26 c 1.104569,0 2,-0.895431 2,-2 v -1 L 68,22.999966 l 4e-6,-18.9999912 z m 1,1 h 26 V 21.999975 h -26 z m -1,19.0000002 h 28 c 0,0.552285 -0.447715,1 -1,1 h -26 c -0.552285,0 -1,-0.447715 -1,-1 z"
       id="path3028"
       inkscape:connector-curvature="0" />
    <rect
       y="6.9999657"
       x="43"
       height="13"
       width="22"
       id="rect934"
       class="ColorScheme-Highlight"
       style="opacity:1;fill:currentColor;fill-opacity:1;fill-rule:nonzero;stroke:none;stroke-width:2.34520769;stroke-linejoin:miter;stroke-miterlimit:4;stroke-dasharray:none;stroke-opacity:1" />
  </g>
</svg>
