<?xml version="1.0" encoding="UTF-8" standalone="no"?>
<!-- Created with Inkscape (http://www.inkscape.org/) -->

<svg
   xmlns:dc="http://purl.org/dc/elements/1.1/"
   xmlns:cc="http://creativecommons.org/ns#"
   xmlns:rdf="http://www.w3.org/1999/02/22-rdf-syntax-ns#"
   xmlns:svg="http://www.w3.org/2000/svg"
   xmlns="http://www.w3.org/2000/svg"
   xmlns:sodipodi="http://sodipodi.sourceforge.net/DTD/sodipodi-0.dtd"
   xmlns:inkscape="http://www.inkscape.org/namespaces/inkscape"
   width="32"
   height="32"
   id="svg3869"
   version="1.1"
   inkscape:version="0.92.4 (5da689c313, 2019-01-14)"
   sodipodi:docname="kdeconnect.svg"
   viewBox="0 0 32 32">
  <defs
     id="defs3871">
    <style
       type="text/css"
       id="current-color-scheme">
      .ColorScheme-Text {
        color:#1a1a1a;
      }
      .ColorScheme-Highlight {
        color:#7F7F7F;
      }
    </style>
  </defs>
  <sodipodi:namedview
     id="base"
     pagecolor="#ffffff"
     bordercolor="#666666"
     borderopacity="1.0"
     inkscape:pageopacity="0"
     inkscape:pageshadow="2"
     inkscape:zoom="9.5675676"
     inkscape:cx="19"
     inkscape:cy="15.999997"
     inkscape:document-units="px"
     inkscape:current-layer="layer1"
     showgrid="true"
     fit-margin-top="0"
     fit-margin-left="0"
     fit-margin-right="0"
     fit-margin-bottom="0"
     inkscape:window-width="1366"
     inkscape:window-height="701"
     inkscape:window-x="0"
     inkscape:window-y="0"
     inkscape:window-maximized="1"
     inkscape:showpageshadow="false" />
  <metadata
     id="metadata3874">
    <rdf:RDF>
      <cc:Work
         rdf:about="">
        <dc:format>image/svg+xml</dc:format>
        <dc:type
           rdf:resource="http://purl.org/dc/dcmitype/StillImage" />
        <dc:title></dc:title>
      </cc:Work>
    </rdf:RDF>
  </metadata>
  <g
     inkscape:label="Capa 1"
     inkscape:groupmode="layer"
     id="layer1"
     transform="translate(-321,-529.36218)">
    <g
       id="kdeconnect"
       inkscape:label="#g852">
      <rect
         y="529.36218"
         x="321"
         height="32"
         width="32"
         id="rect4436"
         style="opacity:1;fill:none;fill-opacity:1;stroke:none;stroke-width:0.1;stroke-linecap:square;stroke-linejoin:miter;stroke-miterlimit:4;stroke-dasharray:none;stroke-dashoffset:0;stroke-opacity:1" />
      <path
         id="path845"
         transform="translate(321,529.36218)"
         class="ColorScheme-Text"
         d="M 8 2 L 8 26 L 8 27 L 8 30 L 24 30 L 24 2 L 8 2 z M 13 3 L 19 3 L 19 4 L 13 4 L 13 3 z M 9 5 L 23 5 L 23 28 L 9 28 L 9 5 z "
         style="opacity:1;fill:currentColor;fill-opacity:1;stroke:none" />
      <path
         inkscape:connector-curvature="0"
         id="path839"
         class="ColorScheme-Highlight"
         d="m 336.5,541.36218 -0.27734,1.10742 c -0.25213,0.0672 -0.49441,0.167 -0.72071,0.29688 l -0.97656,-0.58594 -0.70703,0.70703 0.58594,0.97656 c -0.13139,0.22672 -0.23251,0.46967 -0.30078,0.72266 L 333,544.86218 v 1 l 1.10742,0.27734 c 0.0672,0.25213 0.167,0.49441 0.29688,0.72071 l -0.58594,0.97656 0.70703,0.70703 0.97656,-0.58594 c 0.22672,0.13139 0.46967,0.23251 0.72266,0.30078 l 0.27539,1.10352 h 1 l 0.27734,-1.10742 c 0.25213,-0.0672 0.49441,-0.167 0.72071,-0.29688 l 0.97656,0.58594 0.70703,-0.70703 -0.58594,-0.97656 c 0.13139,-0.22672 0.23251,-0.46967 0.30078,-0.72266 L 341,545.86218 v -1 l -1.10742,-0.27734 c -0.0672,-0.25213 -0.167,-0.49441 -0.29688,-0.72071 l 0.58594,-0.97656 -0.70703,-0.70703 -0.97656,0.58594 c -0.22672,-0.13139 -0.46967,-0.23251 -0.72266,-0.30078 L 337.5,541.36218 Z m 0.5,2 c 0.0665,2e-5 0.13302,0.003 0.19922,0.01 0.0662,0.006 0.13203,0.0163 0.19726,0.0293 0.0659,0.0136 0.13111,0.0306 0.19532,0.0508 0.0636,0.0197 0.12618,0.0425 0.1875,0.0684 0.0613,0.0256 0.12125,0.0543 0.17968,0.0859 0.0584,0.0323 0.11508,0.0675 0.16993,0.10547 0.0554,0.0377 0.10883,0.0781 0.16015,0.12109 0.0511,0.0431 0.1,0.0887 0.14649,0.13672 0.046,0.0473 0.0897,0.0968 0.13086,0.14844 0.0418,0.0527 0.0809,0.10744 0.11718,0.16406 0.0361,0.0562 0.0693,0.11426 0.0996,0.17383 0.0297,0.0592 0.0564,0.1198 0.0801,0.18164 0.0247,0.062 0.0462,0.12526 0.0645,0.18945 0.0176,0.0643 0.0319,0.12954 0.043,0.19532 0.0111,0.066 0.0189,0.13245 0.0234,0.19921 0.004,0.0468 0.006,0.0937 0.006,0.14063 -2e-5,0.0665 -0.003,0.13302 -0.01,0.19922 -0.006,0.0662 -0.0163,0.13203 -0.0293,0.19726 -0.0136,0.0659 -0.0306,0.13111 -0.0508,0.19532 -0.0197,0.0636 -0.0425,0.12618 -0.0684,0.1875 -0.0256,0.0613 -0.0543,0.12125 -0.0859,0.17968 -0.0323,0.0584 -0.0675,0.11508 -0.10547,0.16993 -0.0377,0.0554 -0.0781,0.10883 -0.12109,0.16015 -0.0431,0.0511 -0.0887,0.1 -0.13672,0.14649 -0.0473,0.046 -0.0968,0.0897 -0.14844,0.13086 -0.0527,0.0418 -0.10743,0.0809 -0.16406,0.11718 -0.0562,0.0361 -0.11426,0.0693 -0.17383,0.0996 -0.0592,0.0297 -0.1198,0.0564 -0.18164,0.0801 -0.062,0.0246 -0.12526,0.0462 -0.18945,0.0644 -0.0643,0.0176 -0.12953,0.0319 -0.19532,0.043 -0.066,0.0111 -0.13246,0.0189 -0.19922,0.0234 -0.0279,0.004 -0.0559,0.007 -0.084,0.01 h -0.13672 c -0.0398,-0.002 -0.0795,-0.005 -0.11914,-0.01 -0.0662,-0.006 -0.13203,-0.0163 -0.19726,-0.0293 -0.0659,-0.0136 -0.13111,-0.0306 -0.19532,-0.0508 -0.0636,-0.0197 -0.12618,-0.0425 -0.1875,-0.0684 -0.0613,-0.0256 -0.12125,-0.0543 -0.17968,-0.0859 -0.0584,-0.0323 -0.11508,-0.0675 -0.16993,-0.10547 -0.0554,-0.0377 -0.10882,-0.0781 -0.16015,-0.1211 -0.0301,-0.0264 -0.0594,-0.0538 -0.0879,-0.082 l -0.0879,-0.0879 c -0.0353,-0.0371 -0.0692,-0.0755 -0.10157,-0.11523 -0.0418,-0.0527 -0.0809,-0.10744 -0.11718,-0.16407 -0.0361,-0.0562 -0.0693,-0.11425 -0.0996,-0.17382 -0.0297,-0.0592 -0.0564,-0.1198 -0.0801,-0.18164 -0.0247,-0.062 -0.0462,-0.12527 -0.0645,-0.18946 -0.0176,-0.0644 -0.0319,-0.12953 -0.043,-0.19531 -0.0111,-0.066 -0.0189,-0.13246 -0.0234,-0.19922 -0.004,-0.0468 -0.006,-0.0937 -0.006,-0.14062 2e-5,-0.0665 0.003,-0.13302 0.01,-0.19922 0.006,-0.0662 0.0163,-0.13204 0.0293,-0.19727 0.0136,-0.0659 0.0306,-0.1311 0.0508,-0.19531 0.0197,-0.0636 0.0425,-0.12618 0.0684,-0.1875 0.0256,-0.0613 0.0543,-0.12126 0.0859,-0.17969 0.0323,-0.0584 0.0675,-0.11507 0.10547,-0.16992 0.0377,-0.0554 0.0781,-0.10883 0.12109,-0.16016 0.0431,-0.0511 0.0887,-0.1 0.13672,-0.14648 0.0473,-0.046 0.0968,-0.0897 0.14844,-0.13086 0.0527,-0.0418 0.10743,-0.0809 0.16406,-0.11719 0.0562,-0.0361 0.11426,-0.0693 0.17383,-0.0996 0.0592,-0.0297 0.1198,-0.0564 0.18164,-0.0801 0.062,-0.0246 0.12526,-0.0462 0.18945,-0.0644 0.0643,-0.0176 0.12954,-0.0319 0.19532,-0.043 0.066,-0.0111 0.13245,-0.0189 0.19921,-0.0234 0.0467,-0.005 0.0936,-0.008 0.14063,-0.01 z"
         style="opacity:1;fill:currentColor;fill-opacity:1;stroke:none" />
    </g>
    <g
       id="16-16-kdeconnect"
       inkscape:label="#g869">
      <rect
         y="537.36218"
         x="303"
         height="16"
         width="16"
         id="rect4442"
         style="opacity:1;fill:none;fill-opacity:1;stroke:none;stroke-width:0.10079043;stroke-linecap:square;stroke-linejoin:miter;stroke-miterlimit:4;stroke-dasharray:none;stroke-dashoffset:0;stroke-opacity:1" />
      <path
         id="path862"
         transform="translate(321,529.36218)"
         class="ColorScheme-Text"
         d="M -14 10 L -14 22 L -12 22 L -12 21 L -12 20 L -13 20 L -13 13 L -7 13 L -7 14 L -6 14 L -6 10 L -14 10 z M -11 11 L -9 11 L -9 12 L -11 12 L -11 11 z "
         style="opacity:1;fill:currentColor;fill-opacity:1;stroke:none" />
      <path
         id="path858"
         transform="translate(321,529.36218)"
         class="ColorScheme-Highlight"
         d="M -8.5 14 L -8.7773438 15.107422 A 3 3 0 0 0 -9.4980469 15.404297 L -10.474609 14.818359 L -11.181641 15.525391 L -10.595703 16.501953 A 3 3 0 0 0 -10.896484 17.224609 L -12 17.5 L -12 18.5 L -10.892578 18.777344 A 3 3 0 0 0 -10.595703 19.498047 L -11.181641 20.474609 L -10.474609 21.181641 L -9.4980469 20.595703 A 3 3 0 0 0 -8.7753906 20.896484 L -8.5 22 L -7.5 22 L -7.2226562 20.892578 A 3 3 0 0 0 -6.5019531 20.595703 L -5.5253906 21.181641 L -4.8183594 20.474609 L -5.4042969 19.498047 A 3 3 0 0 0 -5.1035156 18.775391 L -4 18.5 L -4 17.5 L -5.1074219 17.222656 A 3 3 0 0 0 -5.4042969 16.501953 L -4.8183594 15.525391 L -5.5253906 14.818359 L -6.5019531 15.404297 A 3 3 0 0 0 -7.2246094 15.103516 L -7.5 14 L -8.5 14 z M -8 16 A 2 2 0 0 1 -7.8007812 16.009766 A 2 2 0 0 1 -7.6035156 16.039062 A 2 2 0 0 1 -7.4082031 16.089844 A 2 2 0 0 1 -7.2207031 16.158203 A 2 2 0 0 1 -7.0410156 16.244141 A 2 2 0 0 1 -6.8710938 16.349609 A 2 2 0 0 1 -6.7109375 16.470703 A 2 2 0 0 1 -6.5644531 16.607422 A 2 2 0 0 1 -6.4335938 16.755859 A 2 2 0 0 1 -6.3164062 16.919922 A 2 2 0 0 1 -6.2167969 17.09375 A 2 2 0 0 1 -6.1367188 17.275391 A 2 2 0 0 1 -6.0722656 17.464844 A 2 2 0 0 1 -6.0292969 17.660156 A 2 2 0 0 1 -6.0058594 17.859375 A 2 2 0 0 1 -6 18 A 2 2 0 0 1 -6.0097656 18.199219 A 2 2 0 0 1 -6.0390625 18.396484 A 2 2 0 0 1 -6.0898438 18.591797 A 2 2 0 0 1 -6.1582031 18.779297 A 2 2 0 0 1 -6.2441406 18.958984 A 2 2 0 0 1 -6.3496094 19.128906 A 2 2 0 0 1 -6.4707031 19.289062 A 2 2 0 0 1 -6.6074219 19.435547 A 2 2 0 0 1 -6.7558594 19.566406 A 2 2 0 0 1 -6.9199219 19.683594 A 2 2 0 0 1 -7.09375 19.783203 A 2 2 0 0 1 -7.2753906 19.863281 A 2 2 0 0 1 -7.4648438 19.927734 A 2 2 0 0 1 -7.6601562 19.970703 A 2 2 0 0 1 -7.859375 19.994141 A 2 2 0 0 1 -7.9433594 20.003906 L -8.0800781 20.003906 A 2 2 0 0 1 -8.1992188 19.994141 A 2 2 0 0 1 -8.3964844 19.964844 A 2 2 0 0 1 -8.5917969 19.914062 A 2 2 0 0 1 -8.7792969 19.845703 A 2 2 0 0 1 -8.9589844 19.759766 A 2 2 0 0 1 -9.1289062 19.654297 A 2 2 0 0 1 -9.2890625 19.533203 A 2 2 0 0 1 -9.3769531 19.451172 L -9.4648438 19.363281 A 2 2 0 0 1 -9.5664062 19.248047 A 2 2 0 0 1 -9.6835938 19.083984 A 2 2 0 0 1 -9.7832031 18.910156 A 2 2 0 0 1 -9.8632812 18.728516 A 2 2 0 0 1 -9.9277344 18.539062 A 2 2 0 0 1 -9.9707031 18.34375 A 2 2 0 0 1 -9.9941406 18.144531 A 2 2 0 0 1 -10 18.003906 A 2 2 0 0 1 -9.9902344 17.804688 A 2 2 0 0 1 -9.9609375 17.607422 A 2 2 0 0 1 -9.9101562 17.412109 A 2 2 0 0 1 -9.8417969 17.224609 A 2 2 0 0 1 -9.7558594 17.044922 A 2 2 0 0 1 -9.6503906 16.875 A 2 2 0 0 1 -9.5292969 16.714844 A 2 2 0 0 1 -9.3925781 16.568359 A 2 2 0 0 1 -9.2441406 16.4375 A 2 2 0 0 1 -9.0800781 16.320312 A 2 2 0 0 1 -8.90625 16.220703 A 2 2 0 0 1 -8.7246094 16.140625 A 2 2 0 0 1 -8.5351562 16.076172 A 2 2 0 0 1 -8.3398438 16.033203 A 2 2 0 0 1 -8.140625 16.009766 A 2 2 0 0 1 -8 16 z "
         style="opacity:1;fill:currentColor;fill-opacity:1;stroke:none" />
    </g>
    <g
       id="22-22-kdeconnect"
       inkscape:label="#g925">
      <rect
         style="opacity:1;fill:none;fill-opacity:1;stroke:none;stroke-width:0.13858683;stroke-linecap:square;stroke-linejoin:miter;stroke-miterlimit:4;stroke-dasharray:none;stroke-dashoffset:0;stroke-opacity:1"
         id="rect4444"
         width="22"
         height="22"
         x="355"
         y="534.36218" />
      <path
         inkscape:connector-curvature="0"
         id="path881"
         class="ColorScheme-Text"
         d="m 361,537.36218 v 16 h 10 v -16 z m 3,1 h 4 v 1 h -4 z m -2,2 h 8 v 11 h -8 z"
         style="opacity:1;fill:currentColor;fill-opacity:1;stroke:none;stroke-width:0.1;stroke-linecap:square;stroke-linejoin:miter;stroke-miterlimit:4;stroke-dasharray:none;stroke-dashoffset:0;stroke-opacity:1" />
      <path
         inkscape:connector-curvature="0"
         id="path839-5"
         class="ColorScheme-Highlight"
         d="m 365.50631,542.35329 -0.27734,1.10742 c -0.25213,0.0672 -0.49441,0.167 -0.72071,0.29688 l -0.97656,-0.58594 -0.70703,0.70703 0.58594,0.97656 c -0.13139,0.22672 -0.23251,0.46967 -0.30078,0.72266 l -1.10352,0.27539 v 1 l 1.10742,0.27734 c 0.0672,0.25213 0.167,0.49441 0.29688,0.72071 l -0.58594,0.97656 0.70703,0.70703 0.97656,-0.58594 c 0.22672,0.13139 0.46967,0.23251 0.72266,0.30078 l 0.27539,1.10352 h 1 l 0.27734,-1.10742 c 0.25213,-0.0672 0.49441,-0.167 0.72071,-0.29688 l 0.97656,0.58594 0.70703,-0.70703 -0.58594,-0.97656 c 0.13139,-0.22672 0.23251,-0.46967 0.30078,-0.72266 l 1.10352,-0.27539 v -1 l -1.10742,-0.27734 c -0.0672,-0.25213 -0.167,-0.49441 -0.29688,-0.72071 l 0.58594,-0.97656 -0.70703,-0.70703 -0.97656,0.58594 c -0.22672,-0.13139 -0.46967,-0.23251 -0.72266,-0.30078 l -0.27539,-1.10352 z m 0.5,2 c 0.0665,2e-5 0.13302,0.003 0.19922,0.01 0.0662,0.006 0.13203,0.0163 0.19726,0.0293 0.0659,0.0136 0.13111,0.0306 0.19532,0.0508 0.0636,0.0197 0.12618,0.0425 0.1875,0.0684 0.0613,0.0256 0.12125,0.0543 0.17968,0.0859 0.0584,0.0323 0.11508,0.0675 0.16993,0.10547 0.0554,0.0377 0.10883,0.0781 0.16015,0.12109 0.0511,0.0431 0.1,0.0887 0.14649,0.13672 0.046,0.0473 0.0897,0.0968 0.13086,0.14844 0.0418,0.0527 0.0809,0.10744 0.11718,0.16406 0.0361,0.0562 0.0693,0.11426 0.0996,0.17383 0.0297,0.0592 0.0564,0.1198 0.0801,0.18164 0.0247,0.062 0.0462,0.12526 0.0645,0.18945 0.0176,0.0643 0.0319,0.12954 0.043,0.19532 0.0111,0.066 0.0189,0.13245 0.0234,0.19921 0.004,0.0468 0.006,0.0937 0.006,0.14063 -2e-5,0.0665 -0.003,0.13302 -0.01,0.19922 -0.006,0.0662 -0.0163,0.13203 -0.0293,0.19726 -0.0136,0.0659 -0.0306,0.13111 -0.0508,0.19532 -0.0197,0.0636 -0.0425,0.12618 -0.0684,0.1875 -0.0256,0.0613 -0.0543,0.12125 -0.0859,0.17968 -0.0323,0.0584 -0.0675,0.11508 -0.10547,0.16993 -0.0377,0.0554 -0.0781,0.10883 -0.12109,0.16015 -0.0431,0.0511 -0.0887,0.1 -0.13672,0.14649 -0.0473,0.046 -0.0968,0.0897 -0.14844,0.13086 -0.0527,0.0418 -0.10743,0.0809 -0.16406,0.11718 -0.0562,0.0361 -0.11426,0.0693 -0.17383,0.0996 -0.0592,0.0297 -0.1198,0.0564 -0.18164,0.0801 -0.062,0.0246 -0.12526,0.0462 -0.18945,0.0644 -0.0643,0.0176 -0.12953,0.0319 -0.19532,0.043 -0.066,0.0111 -0.13246,0.0189 -0.19922,0.0234 -0.0279,0.004 -0.0559,0.007 -0.084,0.01 h -0.13672 c -0.0398,-0.002 -0.0795,-0.005 -0.11914,-0.01 -0.0662,-0.006 -0.13203,-0.0163 -0.19726,-0.0293 -0.0659,-0.0136 -0.13111,-0.0306 -0.19532,-0.0508 -0.0636,-0.0197 -0.12618,-0.0425 -0.1875,-0.0684 -0.0613,-0.0256 -0.12125,-0.0543 -0.17968,-0.0859 -0.0584,-0.0323 -0.11508,-0.0675 -0.16993,-0.10547 -0.0554,-0.0377 -0.10882,-0.0781 -0.16015,-0.1211 -0.0301,-0.0264 -0.0594,-0.0538 -0.0879,-0.082 l -0.0879,-0.0879 c -0.0353,-0.0371 -0.0692,-0.0755 -0.10157,-0.11523 -0.0418,-0.0527 -0.0809,-0.10744 -0.11718,-0.16407 -0.0361,-0.0562 -0.0693,-0.11425 -0.0996,-0.17382 -0.0297,-0.0592 -0.0564,-0.1198 -0.0801,-0.18164 -0.0247,-0.062 -0.0462,-0.12527 -0.0645,-0.18946 -0.0176,-0.0644 -0.0319,-0.12953 -0.043,-0.19531 -0.0111,-0.066 -0.0189,-0.13246 -0.0234,-0.19922 -0.004,-0.0468 -0.006,-0.0937 -0.006,-0.14062 2e-5,-0.0665 0.003,-0.13302 0.01,-0.19922 0.006,-0.0662 0.0163,-0.13204 0.0293,-0.19727 0.0136,-0.0659 0.0306,-0.1311 0.0508,-0.19531 0.0197,-0.0636 0.0425,-0.12618 0.0684,-0.1875 0.0256,-0.0613 0.0543,-0.12126 0.0859,-0.17969 0.0323,-0.0584 0.0675,-0.11507 0.10547,-0.16992 0.0377,-0.0554 0.0781,-0.10883 0.12109,-0.16016 0.0431,-0.0511 0.0887,-0.1 0.13672,-0.14648 0.0473,-0.046 0.0968,-0.0897 0.14844,-0.13086 0.0527,-0.0418 0.10743,-0.0809 0.16406,-0.11719 0.0562,-0.0361 0.11426,-0.0693 0.17383,-0.0996 0.0592,-0.0297 0.1198,-0.0564 0.18164,-0.0801 0.062,-0.0246 0.12526,-0.0462 0.18945,-0.0644 0.0643,-0.0176 0.12954,-0.0319 0.19532,-0.043 0.066,-0.0111 0.13245,-0.0189 0.19921,-0.0234 0.0467,-0.005 0.0936,-0.008 0.14063,-0.01 z"
         style="opacity:1;fill:currentColor;fill-opacity:1;stroke:none" />
    </g>
  </g>
</svg>
